<svg xmlns="http://www.w3.org/2000/svg" xmlns:xlink="http://www.w3.org/1999/xlink" width="219.565" height="318.238" viewBox="0 0 219.565 318.238"><defs><clipPath id="a"><path d="M1232.008,326.951c0,76.04-49.152,105.413-109.783,105.413s-109.782-20.768-109.782-96.808c0-35.187,26.339-105.813,43.656-130.152,20.1-28.259,33.552-48.4,66.126-48.4,30.225,0,43.064,19.317,62.916,44.1C1205.113,226.034,1232.008,288.817,1232.008,326.951Z" fill="none"/></clipPath></defs><path d="M1198.879,473.238H1172.1s26.955-33.842,1.78-54.328" transform="translate(-1012.443 -157)" fill="none" stroke="#29abe2" stroke-linecap="round" stroke-linejoin="round" stroke-width="4"/><path d="M1041.27,473.238h26.778s-26.954-33.842-1.779-54.328" transform="translate(-1012.443 -157)" fill="none" stroke="#29abe2" stroke-linecap="round" stroke-linejoin="round" stroke-width="4"/><path d="M1232.008,326.951c0,76.04-49.152,105.413-109.783,105.413s-109.782-20.768-109.782-96.808c0-35.187,26.339-105.813,43.656-130.152,20.1-28.259,33.552-48.4,66.126-48.4,30.225,0,43.064,19.317,62.916,44.1C1205.113,226.034,1232.008,288.817,1232.008,326.951Z" transform="translate(-1012.443 -157)" fill="#29abe2"/><g transform="translate(-1012.443 -157)"><g clip-path="url(#a)"><path d="M979.232,310.182s30.529,95.583,142.911,94.451,144.285-94.451,144.285-94.451V435.994h-287.2Z" fill="#0071bc"/></g></g><path d="M1113.59,318.362c-2.146-.435-4.978-2.745-5.114-2.46-.814,1.694-3.388,7.515-1.657,9.716,2.076,2.639,6.275,2.448,9.005-2.084a26.8,26.8,0,0,0,2.081-4.189Z" transform="translate(-1012.443 -157)" fill="#fff"/><path d="M1130.715,318.362c2.145-.435,4.977-2.745,5.114-2.46.814,1.694,3.388,7.515,1.657,9.716-2.076,2.639-6.275,2.448-9.005-2.084a26.766,26.766,0,0,1-2.082-4.189Z" transform="translate(-1012.443 -157)" fill="#fff"/><ellipse cx="20.374" cy="20.841" rx="20.374" ry="20.841" transform="translate(64.32 85.668)" stroke="#000" stroke-miterlimit="10" stroke-width="1"/><ellipse cx="12.84" cy="11.524" rx="12.84" ry="11.524" transform="translate(72.059 86.136)" fill="#fff" stroke="#000" stroke-miterlimit="10" stroke-width="1"/><ellipse cx="20.374" cy="20.841" rx="20.374" ry="20.841" transform="translate(115.607 85.668)" stroke="#000" stroke-miterlimit="10" stroke-width="1"/><ellipse cx="12.84" cy="11.524" rx="12.84" ry="11.524" transform="translate(123.346 86.136)" fill="#fff" stroke="#000" stroke-miterlimit="10" stroke-width="1"/><g transform="translate(-1012.443 -157)"><path d="M1132.356,410.325V388.562h-20.262v21.763h-18.427V352.957h18.427v20.928h20.262V352.957h18.427v57.368Z" fill="#1a1a1a"/></g><path d="M1104.477,309.859c2.893,6.339,10.376,10.453,18.449,10.193,7.64-.246,14.418-4.366,17.047-10.385" transform="translate(-1012.443 -157)" fill="none" stroke="#000" stroke-linecap="round" stroke-linejoin="round" stroke-width="3"/></svg>