<svg xmlns="http://www.w3.org/2000/svg" xmlns:xlink="http://www.w3.org/1999/xlink" width="276.283" height="404.708" viewBox="0 0 276.283 404.708"><defs><clipPath id="a"><path d="M1499.978,416.334c23.962.149,48.238-.307,80.554-14.157,51.907-22.246,49.784-96.227,27.163-129.293-13.146-19.216-12.266-71.706-12.266-71.706s15.681-73.412-40.838-114.894c-20.967-15.389-55.976-14.235-55.976-14.235h-5.58s-35.008-1.154-55.975,14.235c-56.519,41.482-40.839,114.894-40.839,114.894s1.981,52.49-11.165,71.706c-22.621,33.066-24.743,107.047,27.163,129.293,32.316,13.85,55.865,14.3,79.828,14.152Z" fill="none"/></clipPath></defs><g transform="translate(3.625)"><path d="M1605.76,473.238h-36s36.236-45.495,2.392-73.034" transform="translate(-1361.918 -72.029)" fill="none" stroke="#ba9bc9" stroke-linecap="round" stroke-linejoin="round" stroke-width="7"/><path d="M1393.882,473.238h36s-36.236-45.495-2.393-73.034" transform="translate(-1361.918 -72.029)" fill="none" stroke="#ba9bc9" stroke-linecap="round" stroke-linejoin="round" stroke-width="7"/><path d="M1499.978,416.334c23.962.149,48.238-.307,80.554-14.157,51.907-22.246,49.784-96.227,27.163-129.293-13.146-19.216-12.266-71.706-12.266-71.706s15.681-73.412-40.838-114.894c-20.967-15.389-55.976-14.235-55.976-14.235h-5.58s-35.008-1.154-55.975,14.235c-56.519,41.482-40.839,114.894-40.839,114.894s1.981,52.49-11.165,71.706c-22.621,33.066-24.743,107.047,27.163,129.293,32.316,13.85,55.865,14.3,79.828,14.152Z" transform="translate(-1361.918 -72.029)" fill="#ba9bc9"/><g transform="translate(-1361.918 -72.029)"><g clip-path="url(#a)"><path d="M1353.444,314.865s15.048,72.8,142.932,69.246,145.068-69.246,145.068-69.246l-2.37,101.487h-285.63Z" fill="#624964"/></g></g><ellipse cx="15.139" cy="19.144" rx="15.139" ry="19.144" transform="translate(89.715 98.456)" stroke="#000" stroke-miterlimit="10" stroke-width="1"/><ellipse cx="9.541" cy="8.563" rx="9.541" ry="8.563" transform="translate(95.466 98.456)" fill="#fff" stroke="#000" stroke-miterlimit="10" stroke-width="1"/><ellipse cx="15.139" cy="19.144" rx="15.139" ry="19.144" transform="translate(147.823 98.456)" stroke="#000" stroke-miterlimit="10" stroke-width="1"/><ellipse cx="9.541" cy="8.563" rx="9.541" ry="8.563" transform="translate(153.573 98.456)" fill="#fff" stroke="#000" stroke-miterlimit="10" stroke-width="1"/><path d="M1473.176,232.371c3.96,8.58,14.2,14.149,25.255,13.8,10.459-.333,19.738-5.91,23.337-14.057" transform="translate(-1361.918 -72.029)" fill="none" stroke="#000" stroke-linecap="round" stroke-linejoin="round" stroke-width="2"/><path d="M1439.414,166.156c9.464-20.5,32.165-18.916,58.586-19.045,24.195-.118,48.93.2,57.53,19.667" transform="translate(-1361.918 -72.029)" fill="none" stroke="#000" stroke-linecap="round" stroke-linejoin="round" stroke-width="3"/><g transform="translate(-1361.918 -72.029)"><path d="M1512.458,388.583l-3.227-10.791h-26.813l-3.227,10.791h-25.144l27.927-76.546h28.592l27.927,76.546Zm-24.922-27.926h16.578L1496.1,333.4h-.446Z" fill="#1a1a1a"/></g><path d="M1392.111,263.509s-50.819,51.8-20.6,123.357" transform="translate(-1361.918 -72.029)" fill="none" stroke="#ba9bc9" stroke-linecap="round" stroke-miterlimit="10" stroke-width="7"/><path d="M1600.757,262.866s50.819-51.8,20.6-123.357" transform="translate(-1361.918 -72.029)" fill="none" stroke="#ba9bc9" stroke-linecap="round" stroke-miterlimit="10" stroke-width="7"/></g></svg>