<svg xmlns="http://www.w3.org/2000/svg" width="366" height="621" viewBox="0 0 366 621">
  <g id="Group_248" data-name="Group 248" transform="translate(-501 -1012)">
    <text id="EWWW" transform="translate(684 1190)" fill="#fff" font-size="92" font-family="Nunito-Black, Nunito" font-weight="800"><tspan x="-182.528" y="0">EWWW</tspan></text>
    <text id="EWWW-2" data-name="EWWW" transform="translate(684 1274)" fill="#fff" font-size="92" font-family="Nunito-Black, Nunito" font-weight="800"><tspan x="-182.528" y="0">EWWW</tspan></text>
    <text id="EWWW-3" data-name="EWWW" transform="translate(684 1357)" fill="#fff" font-size="92" font-family="Nunito-Black, Nunito" font-weight="800"><tspan x="-182.528" y="0">EWWW</tspan></text>
    <text id="EWWW-4" data-name="EWWW" transform="translate(684 1441)" fill="#fff" font-size="92" font-family="Nunito-Black, Nunito" font-weight="800"><tspan x="-182.528" y="0">EWWW</tspan></text>
    <text id="EWWW-5" data-name="EWWW" transform="translate(684 1526)" fill="#fff" font-size="92" font-family="Nunito-Black, Nunito" font-weight="800"><tspan x="-182.528" y="0">EWWW</tspan></text>
    <text id="EWWW-6" data-name="EWWW" transform="translate(684 1601)" fill="#fff" font-size="92" font-family="Nunito-Black, Nunito" font-weight="800"><tspan x="-182.528" y="0">EWWW</tspan></text>
    <g id="Component_3_7" data-name="Component 3 – 7" transform="translate(561 1215)">
      <path id="right_leg" data-name="right leg" d="M1007.684,398.459s10.6,35-.99,45.295h25.1" transform="translate(-852.398 -158.099)" fill="none" stroke="#000" stroke-linecap="round" stroke-linejoin="round" stroke-width="3"/>
      <path id="right_arm" data-name="right arm" d="M1096.151,275.171c-2.574,19.31-16.735,37.332-39.907,34.758" transform="translate(-852.398 -158.099)" fill="none" stroke="#000" stroke-linecap="round" stroke-linejoin="round" stroke-width="3"/>
      <path id="body" d="M1014.847,240.358c3.839,4.091,23.607,30.373,26.819,34.972,17.379,24.889,24.042,55.264,16.242,86.465-8.368,33.47-67.949,40.122-67.949,40.122s-72.734,6.436-94.618-37.976,20.6-119.721,37.332-146.754,39.907-49.347,56-55.784,25.318-2.146,18.666,1.716c-13.589,7.891-19.485,25.407-18.022,34.972C991.428,211.9,1007.079,232.081,1014.847,240.358Z" transform="translate(-852.398 -158.099)" fill="#c1272d"/>
      <path id="shadow" d="M932.673,217.187c-16.735,27.033-59.217,102.341-37.332,146.754s94.618,37.976,94.618,37.976,59.581-6.652,67.949-40.122a106.665,106.665,0,0,0,3.225-25.472c-1.257,12.456-22.874,36-68.73,37.712-45.914,1.717-69.159-17.088-77.327-52.287-6.959-29.987,8.651-83.373,20.8-109.565Q934.241,214.654,932.673,217.187Z" transform="translate(-852.398 -158.099)" fill="#591318"/>
      <path id="left_arm" data-name="left arm" d="M852.4,305.273c12.23,25.746,30.252,41.838,59.861,27.677" transform="translate(-852.398 -158.099)" fill="none" stroke="#000" stroke-linecap="round" stroke-linejoin="round" stroke-width="3"/>
      <path id="left_leg" data-name="left leg" d="M951.339,390.331s21.241,37.332-6.436,60.5h32.826" transform="translate(-852.398 -158.099)" fill="none" stroke="#000" stroke-linecap="round" stroke-linejoin="round" stroke-width="3"/>
      <path id="brow" d="M946.19,239.5s16.77-30.762,56.659-13.987" transform="translate(-852.398 -158.099)" fill="none" stroke="#000" stroke-linecap="round" stroke-linejoin="round" stroke-width="5"/>
      <g id="eyes" transform="translate(-852.398 -158.099)">
        <ellipse id="left" cx="8.006" cy="20.622" rx="8.006" ry="20.622" stroke-width="1" transform="translate(958.154 223.611) rotate(-3.965)" stroke="#000" stroke-linecap="round" stroke-linejoin="round"/>
        <ellipse id="right" cx="7.002" cy="18.037" rx="7.002" ry="18.037" stroke-width="1" transform="translate(981.49 225.546) rotate(-22.63)" stroke="#000" stroke-linecap="round" stroke-linejoin="round"/>
        <ellipse id="shine_left" data-name="shine left" cx="7.214" cy="3.653" rx="7.214" ry="3.653" transform="translate(963.419 239.609) rotate(-83.783)" fill="#fff"/>
        <ellipse id="shine_right" data-name="shine right" cx="3.653" cy="7.214" rx="3.653" ry="7.214" transform="matrix(0.962, -0.273, 0.273, 0.962, 985.93, 225.207)" fill="#fff"/>
      </g>
      <path id="mouth" d="M984.809,292.673s9.226,14.84,23.172,9.691,7.724-18.881,7.724-18.881" transform="matrix(-0.966, -0.259, 0.259, -0.966, 1039.437, 677.899)" fill="none" stroke="#000" stroke-linecap="round" stroke-linejoin="round" stroke-width="2"/>
    </g>
    <text id="EWWW-7" data-name="EWWW" transform="translate(684 1105)" fill="#fff" font-size="92" font-family="Nunito-Black, Nunito" font-weight="800"><tspan x="-182.528" y="0">EWWW</tspan></text>
  </g>
</svg>
