<svg xmlns="http://www.w3.org/2000/svg" width="246.397" height="245.412" viewBox="0 0 246.397 245.412">
  <g id="Group_49" data-name="Group 49" transform="translate(-1330.269 -1289.21)">
    <path id="Path_94" data-name="Path 94" d="M1575.361,1394.385c-.151-1.973-.75-3.869-.971-5.829-.7-3.328-1.368-6.661-2.347-9.922-.642-2.322-1.442-4.593-2.177-6.884-.623-1.817-1.329-3.6-2.042-5.384-.5-1.08-.761-2.251-1.282-3.323-1.422-2.8-2.581-5.734-4.063-8.509-.86-1.385-1.641-2.815-2.454-4.227-.827-1.373-1.542-2.812-2.479-4.119-1.644-2.636-3.364-5.22-5.25-7.692-.357-.431-.637-.919-1-1.346-1.81-2.349-3.748-4.595-5.637-6.879a24.153,24.153,0,0,1-3.332-3.616,31.731,31.731,0,0,0-3.352-3.354,29.187,29.187,0,0,1-4.02-3.729c-2.275-1.9-4.548-3.811-6.888-5.636-.43-.358-.912-.646-1.345-1-2.456-1.911-5.076-3.582-7.7-5.249-1.3-.955-2.759-1.632-4.121-2.477-1.4-.827-2.855-1.574-4.226-2.457-2.764-1.508-5.726-2.6-8.513-4.059-1.07-.529-2.25-.773-3.327-1.283-1.776-.737-3.585-1.388-5.393-2.041-2.283-.76-4.572-1.5-6.883-2.171-3.241-1-6.571-1.619-9.879-2.331-1.757-.024-3.429-1.072-5.241-.426a173.673,173.673,0,0,0-23.283-1.212l-1.534.053-8.459.8c-3.209.053-6.295,1.028-9.48,1.267-2.553.122-4.934,1.054-7.4,1.566-3.015.891-6,1.855-8.984,2.856-1.14.4-2.239.91-3.381,1.3-1.518.74-3.189,1.1-4.683,1.9-2.373,1.17-4.832,2.156-7.177,3.386-1.936,1.054-3.828,2.182-5.741,3.275-1,.549-1.988,1.1-2.943,1.719-3.035,1.956-6.045,3.949-8.932,6.122-2.648,2.106-5.3,4.206-7.824,6.462q-.676.71-1.387,1.384a48.041,48.041,0,0,0-7.2,7.2c-.45.475-.916.933-1.388,1.385-2.275,2.508-4.334,5.195-6.468,7.819-2.187,2.873-4.141,5.9-6.118,8.921-.622.95-1.167,1.945-1.72,2.934-.99,1.633-1.842,3.345-2.88,4.95-1.387,2.6-2.486,5.339-3.79,7.98-.817,1.488-1.138,3.178-1.9,4.687-.4,1.141-.885,2.25-1.3,3.385-1.035,2.967-1.937,5.978-2.857,8.982-.621,2.437-1.219,4.879-1.731,7.341-.539,3.142-1.122,6.276-1.573,9.433-.512,2.793-.415,5.645-.813,8.449a6.826,6.826,0,0,0-.147,1.837,129.024,129.024,0,0,0,1.237,22.424c.152,1.972.75,3.869.971,5.829.7,3.329,1.369,6.661,2.347,9.923.642,2.321,1.442,4.592,2.177,6.884.624,1.816,1.329,3.6,2.041,5.384.5,1.08.762,2.251,1.282,3.323,1.422,2.8,2.581,5.733,4.063,8.509.861,1.385,1.641,2.815,2.454,4.227.827,1.373,1.542,2.812,2.479,4.118,1.644,2.636,3.364,5.221,5.25,7.692.357.431.637.918,1,1.346,1.811,2.349,3.748,4.595,5.637,6.879a24.155,24.155,0,0,1,3.332,3.617,31.726,31.726,0,0,0,3.352,3.354,29.223,29.223,0,0,1,4.019,3.729c2.276,1.9,4.548,3.811,6.888,5.636.429.358.912.645,1.344,1,2.457,1.911,5.076,3.581,7.7,5.249,1.3.956,2.759,1.632,4.121,2.477,1.4.827,2.855,1.574,4.226,2.457,2.764,1.508,5.725,2.6,8.513,4.059,1.07.529,2.25.773,3.327,1.283,1.776.737,3.586,1.388,5.394,2.041,2.283.761,4.574,1.5,6.886,2.172,3.249,1,6.589,1.62,9.906,2.338,1.886-.006,3.672,1.228,5.621.448a166.186,166.186,0,0,0,22.874,1.182,1.7,1.7,0,0,0,1.582.377c.811-.331,1.791-.063,2.51-.716l5.9-.52c3.2-.1,6.292-1.022,9.474-1.265,2.554-.12,4.937-1.053,7.407-1.566,3.015-.89,6.005-1.855,8.985-2.855,1.14-.4,2.239-.91,3.382-1.3,1.519-.74,3.191-1.1,4.686-1.9,2.656-1.269,5.364-2.428,7.976-3.79,1.621-1.007,3.309-1.9,4.947-2.877.995-.544,1.983-1.1,2.937-1.714,3.035-1.954,6.043-3.948,8.929-6.12,2.648-2.106,5.3-4.206,7.823-6.461q.677-.71,1.387-1.385a48.051,48.051,0,0,0,7.2-7.2c.449-.475.916-.933,1.387-1.385,2.276-2.508,4.335-5.2,6.468-7.82,2.187-2.873,4.141-5.9,6.118-8.921.622-.95,1.167-1.945,1.72-2.934.99-1.632,1.842-3.345,2.88-4.949,1.387-2.6,2.486-5.339,3.79-7.979.817-1.488,1.139-3.178,1.9-4.687.4-1.141.885-2.25,1.3-3.384,1.034-2.967,1.937-5.978,2.857-8.982.621-2.437,1.219-4.879,1.731-7.341.539-3.141,1.122-6.276,1.573-9.432.513-2.793.416-5.645.814-8.449a6.844,6.844,0,0,0,.147-1.837A129.023,129.023,0,0,0,1575.361,1394.385Zm-122.049,127.566c-60.919-.172-110.193-49.515-110.134-110.288.059-60.9,49.642-110.366,110.446-110.18,60.935.187,110.194,49.515,110.134,110.289C1563.7,1472.677,1514.131,1522.123,1453.312,1521.952Z" fill="#f2cd00"/>
    <path id="Path_95" data-name="Path 95" d="M1516.568,1666.53c-21.5-.648-41.278-8.921-56.859-26.265-12.645-14.075-19.073-30.765-20.014-49.628-.082-1.646.234-2.178,2-2.217,4.9-.108,9.789-.428,14.677-.755,1.332-.089,1.7.285,1.748,1.63.678,17.758,7.443,32.806,21.017,44.31,13.644,11.563,29.589,16.392,47.437,13.774,17.058-2.5,30.748-10.8,40.7-24.923a58.412,58.412,0,0,0,10.832-32.581c.055-1.945.653-2.328,2.433-2.2,4.885.36,9.78.607,14.676.781,1.267.045,1.386.542,1.354,1.6a78.182,78.182,0,0,1-6.148,28.309,77.206,77.206,0,0,1-20.509,28.563,79.194,79.194,0,0,1-34.106,17.477A86.924,86.924,0,0,1,1516.568,1666.53Z" transform="translate(-64.661 -176.372)" fill="#f2cd00"/>
    <path id="Path_96" data-name="Path 96" d="M1715.9,1496.224a12.241,12.241,0,1,1-12.144-12.28A12.322,12.322,0,0,1,1715.9,1496.224Z" transform="translate(-213.432 -115.082)" fill="#f2cd00"/>
    <path id="Path_97" data-name="Path 97" d="M1523.876,1483.945a12.235,12.235,0,1,1-12.216,12.207A12.319,12.319,0,0,1,1523.876,1483.945Z" transform="translate(-107.197 -115.083)" fill="#f2cd00"/>
  </g>
</svg>
