<svg xmlns="http://www.w3.org/2000/svg" width="54.347" height="55.612" viewBox="0 0 54.347 55.612"><g transform="translate(-1725.023 -894.205)"><path d="M1779.369,918.811c-.078-6.151-4.672-7.163-4.672-7.163a8.016,8.016,0,0,0-3.036-8.8s-1.947-1.791-6.541-1.324a9.272,9.272,0,0,0-5.45-4.671,6.342,6.342,0,0,0-6.151,1.012s-1.09-2.959-6.541-3.659a7.464,7.464,0,0,0-6.918,4.438,7.567,7.567,0,0,0-7.875,2.336c-3.581,3.893-2.336,6.773-2.336,6.773s-4.827,2.024-4.827,7.085,3.037,8.02,7.085,8.8l7.954.078s1,5.761,8.709,5.216c0,0-.735,8.591,7.162,9.655,0,0,5.373-1.168,5.451,9.343,0,0,.623,2.1,2.024,1.869a2,2,0,0,0,1.869-1.869c-.078-.545.7-12.535-8.1-12.769,0,0-4.516.7-4.983-4.516,0,0-.078-4.2,3.893-4.36s12.924,0,12.924,0,2.024,0,2.18,1.791-1.869,1.868-1.869,1.868h-8.175s-1.791.467-1.713,1.869a1.728,1.728,0,0,0,1.713,1.713h8.564s3.737-.467,4.438-3.27,0-3.815,0-3.815A7.612,7.612,0,0,0,1779.369,918.811Zm-7.034,4.654a9.36,9.36,0,0,1-1.73-.519c-1.211-.45-14.327-.208-15.261-.034a7.512,7.512,0,0,0-4.55,2.439s-7.085,1.262-7.708-3.34,3.854-4.757,3.854-4.757h12.575a2.44,2.44,0,0,1,2.258,1.557,1.8,1.8,0,0,0,3.114.467c.467-.856.39-2.336-1.635-4.282,0,0,2.8-3.193.934-4.905s-3.323,1.1-3.5,2.1.077,1.557-3.816,1.557H1746.9a7.669,7.669,0,0,0-7.4,6.54h-6.852s-5.061-2.1-4.048-6.073a4.672,4.672,0,0,1,4.827-3.659s1.479.156.623-1.947-1.09-5.06,2.413-6.54,3.738,1.09,5.061.934,1.4-1.947,1.4-1.947a4.634,4.634,0,0,1,4.594-3.192,4.433,4.433,0,0,1,4.2,3.5s.545,1.713,1.4,1.48,2.491-3.738,6.306-2.336,2.491,5.295,3.192,5.372a1.009,1.009,0,0,0,1.332.173c.8-.484,3.738-2.457,6.195.242a4.76,4.76,0,0,1,.415,6.125c-.484.692-.623,1.591.243,1.834s4.845.381,5.017,4.188C1775.831,918.448,1776.35,922.531,1772.336,923.465Z" fill="#e1251a"/><path d="M1739.589,916.405s1.817-.727,1.817-4.1,3.114.415,5.346,0,3.374-1.35,4-3.322,2.249-.934,2.837.207,4.481.831,5.52.1,2.959,1.142,1.972,2.232-3.062,2.7-8.3,1.246c0,0-3.114,4.671-8.357,3.01,0,0-2.076,4.88-4.308,3.53S1739.589,916.405,1739.589,916.405Z" transform="translate(-3.951 -3.875)" fill="#e1251a"/></g></svg>