<svg xmlns="http://www.w3.org/2000/svg" width="59.583" height="53.071" viewBox="0 0 59.583 53.071"><path d="M1591,910.592v-2.91c.036-.187.089-.372.107-.56a18.721,18.721,0,0,1,2.557-7.894,16.078,16.078,0,0,1,16.549-7.73,15.894,15.894,0,0,1,9.884,6.055c.228.278.448.564.695.877.26-.329.473-.6.69-.872,4.472-5.572,11.085-7.677,17.624-5.444,5.877,2.007,9.334,6.291,10.879,12.2.287,1.1.4,2.243.6,3.366v2.91a2.71,2.71,0,0,0-.092.389,21.094,21.094,0,0,1-3.907,10.188,46.746,46.746,0,0,1-7.672,8.474c-5.255,4.649-10.57,9.231-15.881,13.815a3.4,3.4,0,0,1-4.573-.074q-6.052-5.182-12.079-10.391a84.065,84.065,0,0,1-9.151-8.925,25.265,25.265,0,0,1-5.586-10.008C1591.348,912.924,1591.209,911.749,1591,910.592Z" transform="translate(-1591 -891.236)" fill="#e1251a"/></svg>