<svg xmlns="http://www.w3.org/2000/svg" width="61.186" height="50.866" viewBox="0 0 61.186 50.866"><g transform="translate(-1446 -888.142)"><path d="M1507.186,907.962c-.19,1.034-.332,2.08-.578,3.1a17.7,17.7,0,0,1-4.394,8.089c-.94,1-1.944,1.94-2.918,2.909a1.114,1.114,0,0,0-.222.272,4.587,4.587,0,0,1-4.207,2.621c-.234,2.863-1.777,4.44-4.683,4.7-.232,2.86-1.789,4.443-4.7,4.671a13.786,13.786,0,0,1-.248,1.393,4.465,4.465,0,0,1-7.318,2.118c-.838-.758-1.567-1.637-2.4-2.516-.588.614-1.063,1.122-1.551,1.617a4.513,4.513,0,0,1-7.837-2.75c-.012-.118-.023-.236-.038-.391a4.652,4.652,0,0,1-4.7-4.69q-4.286-.358-4.683-4.684a11.278,11.278,0,0,1-1.21-.195,4.419,4.419,0,0,1-3.316-3.4,2.249,2.249,0,0,0-.555-.986,18.369,18.369,0,0,1-5.528-11.422,3.941,3.941,0,0,0-.1-.455v-2.868c.242-1.226.409-2.472.739-3.674a18.377,18.377,0,0,1,15.1-13.079,18.137,18.137,0,0,1,14.462,4.18,2.29,2.29,0,0,0,.189.146c.031.021.074.025,0,0a43.724,43.724,0,0,1,3.934-2.477,18.172,18.172,0,0,1,16.932.089c.089.045.178.089.264.139a1.193,1.193,0,0,1,.545,1.67,1.244,1.244,0,0,1-1.664.448,27.361,27.361,0,0,0-4.176-1.544,15.477,15.477,0,0,0-14.568,4c-2.9,2.724-5.66,5.6-8.467,8.431a2.742,2.742,0,1,0,3.874,3.879c1.083-1.057,2.159-2.122,3.207-3.215A2.021,2.021,0,0,1,1478,903.4c1.372.04,2.747.012,4.122.012a5.916,5.916,0,0,0,4.35-1.786c.731-.733,1.465-1.464,2.2-2.2a1.243,1.243,0,0,1,1.244-.4,1.173,1.173,0,0,1,.562,1.949c-.669.737-1.371,1.448-2.1,2.118s-1.521,1.269-2.348,1.953c.105.111.272.292.446.466q5.237,5.241,10.47,10.484c.833.839,1.6,1.745,2.416,2.641a16.144,16.144,0,0,0,3.5-19.74,1.971,1.971,0,0,1-.269-.951,1.072,1.072,0,0,1,.921-1.033,1.131,1.131,0,0,1,1.3.613,17.1,17.1,0,0,1,1.893,4.875c.195.89.324,1.793.482,2.691Zm-34.632,19.344a1.143,1.143,0,0,0,.155.037,4.519,4.519,0,0,1,4.29,5.814.617.617,0,0,0,.124.519c.788.817,1.57,1.645,2.412,2.4a2.079,2.079,0,0,0,3.432-1.1,2.117,2.117,0,0,0-.687-2.105q-3.192-3.188-6.379-6.382a1.2,1.2,0,0,1-.125-1.839,1.23,1.23,0,0,1,1.8.144q3.087,3.036,6.168,6.08c.141.14.279.285.426.419a2.1,2.1,0,0,0,2.485.336,1.972,1.972,0,0,0,1.029-2.216,3.142,3.142,0,0,0-.8-1.351c-3.007-3.05-6.044-6.069-9.071-9.1a4.5,4.5,0,0,1-.447-.48,1.2,1.2,0,0,1,.069-1.489,1.155,1.155,0,0,1,1.516-.205,3.588,3.588,0,0,1,.535.474q4.523,4.519,9.043,9.042a4.723,4.723,0,0,0,.478.45,2.106,2.106,0,0,0,3.409-1.583,2.245,2.245,0,0,0-.776-1.741q-4.616-4.6-9.208-9.215a2.343,2.343,0,0,1-.565-.817,1.124,1.124,0,0,1,.549-1.327,1.179,1.179,0,0,1,1.514.283q2.86,2.844,5.706,5.7c1.282,1.282,2.551,2.577,3.85,3.84a2.108,2.108,0,1,0,2.974-2.987q-6.451-6.48-12.93-12.93a.8.8,0,0,0-.511-.21c-1.493,0-2.987,0-4.479.047a1.355,1.355,0,0,0-.821.337c-.982.932-1.916,1.914-2.888,2.858a4.968,4.968,0,0,1-4.825,1.394,4.854,4.854,0,0,1-3.758-3.552,4.912,4.912,0,0,1,1.295-5.066c2.266-2.3,4.559-4.568,6.839-6.852.151-.151.293-.312.439-.468a15.9,15.9,0,0,0-21.9.932c-6.518,6.7-5.515,16.762-.375,21.879,1.046-.951,2.079-1.918,3.142-2.849a4.477,4.477,0,0,1,7.288,2.248c.108.419.142.856.215,1.311a4.525,4.525,0,0,1,3.3,1.322,12.772,12.772,0,0,0,6.056,8Zm-4.775-2.266a3.633,3.633,0,0,0-1.077.507,27.872,27.872,0,0,0-2.407,2.4,2.092,2.092,0,0,0,2.957,2.927,30.01,30.01,0,0,0,2.4-2.408,1.9,1.9,0,0,0,.233-2.234A2.23,2.23,0,0,0,1467.779,925.04Zm7.053,7.077a2.271,2.271,0,0,0-1.308-2.187,1.969,1.969,0,0,0-2.268.385c-.713.664-1.394,1.364-2.074,2.063a2.11,2.11,0,1,0,2.96,3.006,28.373,28.373,0,0,0,2.012-2.038A5.871,5.871,0,0,0,1474.832,932.117Zm-13.376-5.433a3.732,3.732,0,0,0,1.143-.521,27.28,27.28,0,0,0,2.33-2.309,2.1,2.1,0,0,0-2.945-2.972,32.252,32.252,0,0,0-2.321,2.32,1.933,1.933,0,0,0-.314,2.227A2.2,2.2,0,0,0,1461.456,926.684Zm-3.068-10.987a4.4,4.4,0,0,0-1.156.586,28.723,28.723,0,0,0-2.2,2.183,2.1,2.1,0,0,0,2.885,3.034,29.97,29.97,0,0,0,2.36-2.362,1.94,1.94,0,0,0,.265-2.236A2.179,2.179,0,0,0,1458.388,915.7Z" fill="#e1251b"/><path d="M1534.056,897.516a1.187,1.187,0,0,1,1.183-1.174,1.219,1.219,0,0,1,1.185,1.187,1.192,1.192,0,0,1-1.229,1.191A1.159,1.159,0,0,1,1534.056,897.516Z" transform="translate(-34.178 -3.183)" fill="#e1251b"/><path d="M1490.386,942.387a1.171,1.171,0,0,1,1.165,1.186,1.19,1.19,0,1,1-2.38-.051A1.171,1.171,0,0,1,1490.386,942.387Z" transform="translate(-16.756 -21.055)" fill="#e1251b"/></g></svg>