<svg xmlns="http://www.w3.org/2000/svg" width="572" height="1188.694" viewBox="0 0 572 1188.694"><g transform="translate(-72.883 202.419)"><path d="M641.405-63.489c5.945-.6,10.817,2.174,15.553,5.136a245.793,245.793,0,0,1,38.515,29.419c9.46,8.926,16.712,19.691,23.126,31.024,2.739,4.84,2.95,9.239-.373,13.731-2.863,3.846-7.2,5.845-10.979,8.472-13.571,9.435-27.056,19-40.77,28.221-2.737,1.841-4.034,4.535-5.894,6.924-1.384,2.156.062,4.288.1,6.428.23,12.041.408,24.088.983,36.115.414,8.67.735,17.333.715,26.008-.013,5.542-2.855,8.923-8.3,9.273-10.195.655-20.406,1.094-30.616,1.487-22.375.863-44.754,1.631-67.13,2.47-2.191.083-4.37.52-6.56.58-7.8.216-11.5-3.22-11.858-11.035-.213-4.653-.387-9.3-.7-13.952-1-14.969-1.768-29.956-2.4-44.946-.166-3.92-1.514-3.445-3.809-1.684-2.177-.3-3.216-2-4.342-3.568Q512,46.151,497.2,25.776c-2.167-2.989-4.858-5.822-4.725-9.946a9.5,9.5,0,0,1,1.264-5.569C497.3,4.736,500.976-.713,504.648-6.165a5.544,5.544,0,0,1,2-1.779c4.985-5.44,8.713-11.837,13.347-17.546,9.281-11.434,18.223-23.18,30.79-31.415,8.913-5.842,18.794-9.022,29.123-11.1,1.632-.329,3.053.3,4.54.7.943.781.83,1.829.707,2.867-2.609,21.994-5.168,44-7.752,65.848,2.282-4.72,4.97-9.392,7.717-14.027.693-1.169,1.328-2.932,3.034-2.5,1.549.389,1.66,2.179,1.927,3.549.918,4.71,2.058,9.372,3.039,14.069.217,1.035-.122,2.679,1.411,2.833,1.113.111,1.521-1.265,2.062-2.1,9.575-14.809,19.021-29.7,28.544-44.542,2.31-3.6,4.6-7.217,6.913-10.815a5.9,5.9,0,0,0,.232-6.833c-2.21-3.931-1.985-4.09,2.594-4.184C637.053-63.2,639.265-62.726,641.405-63.489Z" transform="translate(-92.696 -29.675)" fill="#5ac5e5"/><path d="M271.059,43.845c-3.043,6.457-8.229,10.9-14.042,14.673a63.83,63.83,0,0,1-27.53,9.908c-12.608,1.5-22.17-6.189-25.165-20.069A31.658,31.658,0,0,1,207.2,26.491c2.548-4.946,5.16-9.863,7.542-14.888,2.5-5.266,2.139-10.3.309-16.067-2.763-8.714-7.711-13.162-16.7-14-4.8-.446-7.636-4.136-9.623-8.244-5.12-10.58-5.248-21.773-3.577-33.07,1.358-9.181,4.158-17.891,9.719-25.515,3.726-5.106,8.5-8.761,14.742-10.069,14.244-2.985,22.536-11.768,25.891-25.725a211.719,211.719,0,0,0,4.255-22.892c2.25-17.8,11.985-30.915,25.5-41.607,24.5-19.39,60.531-22.606,85.284-6.632,24.81,16.012,37.035,39.46,36.55,69.157-.122,7.52-2.876,14.4-6.55,20.9a3.183,3.183,0,0,1-2.583.472c-9.713-2.155-19.39-1.35-29.063.287-3.467-.143-6.982.541-10.389-.6-1.319-.834-1.7-2.254-2.086-3.6-1.612-5.6-3.091-11.23-4.628-16.848-.749-2.735.06-4.188,2.911-4.621,2.049-.311,4.1-.545,6.155-.82,10.294-1.384,16.086-8.335,15.651-18.682a38.055,38.055,0,0,0-.877-6.145c-1.084-5.21-2.756-6.61-8.046-7.176-5.87-.629-11.491-1.871-15.351-7.257-2.784,6.841-8.3,9.9-14.844,11.559-4.532,1.151-4.576,1.109-4.584,6.032-.022,14.109.015,28.218-.032,42.327-.006,2.013.466,4.191-1.223,5.889-3.327,1.329-6.792.574-10.2.685-3.627-.026-7.294.294-10.881-.093-11.915-1.285-20.343,4.305-27.351,13.149-6.818,8.6-10.809,18.232-11.062,29.281a256.7,256.7,0,0,0,7.756,69.6A85.836,85.836,0,0,0,269,32.663c1.029,1.791,2.3,3.461,2.837,5.5a4.41,4.41,0,0,1-1.053,3.444C270.027,42.54,270.443,43.168,271.059,43.845Z" transform="translate(-24.59)" fill="#f6c200"/><path d="M290.135,67.327a111.7,111.7,0,0,1-16.2-42.467c-2.113-13.283-3.259-26.679-4.309-40.088-.755-9.633-.38-19.129,2.516-28.38,3.59-11.464,11.139-20.008,20.67-26.937,2.694-1.959,6.05-2.438,9.25-2.562,5.815-.227,11.648-.01,17.473.021,2.116,5.563,2.211,11.339,1.622,17.136-1.035,10.186-2.583,20.321-4.593,30.342-3.5,17.447.008,33.722,7.256,49.484,7.1,15.437,16.859,29.086,28.148,41.739,2.523,2.828,5.83,5.178,7.03,9.076q13.871,18.928,27.729,37.867a24.327,24.327,0,0,1,2.621,4.287c1.561,3.472.5,7.613-2.241,9.423-2.264,1.5-6.114.522-8.61-2.389-2.234-2.605-4.279-5.371-7.128-7.627q2.668,5.443,5.334,10.887c1.71,3.5,1.061,6.709-1.709,8.5-3.038,1.962-6.252,1.191-8.679-2.213-2.676-3.754-5.256-7.576-8.165-11.212.006,3.051,1.541,5.552,2.523,8.225,1.746,4.748.8,7.943-2.861,9.545-3.881,1.7-7.111.271-9.357-4.31-1.932-3.939-3.716-7.951-5.566-11.931a4.725,4.725,0,0,0-.881-.587,2.857,2.857,0,0,0,0,2.169c.021,2.712.143,5.428.036,8.134-.111,2.824-1.242,5.052-4.349,5.568-3.287.546-5.553-1-6.809-3.891-1.827-4.2-1.931-8.805-2.58-13.248a30.242,30.242,0,0,0-4.42-11.71c-8.476-13.88-19.478-25.682-30.089-37.823A7.757,7.757,0,0,1,290.135,67.327Z" transform="translate(-43.392 -28.545)" fill="#794b2d"/><path d="M371.755,74.522c-13.611-14-25.627-29.161-34.462-46.693C327.435,8.268,324.367-12,329.42-33.591c2.257-9.646,3.983-19.547,3.6-29.6-.126-3.36-.481-6.712-.732-10.066l10.967-.318c4.287.665,6.508,4.36,9.622,6.707a65.542,65.542,0,0,1,6.2,5.225c1.749,1.7,3.068,1.511,4.134-.765,1.311-2.8,2.714-5.563,4.172-8.292.649-1.215.977-2.717,2.529-3.243l11.015-.028a5.487,5.487,0,0,1,2.33,3.44C385.6-62.764,389.7-55.935,394.227-49.3a81.465,81.465,0,0,1,9.824,18.378,28.185,28.185,0,0,1,.115,19.314c-1.471,2.137-2.67,4.439-4.024,6.648a17.611,17.611,0,0,0-2.976,10.666c.105,1.492.3,3.157-1.113,4.328-2.1-2.312-2.135-2.629-.772-6.321a59.79,59.79,0,0,0-6.546,31.9,154.1,154.1,0,0,0,2.969,22.039c0,2.762.655,5.483.577,8.254-1.023,2.22.432,4.139.816,6.172.342,1.811.041,2.491-2,2.456C384.652,74.424,378.2,74.512,371.755,74.522Z" transform="translate(-56.145 -28.378)" fill="#c8c9ca"/><path d="M708.258,83.238a6.527,6.527,0,0,1,2.8-5.693Q738.436,58.52,765.9,39.622c5.331,12.3,11.2,24.42,14.238,37.576,2.633,11.395,2.773,23.091,3.7,34.681.682,8.507,1.184,17.042,1.362,25.573.186,8.924-.084,17.863-2.068,26.637a26.174,26.174,0,0,1-1.168,3.679c-1.067,2.746-2.767,4.541-6.063,4.415-3.335-.128-5.423-1.793-6.2-4.842-1.08-4.245-1.834-8.573-2.733-12.864-.122-.584.122-1.329-.718-1.632,0,6.833.025,13.657-.008,20.481-.027,5.641-1.983,8.088-6.764,8.607s-8.422-2.139-9.182-7.325c-.782-5.339-1.064-10.751-1.909-16.142-.343,4.509-.754,9.015-1,13.529-.148,2.685-.707,4.949-3.855,5.351-3.238.414-6.5.93-8.557-2.677-1.616-2.838-1.595-5.947-1.754-9.229-1.589,1.595-1.268,3.652-1.843,5.39-1.3,3.9-4,6.03-7.617,5.777a7.365,7.365,0,0,1-6.533-7.086c-.281-5.294-.651-10.712.129-15.911C721.014,129.24,716.416,106.03,708.258,83.238Z" transform="translate(-140.369 -53.473)" fill="#2e1b12"/><path d="M410.349,90.908c-1.854-2.418-1.895-5.046-.9-7.793.182-3.176,2.915-4.1,5.04-5.3a160.021,160.021,0,0,1,16.644-8.321,96.158,96.158,0,0,0,28.4-17.863c3.776-3.659,8.022-6.8,11.611-10.676.908-.979,1.874-2.251,3.591-1.563a11.916,11.916,0,0,0,2.692,6.718q16.258,22.475,32.51,44.953a31.913,31.913,0,0,0,2.6,2.827c-17.255,11.816-34.481,23.687-53.127,33.279a53.443,53.443,0,0,1-12.915,5.085c-3.477.76-7.2,2.182-9.649-1.988-1.958-3.328-1-6.132,3.353-9.952a28.57,28.57,0,0,0,5.615-5.791q-6.949,3.888-13.9,7.775c-5.245,2.929-8.338,2.427-10.914-1.763s-1.582-8.095,2.888-11.364c2.71-1.98,5.837-3.416,7.921-6.312-2.756,1.228-5.542,2.392-8.257,3.7-2.386,1.151-4.4,1.156-6.161-1.13-1.917-2.494-3.412-5.087-1.343-8.093a47.735,47.735,0,0,1,4.5-4.873C416.863,92.517,413.123,94.1,410.349,90.908Z" transform="translate(-74.212 -53.378)" fill="#2e1b12"/><path d="M471.957,13.86,457.59,26.478c-5.657-2.149-10.285-5.977-14.67-9.88A127.107,127.107,0,0,1,420.7-8.613c-.757-1.156-1.88-2.194-1.637-3.8-.7-2.286.884-4.188,1.061-6.363.489-6-1.078-11.49-3.58-16.815a88.576,88.576,0,0,0-7.908-13.721A85.686,85.686,0,0,1,396.222-74.5a62.72,62.72,0,0,1,31.155.192c7.98,2.255,13.714,6.88,17.9,14.322,6.272,11.158,13.215,21.941,19.5,33.115,4.629,8.234,12.33,13.092,20.614,17.1C482.242-3.68,477.843,1.6,474.25,7.4A12.717,12.717,0,0,0,471.957,13.86Z" transform="translate(-71.434 -27.848)" fill="#794b2d"/><path d="M587.8-174.071c-4.925-1.557-9.875-3.027-13.991-6.389a17.651,17.651,0,0,1-6.319-9.936c-.754-3.262.664-4.751,3.846-3.979,2.488.6,4.961,1.461,7.578,1.063,1.683-.256,3.415-.555,1.313-2.753-2.142-2.238-.663-3.676,1.454-4.2a50.373,50.373,0,0,1,9.911-1.607c18.392-.784,36.733.358,55.072,1.655,8.564.605,14.7,5.183,19.973,11.334,11.149,13.007,13.876,35.432,6.178,50.745-6.265,12.464-17.384,18.255-30.2,21.548a64.612,64.612,0,0,1-7.266,1.042c-1.3-2.062.392-3.419,1.271-4.858,4.54-7.432,8.589-15.057,10.692-23.605a34.035,34.035,0,0,0,.791-11.18c-.506-5.806-3.711-9.827-8.885-12.288-4.886-2.324-10.14-3.044-15.486-3.161-8.922-.2-17.872.517-26.757-.816C593.8-171.934,590.457-171.8,587.8-174.071Z" transform="translate(-109.227 -0.064)" fill="#130f0e"/><path d="M592.592-166.114c12.192,2.915,24.606,2.259,36.98,2.355,5.461.042,10.935.855,15.686,3.525,8.878,4.988,10.038,11.523,8.356,22.089-1.544,9.711-6.25,18.24-11.448,26.479-.8,1.268-2.144,2.327-2.029,4.072a79.434,79.434,0,0,0-.09,13.856c.711,2.346-.81,3.988-1.973,5.612-6.561,9.164-12.432,18.8-19.063,27.911-.153.21-.277.441-.446.636-.9,1.039-1.548,2.831-3.211,2.271-1.361-.459-1.248-2.17-1.207-3.429.277-8.4.619-16.8,1.129-25.184a164.838,164.838,0,0,0-.023-20.493c.371-1.474-.809-1.712-1.723-2.1-19.664-8.336-30.079-33.12-21.541-55.786C592.214-164.894,592.392-165.508,592.592-166.114Z" transform="translate(-114.019 -8.021)" fill="#2e1b12"/><path d="M617.619-89.484c.365,5.574,1.581,11.075,1.275,16.713-.54,9.917-.988,19.84-1.431,29.762-.037.821-.373,1.754.589,2.812,6.349-9.329,12.653-18.52,18.872-27.769,1.934-2.876,4.181-5.573,5.489-8.843,3.739-3.686,4.5-4.018,6.735,1.091,3.342,7.635,9.186,8.1,15.947,7.5-3.061,1.5-6.408,0-9.527.864-.044.286-.208.65-.1.763,4.352,4.646,2.431,8.69-.585,13.275-11.672,17.744-23.026,35.7-34.53,53.552-.721,1.12-1.178,3.145-2.873,2.618-1.37-.427-1.221-2.361-1.507-3.722-1.3-6.187-2.613-12.372-4.173-19.751L600.354-.21l-.66-.2,8.444-71.621c1-2.287,3.165-3.491,5.087-4.586,3.692-2.1,4.823-5.03,4.314-9A25.061,25.061,0,0,1,617.619-89.484Z" transform="translate(-116.385 -24.95)" fill="#eeefef"/><path d="M504.305-168.284c.711-.915,1.134-1.552,1.649-2.1a7.909,7.909,0,0,1,10.84-1.088c2.883,2.167,3.651,7.3,1.216,10.521-3.391,4.483-8.052,7.6-12.567,10.844-1.094.785-1.927.283-2.79-.358a82.9,82.9,0,0,1-10.175-8.348c-3.835-3.927-4.244-9.541-.973-12.372C495.417-174.574,500.337-173.559,504.305-168.284Z" transform="translate(-91.997 -6.466)" fill="#c60f1c"/><path d="M295.337,107.18A20.928,20.928,0,0,1,299,112.2l-3.939.038c-1.635.027-3.28.135-1.353-2.161A17.275,17.275,0,0,0,295.337,107.18Z" transform="translate(-48.594 -68.398)" fill="#c7c5c0"/><path d="M525.8,526.562a3.658,3.658,0,0,1,1.944-2.107c.3,1.337-.462,2.1-1.174,2.886Z" transform="translate(-100.06 -160.584)" fill="#f9e1cc"/><path d="M362.4,180.634c-.98-.955-.365-2.157-.834-3.477a1.948,1.948,0,0,1,1.716,1.895C362.494,179.307,362.657,180.089,362.4,180.634Z" transform="translate(-63.776 -83.857)" fill="#b79781"/><path d="M753.843,844.09a4.2,4.2,0,0,1-1.422-2.557c1.447-.248,1.66.973,2.215,1.759Z" transform="translate(-150.127 -230.627)" fill="#e4cfba"/><path d="M374.509-92.944c-2.152,4.413-4.417,8.776-6.412,13.259-1.061,2.384-2,2.417-3.875.8-5.387-4.646-10.906-9.138-16.374-13.69,0-16.721.048-33.443-.06-50.162-.017-2.668.538-3.828,3.487-4.213,7.957-1.04,14.12-4.864,17.109-13.039,3.24,6.459,8.969,7.808,15.1,8.239,6.364.448,8.6,2.424,9.551,8.867.263,1.79.557,3.586.644,5.388.571,11.771-5.834,19.1-17.615,20.258-2.555.252-5.1.576-7.871.891Z" transform="translate(-60.733 -9.373)" fill="#794b2d"/><path d="M420.974,5.727c10.253,15.028,22.052,28.512,37.877,37.989.291.175.436.594.65.9-9.77,9.9-22.26,15.289-34.575,21.031-5.807,2.708-12.019,4.9-16.344,10.075-.661-.129-1.272-.389-1.337-1.14-.621-7.2-2.256-14.293-2.368-21.551a107.941,107.941,0,0,0,8.383-25.51c-.919-7.39,1.549-13.8,5.666-19.75C419.49,6.954,419.689,5.808,420.974,5.727Z" transform="translate(-73.345 -45.984)" fill="#fff"/><path d="M413.218,31.571a44.675,44.675,0,0,1-8.383,25.51c-.731-11.561,1.268-22.526,7.259-33.022C413.37,26.642,412.2,29.3,413.218,31.571Z" transform="translate(-73.305 -50.034)" fill="#f6c200"/><g transform="translate(150.416 579.872)"><path d="M697.615,1322.22a4.63,4.63,0,0,0-.029.682H693.7q-.012-.327-.035-.653A2.558,2.558,0,0,1,697.615,1322.22Z" transform="translate(-287.561 -916.498)" fill="#eadac9"/><path d="M635.661,963.879c24.791,6.308,35.267,24.519,39.257,47.78,4.565,26.617,3.023,53.277-1.973,79.579-4.021,21.172-3.773,41.374,6.425,60.816,1.437,2.742,2.432,5.712,3.7,8.546,2.24,5.008,2.262,5-2.5,7.387a5.522,5.522,0,0,1-3.067,2.244c-16.538,6.766-32.973,13.78-49.5,20.581-1.424.586-2.844,1.313-4.48,1-4.014,2.252-6.068.293-7.915-3.244-1.95-3.736-4.452-7.186-6.713-10.761-3.211-3.129-5.115-7.111-6.615-11.18-1.528-4.144-3.944-5.895-8.415-5.572a49.87,49.87,0,0,1-14.272-.687c-6.5-1.419-12.474,1.232-18.667,2.193a28.919,28.919,0,0,0-4.3.876c-6.877,1.293-13.667,3-20.552,4.251-1.65.3-3.3.787-4.971.115-3.749-6.663-5.283-14.159-7.986-21.216-1.667-1.159-1.837-3.05-2.268-4.781q-1.64-6.589-2.675-13.305a27.975,27.975,0,0,0-.6-3.2c-.326-7.974-.764-15.963,1.806-23.706.715-2.156,1.073-4.568,3.335-5.868,6.292-8.772,11.14-18.371,15.751-28.072,6.466-13.6,12.042-27.53,13.912-42.646a34.132,34.132,0,0,0-1.166-14.986,42.72,42.72,0,0,1-.493-24.146c3.124-12.309,12.312-19.075,26.744-20.3,1.655-.14,3.4.175,4.935-.761,1.078-1.12,2.523-1.169,3.927-1.367,11.635-1.64,23.315-2.831,35.072-2.173C626.222,961.539,631.234,961.266,635.661,963.879Z" transform="translate(-248.606 -836.918)" fill="#6b539d"/><path d="M369.569,1121.274c-3.137-1.8-3.469-1.581-3.666,2.461q-1.378,28.327-2.756,56.654c-.063,1.292-.192,2.583-.35,3.867-.687,5.62-3.993,8.723-9.6,8.491-25.36-1.051-50.715-2.22-76.072-3.337-6.857-.3-13.715-.6-20.574-.851-6.67-.243-10-3.5-9.821-10.262.431-16.569,1.042-33.135,1.567-49.7.058-1.813.025-3.628.033-5.443.526-3.953.735-7.891-.608-11.742-.43-3.29-2.208-5.54-4.9-7.515-15.045-11.019-29.952-22.225-45-33.237-1.264-.925-2.523-1.837-3.021-3.428-3.425-4.311-2.97-8.589-.626-13.374,11.165-22.8,28.987-39.508,49.023-54.252,1.253-.921,2.558-1.772,3.784-2.726,7.23-5.62,14.933-9.834,24.569-8.421a1.194,1.194,0,0,0,.679.332c4.8.358,4.982.464,2.606,4.441-1.553,2.6-.8,4.565.545,6.79,9.047,14.933,17.967,29.943,27,44.888,2.46,4.071,4.7,8.292,7.82,12.225,1.307-1.158,1.257-2.639,1.527-3.929.957-4.556,1.786-9.139,2.779-13.688.29-1.326.266-3.257,1.895-3.486,1.348-.189,1.914,1.534,2.552,2.606a150.18,150.18,0,0,1,7.678,15.222,6.941,6.941,0,0,1,.364,1.37c-.119-1.451-.935-2.4-1.062-3.572-2.271-20.595-4.6-41.172-6.854-61.758-.241-2.2-1.144-4.748,1.836-6.031a61.732,61.732,0,0,1,38.281,17.646c14.766,14.344,25.833,31.568,36.925,48.724,3.415,5.281,7.444,10.264,9.17,16.5a8.305,8.305,0,0,1-1.532,6.967q-15.18,22.6-30.583,45.042C372.284,1120.032,371.445,1121.4,369.569,1121.274Z" transform="translate(-176.803 -841.952)" fill="#f6c200"/><path d="M190.4,1090.87q24.81,18.346,49.63,36.676c2.307,1.7,3.933,3.715,4.149,6.663.068,1.169.264,2.378-.958,3.156-7.1,21.711-10.736,43.791-7.657,66.7.806,5.993,1.119,12.122-.224,18.132-.688,3.08-2.812,5.175-5.928,5.237-3.144.062-5.727-1.46-6.563-4.894-.335-1.377-.637-2.761-.953-4.142-.621-1.294-1.194-2.6-.966-3.365a9.362,9.362,0,0,1-.252,4.874c-.931,6.884-2.8,8.842-8.021,8.507-2.752-.177-4.738-1.123-4.9-4.276-.14-2.7-.371-5.4-.562-8.1a14.061,14.061,0,0,1-.713-4.536c-.041-1.356.444-2.654.377-4-.069-.524-.83.186-.363-.04.184-.089.312.016.252.286-.491,2.209.312,4.611-1,6.7-.28,3.744-.428,7.5-.872,11.229-.547,4.584-3.889,7.358-8.188,7.086-4.47-.283-6.663-2.746-6.708-7.783-.062-6.991-.016-13.984-.449-21.07-.593,3.533-1.081,7.088-1.811,10.592-.6,2.883-.986,6-3.818,7.774-3.1,1.936-6.713.7-8.32-2.865-2.333-5.179-2.814-10.807-2.975-16.322a390.9,390.9,0,0,1,4.477-74.7C179.239,1115.235,185.237,1103.129,190.4,1090.87Z" transform="translate(-172.402 -865.591)" fill="#4e2b10"/><path d="M568.537,848.52c-5.5-14.154-7.252-29.06-8.873-44-.238-2.195.293-2.819,2.563-2.812,26.061.08,52.122.051,78.183.064a15.076,15.076,0,0,1,1.961.266c-2.369,9.46.451,18.063,3.8,26.543a81.977,81.977,0,0,0,4.893,10.539c11.082,19.424,8.35,37.663-4.448,55.123-.459.626-.951,1.23-1.427,1.844-4.362,4.043-10.952,2.982-14.1-2.382a107.075,107.075,0,0,1-7.606-17.02c-1.038-2.794-2.2-5.543-3.1-8.386-1.45-4.58-4.554-7.368-9.076-8.825-7.732-2.491-15.758-2.936-23.756-3.616-4.512-.384-9.075-.492-13.461-1.712C571.268,853.358,568.716,852.041,568.537,848.52Z" transform="translate(-257.947 -801.708)" fill="#eb3b16"/><path d="M303.42,928.376c-19.566-1.774-37.142-14.8-38.536-37.05-.762-12.161,1.21-23.379,7.9-33.627a34.072,34.072,0,0,1,9.418-9.669,19.352,19.352,0,0,1,11.241-3.712c6.076.06,12.154.212,18.22-.643a28.9,28.9,0,0,0,7.107-1.825,7.074,7.074,0,0,0,4.755-7.227,164.9,164.9,0,0,0-1.547-18.158c7.314,3.236,14.929,13.681,17.657,24.238,6.331-7.339,13.141-13.865,15.025-23.64.211-1.095.141-2.6,1.5-2.807,1.209-.182,1.621,1.222,1.907,2.133,3.367,10.758,5.408,21.453-2.5,31.3-1.434,1.784-.636,2.119,1.092,2.228a44.432,44.432,0,0,0,16.8-2.4c.783-.256,1.709-1.168,2.5-.358.915.943.019,1.99-.39,2.848-3.709,7.756-10.233,12.433-17.666,16.177-3.206,1.616-6.975,1.863-9.856,4.2-5.591,2.349-11.532,2.773-17.472,3.017-7.5.308-15.036-.524-22.5.828-1.147.208-2.305.352-3.435.651-9.432,2.486-13.79,8.807-13.124,18.784.638,9.562,4.537,17.977,8.791,26.33C301.651,922.63,304.5,924.81,303.42,928.376Z" transform="translate(-192.8 -804.476)" fill="#5ac5e5"/><path d="M568.453,861.794c2.193,4.23,6.106,5.084,10.383,5.521,9.243.943,18.547,1.217,27.714,3.017,7.685,1.509,13.258,4.757,15.6,12.989a116.085,116.085,0,0,0,8.069,20.15c3.806,7.587,6.579,8.7,14.887,5.89q-.095,16.293-.188,32.583c-6.179-.321-12.27-1.409-18.488-1.594-11.7-.348-23.168,1.875-34.768,2.523-.016-5.568-.223-11.145.03-16.7.126-2.769-.919-3.673-3.384-4.479-13.61-4.449-23.629-12.9-27.666-27.011C557.139,882.431,560.307,871.442,568.453,861.794Z" transform="translate(-257.862 -814.982)" fill="#b88657"/><path d="M419.831,1144.775c1.412-.588,2.093-1.881,2.883-3.044,9.886-14.571,19.721-29.178,29.668-43.708a21.82,21.82,0,0,0,3.167-7.783c12.909,14.422,27.34,26.8,45.633,34.013-4.666,9.714-4.629,20.035-3.937,30.44-.8.186-.8.186.425,1.877.876,6.273,2.435,12.4,3.915,18.546-2.382.617-4.265-.59-6.158-1.71a145.551,145.551,0,0,0-14.462-7.866c2.7,2.442,5.476,4.81,8.083,7.349,2.428,2.365,3.37,5.115,1.623,8.4-1.847,3.475-4.941,2.949-7.8,2.3-6.1-1.387-11.612-4.305-16.949-7.439A462.558,462.558,0,0,1,419.831,1144.775Z" transform="translate(-227.065 -865.452)" fill="#4e2b10"/><path d="M310.66,944.2c-1.45-4.3-4.3-7.878-6.18-11.968-3.125-6.815-5.933-13.69-6.788-21.244-1.394-12.32,4.886-20.349,17.228-22.084A101.732,101.732,0,0,1,330,888.3a90.639,90.639,0,0,0,22.67-2.259,3.336,3.336,0,0,1,2.617.165c5.115,14.382,4.652,28.407-3.016,41.829a34.531,34.531,0,0,1-15.5,14.731c-2.3,1.066-3.376,2.322-3.133,4.93.227,2.436.019,4.912,0,7.371a13.383,13.383,0,0,1,.409,3.066c-.056,11.247.644,22.465,1.4,33.679.087,1.289.3,3.007-.97,3.521-1.712.693-2.353-1.186-3.056-2.293-6.376-10.051-12.855-20.036-19.148-30.139-.741-1.19-1.692-2.344-1.217-3.923C311.018,954.051,311.77,949.1,310.66,944.2Z" transform="translate(-200.04 -820.299)" fill="#4e2b10"/><path d="M653.64,1250.479q22.081-9.287,44.164-18.567c4.276-1.792,8.585-3.505,12.88-5.255,2.89,10.131,11.56,14.689,19.366,20.08,2.235,1.543,4.529,3.017,5.951,5.456,1.353,2.32,1.628,4.666-.078,6.883-1.758,2.284-3.88,3.672-7.035,2.7a37.332,37.332,0,0,1-8.147-3.537,17.48,17.48,0,0,0-6.066-2.53c3.33,4.159,6.681,8.3,9.982,12.484,3.356,4.25,3.51,7.842.534,10.723-3.482,3.37-8.381,3.4-12.167-.249-3.069-2.953-5.845-6.21-8.751-9.333-.277-.153-.568-.484-.873-.148-.263.29-.107.642.08.946,2.464,4.536,4.916,9.078,7.4,13.605,2.368,4.325,1.917,7.672-1.363,9.838a8.13,8.13,0,0,1-11.075-1.829c-3.348-4.267-6.554-8.645-9.823-12.974-.232-.186-.471-.534-.778-.212-.255.266-.106.6.1.876,1.788,3.853,3.673,7.666,5.341,11.572,2.087,4.884.37,8.646-4.511,10.3l-3.955.03c-3.669-.814-6.05-3.136-7.833-6.353C668.861,1280.33,661.119,1265.474,653.64,1250.479Z" transform="translate(-278.72 -895.59)" fill="#b88657"/><path d="M535.018,1223.939l25.617-5.3c1.469.579,2.97-.034,4.5.185,5.506.788,7.788,3.472,7.227,9.054.714-5.23-1.366-8.008-6.747-8.972-.647-.116-1.3-.116-1.162-1.054,7.48-2.063,14.9-3.541,22.821-2.017,4.629.891,9.551.315,14.341.274,1.567-.013,2.66.2,3.411,1.812,2.514,5.378,5.172,10.69,7.774,16.026-2.263,2.352-4.813,1.881-7.522.9-4.281-1.552-7.506-4.878-12.117-6.414,2.984,4.544,6.066,9.029,8.927,13.649,3.383,5.463.531,11.367-5.817,12.014-3.532.361-6.171-1.522-8.243-4.237-2.412-3.161-4.8-6.34-7.48-9.348-.041,2.943,1.582,5.249,2.585,7.759,1.055,2.64,2.23,5.233,3.324,7.859,1.754,4.207.875,7.418-2.531,9.352a8.032,8.032,0,0,1-10.615-2.528c-2.809-4.344-5.479-8.777-8.209-13.171-.38-.238-.6-.7-1.089-.786.176.51.113,1.059.262,1.572,1.169,3.424,2.375,6.836,3.5,10.275,1.373,4.2.4,8.205-2.3,9.809-2.987,1.772-8.532.9-11.133-1.947a15.826,15.826,0,0,1-2.739-4.2Q542.712,1244.467,535.018,1223.939Z" transform="translate(-252.513 -893.059)" fill="#b88657"/><path d="M310.3,978.608l22.725,35.866.6-.273c-.467-10.154-1.064-20.3-1.317-30.462-.075-2.984-1.151-6.135.569-9.042,3.843,1.877,6.423,5.61,10.5,7.145-1.792,1.437-.976,3.347-.792,5.049,1.717,15.913,3.513,31.816,5.259,47.725.591,5.387,1.1,10.783,1.652,16.176.091.744.686,1.735-.83,1.693l-9.9-18.9c-1.514,7.621-2.855,14.37-4.2,21.119-.194.974-.026,2.25-1.409,2.423-1.141.143-1.387-.984-1.832-1.722q-17.828-29.6-35.67-59.184a3.508,3.508,0,0,1,.125-4.271c.933-1.384,1.709-2.874,2.565-4.339-1.261-1.471-3.134-.083-4.336-1.183,3.883.7,6.385-.857,7.816-4.523a29.994,29.994,0,0,1,2.5-4.356c.643-1.068.877-2.606,2.482-2.7,1.672-.1,1.931,1.455,2.6,2.5C309.691,977.784,310,978.191,310.3,978.608Z" transform="translate(-199.269 -839.925)" fill="#efefef"/><path d="M479.146,832.438c3.1-4.763,6.821-7.611,12.471-6.216,7.108,1.754,10.177,9.5,5.837,15.548-4.512,6.289-11,10.51-17.181,15-1.232.9-2.162.122-3.126-.583a110.763,110.763,0,0,1-13.533-11.026c-5.589-5.626-6.238-12.631-1.577-16.714C467.247,823.884,473.856,825.3,479.146,832.438Z" transform="translate(-235.705 -807.035)" fill="#c60f1c"/><path d="M215.163,1246.955c-.419-2.72.065-5.3,1.444-8.935v10.528C215.985,1248.145,216.45,1246.755,215.163,1246.955Z" transform="translate(-181.817 -898.1)" fill="#907057"/><path d="M263.3,1149.656q.478-1.577.957-3.155a31.391,31.391,0,0,1-.242,12.581C263.353,1155.972,264.713,1152.709,263.3,1149.656Z" transform="translate(-192.484 -877.881)" fill="#f0dcaf"/><path d="M234.366,1254.634v-6.44l.492-.145.727,5.076Z" transform="translate(-186.092 -900.316)" fill="#bca694"/><path d="M572.171,1259.525a6.743,6.743,0,0,1-1.432-3.754,5.484,5.484,0,0,1,2.259,2.967Z" transform="translate(-260.405 -902.022)" fill="#e0c8af"/><path d="M697.313,1293.65a3.2,3.2,0,0,1-1.265-2.677c1.223.191,1.589,1.093,1.938,2.012Z" transform="translate(-288.088 -909.799)" fill="#dbbfa4"/><path d="M571.722,1218.58c.566.668,1.367.557,2.118.693,6.058,1.1,8.275,6.595,4.787,11.856-.886-.509-.2-1.04,0-1.521,1.927-4.725-.812-9.126-5.912-9.578-1.61-.143-3.356.58-4.818-.664C569.163,1219.056,570.336,1218.3,571.722,1218.58Z" transform="translate(-259.777 -893.792)" fill="#a27047"/><path d="M518.6,1174.557l-4.017-2.7c1.745-.659,2.554.547,3.588.822C518.32,1173.306,518.462,1173.932,518.6,1174.557Z" transform="translate(-247.999 -883.439)" fill="#dcd3d2"/><path d="M364.16,1074.063l.829-1.693a4.239,4.239,0,0,1,.519,3.544C364.4,1075.726,364.408,1074.8,364.16,1074.063Z" transform="translate(-214.766 -861.504)" fill="#f2e6b5"/><path d="M548.81,1236.033c7.514.543,14.94,3.834,22.582.431C563.722,1240.707,556.282,1237.886,548.81,1236.033Z" transform="translate(-255.56 -897.661)" fill="#a47146"/></g><g transform="translate(72.883 145.357)"><path d="M636.736,501.648V513.32a.854.854,0,0,1-1.2-.316,19.041,19.041,0,0,1-.005-11.044A.86.86,0,0,1,636.736,501.648Z" transform="translate(-197.005 -300.875)" fill="#8471b1"/><path d="M636.2,516.774a1.7,1.7,0,0,0,.655-.108v3.891q-.345.034-.69.055A2.471,2.471,0,0,1,636.2,516.774Z" transform="translate(-197.128 -304.221)" fill="#b1a5d0"/><path d="M636.858,500.564a3.656,3.656,0,0,0-.687-.089,2.5,2.5,0,0,1,0-3.856,5.894,5.894,0,0,1,.682.054Z" transform="translate(-197.127 -299.792)" fill="#b5a9d3"/><path d="M568.445,447.865q0,1.928-.005,3.856.016,5.933.032,11.868-.016,1.92-.034,3.839c-.882,7-2.532,13.725-6.688,19.616a15.6,15.6,0,0,1-10.822,6.818,41.055,41.055,0,0,0-8.65,2.121c-2.131.819-4.148,1.964-5.134,3.945-5.26,10.564-10.008,21.109-2.564,32.847a121.827,121.827,0,0,1,8.473,16.569c5.311,12.168,3.906,24.042-2.707,35.308-4.893,8.335-12.493,12.444-22.081,11.715-17.911-1.363-33.587-8.042-46.27-21.036-2.328-2.386-4.58-4.924-5.475-8.3.84-.7,1.214-1.374.444-2.486a6.2,6.2,0,0,1-1.272-4.56c1.958-4.966,5.2-9.231,7.51-14.017a128.357,128.357,0,0,0,11.109-37.477c2.861-19.59,5.446-39.244,5.067-59.1-.4-20.792-9.2-37.39-26.066-49.636-3.956-2.872-8.565-3.518-13.275-3.655-6.341-.183-12.691.247-19.033-.235-4.169-1.136-8.589.337-12.715-1.222-1.69-1.686-1.225-3.864-1.23-5.879-.043-17.09-.015-34.18-.028-51.269,0-5.239-.032-5.224-5.111-6.381-7.22-1.646-13.342-4.909-17.094-11.657-.485-.872-1.07-2.2-2.2-.721-4.317,5.673-10.711,6.295-17.018,7.143-6.537.879-8.11,2.209-9.481,8.7a39.753,39.753,0,0,0-.217,15.064c1.278,7.316,6.56,11.116,13.187,13.395,3.964,1.363,8.161,1.352,12.235,2.071,2.246.4,3.767,1.308,3.194,3.822-1.869,8.2-4.165,16.3-6.607,24.347a2.69,2.69,0,0,1-1.218,1.472c-4.208,1.227-8.5.533-12.756.559-11.209-2.337-22.437-3.238-33.731-.529a3.131,3.131,0,0,1-3.254-.615c-10.313-16.718-9.926-34.53-4.6-52.472,7.849-26.448,23.311-47.078,48.868-58.706,31.094-14.146,72.84-6.363,97.737,17.489a113.137,113.137,0,0,1,15.009,17.776c7.016,10.217,8.578,22.04,10.57,33.774,1.451,8.545,2.77,17.118,5.526,25.378,4.177,12.518,12.522,21.15,25.371,23.915,15.473,3.331,23.455,13.622,28.57,27.3A80.744,80.744,0,0,1,568.445,447.865Z" transform="translate(-129.397 -251.037)" fill="#6b539d"/><path d="M216.906,435.434c5.679,11.586,6,23.447,2.809,35.865-2.476,9.627-.566,19.276,2.152,28.7a7.663,7.663,0,0,1,2.055,4.082c3.955,14.21,9.738,27.695,16.188,40.918.722,1.48,1.791,2.886,1.384,4.71,5.722,9.537,8.89,19.76,8.283,30.986a151.62,151.62,0,0,1-11.551,50.716c-1.342,1-2.742.4-4.071.054C227.8,629.8,221.339,628.62,215,626.9a15.372,15.372,0,0,0-3.624-.792c-7.387-2.27-14.809-3.345-22.533-1.589-2.868.652-5.941.225-8.915.143a4.723,4.723,0,0,0-5.064,3.3c-1.559,3.835-3.228,7.63-5.117,11.322-.591,1.155-1.031,2.4-2.354,2.953-2.163,3.936-4.492,7.791-6.432,11.833-1.415,2.947-3.081,4.022-6.012,2.128a9.638,9.638,0,0,1-4.1-.845c-14.577-7.227-29.465-13.8-44.1-20.9-1.49-.724-3.149-1.268-4.03-2.87-3.79-1.109-4.208-3.013-2.671-6.739,4.036-9.779,8.317-19.542,10.508-29.947,2.763-13.125,1.56-26.242-.644-39.367a330.762,330.762,0,0,1-4.126-64.236c-1.916-3.276-.321-6.652-.082-9.914.914-12.467,3.137-24.542,8.989-35.928,8.588-16.7,21.993-24.945,40.552-25.21a64.34,64.34,0,0,0,10.073-.682c8.589.772,17.172,1.6,25.692,2.94,4.475.586,9.013.892,13.317,2.4C209.836,426.815,214.454,429.847,216.906,435.434Z" transform="translate(-78.7 -282.767)" fill="#d60f1b"/><path d="M436.888,428.754c7.119.01,14.242-.13,21.356.072,7.037.2,12.249,4.2,17.216,8.733,13.7,12.493,20.674,28.091,20.379,46.47-.446,27.8-2.564,55.465-10.712,82.3-3.066,10.1-8.225,19.207-13.564,28.221-.82,2.549-1.931,4.884-4.5,6.151-6.705,9.373-15.913,16.591-22.5,26.058-5.393,7.75-10.75,15.526-16,23.375-2.4,3.585-1.811,7.974-2.691,11.972-.887,4.029-.92,8.227-2.333,12.156-1.257,3.494-3.51,5.752-7.473,5.551-3.235-.164-5.134-1.785-5.834-5.122-.995-4.748.306-9.459-.57-14.385-2.386,5.071-4.786,10.137-7.153,15.216-1.307,2.805-3.087,5.161-6.227,5.96-5.9,1.5-10.764-3.842-8.881-9.881,1.228-3.937,2.872-7.744,4.331-11.609a14.047,14.047,0,0,0,.336-1.56c-.485.084-.756.518-1.172.715-3.229,4.671-6.43,9.361-9.7,14.006-2.728,3.877-6.432,4.842-10,2.7-3.382-2.03-4.275-6-2.252-10.13,2.1-4.285,4.222-8.557,6.335-12.835.22-.33.327-.669-.076-.923a.552.552,0,0,0-.687.159c-2.23,2.852-4.427,5.729-6.7,8.55-3.62,4.5-8.358,6.1-11.336,3.88-3.747-2.791-4.6-8.144-1.4-12.915,4.89-7.3,10.144-14.352,15.324-21.453,6.467-8.866,13.015-17.674,19.528-26.507,2.029-4.792,6.118-7.959,9.418-11.713,18.187-20.686,33.143-43.187,40.089-70.258a80.318,80.318,0,0,0,1.257-34.3c-2.044-11.614-4-23.259-5.415-34.966a72.447,72.447,0,0,1,.46-21.311A3.3,3.3,0,0,1,436.888,428.754Z" transform="translate(-134.793 -284.79)" fill="#b88657"/><path d="M160.471,384.534c-5.19,1.256-10.535.818-15.8,1.306-14.639,1.358-24.5,9.216-31.8,21.308-6.95,11.5-9.153,24.285-10.452,37.34-.358,3.6-.608,7.2-.908,10.807-13.487-7.06-20.17-18.775-21.452-33.392-1.377-15.7,3.87-29.1,16.8-38.771,2.142-1.6,1.061-2.626.462-4.1-6.782-16.694-5.217-32.39,5.961-46.738,1.52-1.951,1.3-3.144.34-5.07-9.031-18.061-3.24-40.19,13.193-50.822a34.57,34.57,0,0,1,22.535-5.577,5.345,5.345,0,0,0,5.022-1.9c9.877-10.842,22.2-14.718,36.229-10.82,14.337,3.982,22.927,14.035,25.985,28.539a7.4,7.4,0,0,0,4.759,6.033c15.327,7.049,24.161,19.67,28.206,35.527,5.557,21.793,2.335,42.1-12.321,59.875a42.847,42.847,0,0,1-14.6,11.362c-6.183-8.734-15.412-11.01-25.283-11.928-1.131-.956-1.1-2.29-1.109-3.578-.046-4.532.045-9.066-.035-13.6-.054-3.044,1.338-4.681,4.135-5.757,15.431-5.928,23.735-17.345,25.336-33.668,1.476-15.053-8.439-31.26-22.448-37.246-2.829-1.209-2.982-.178-2.752,2.239a46.519,46.519,0,0,1-3.461,23.178c-3.9,9.078-9.788,16.468-18.455,21.327-2.886,1.618-3.212,3.314-2.35,6.3a47.367,47.367,0,0,1-2.507,34.078A7.7,7.7,0,0,1,160.471,384.534Z" transform="translate(-74.421 -246.771)" fill="#4e2b10"/><path d="M435.864,428.534c-2.809,16.289-.319,32.407,3.314,48.075,7.124,30.728-.633,58.076-16.375,84.086-9.489,15.677-21.142,29.658-33.889,42.763-3.387-1.2-6.906-.817-10.264-.281-5.159.823-10.257.086-15.839.563,3.12-9.823,4.1-19.534,5.6-29.141.88-5.652,2.085-11.332,1.343-17.134-.974-9.564-1.07-19.248-4.473-28.456-1.237-3.347-3.2-6.354-3.874-9.84.183,1.618,1.476,3.318-1.073,4.352,1.261-8.888-4.357-15.23-8.257-22.2-.14-.25-.686-.272-1.044-.4-3.479-6.361-2.979-12.921-1.031-19.578,2.586-8.835,7.3-16.619,12.334-24.161,5.57-8.348,10.718-16.841,13.653-26.512a5.2,5.2,0,0,1,1.878-2.875l13.342-.074c3.232,3.177,4.212,7.636,6.462,11.375a23.21,23.21,0,0,1,1.565,3.128c.915,2.227,1.959,2.694,3.975.916,4.858-4.282,9.919-8.33,14.8-12.584,1.356-1.182,2.58-2.592,4.557-2.749C426.983,428.405,431.492,427.233,435.864,428.534Z" transform="translate(-133.768 -284.57)" fill="#c8c9ca"/><path d="M357.581,427.16c-3.124,12.967-10.665,23.668-17.645,34.687-4.846,7.651-9.124,15.578-10.44,24.8a23.624,23.624,0,0,0,.786,9.916c.339,1.216,1.064,2.39.464,3.725-14.044,21.291-31.422,38.994-54.472,50.59-8.221-15.908-15.406-32.224-19.626-49.71,8.559-4.182,15.857-9.881,20.409-18.386,7.947-14.848,17.217-28.9,25.691-43.428,3.168-5.432,8.426-8.246,13.979-10.6,1.424-.6,2.881-1.127,4.322-1.688a78,78,0,0,1,33.574-.711C355.62,426.561,356.595,426.889,357.581,427.16Z" transform="translate(-113.481 -283.937)" fill="#b88657"/><path d="M96.9,691.7l52.233,24.618c-4.73,8.485-8.251,17.542-12.462,26.273-3.094,6.416-6.108,12.87-9.2,19.288a13.149,13.149,0,0,1-3.381,4.7c-2.735,2.218-7.435,2.553-9.85.756-1.957-1.457-2.672-6.634-1.27-10.271,1.341-3.475,2.846-6.886,4.279-10.325l-.876-.563c-2.2,3.285-4.379,6.585-6.614,9.847a18.961,18.961,0,0,1-3.069,3.985,6.813,6.813,0,0,1-8.636.453c-2.721-1.761-3.518-5.316-1.976-8.684,2.317-5.058,4.768-10.055,7.162-15.078.2-.291.34-.634.084-.917-.3-.326-.586-.026-.855.139-2.273,2.823-4.527,5.664-6.825,8.468-2.946,3.594-7.366,4.45-10.682,2.112-3.157-2.227-4.039-6.562-1.692-10.44,2.207-3.648,4.87-7.018,7.281-10.544.845-1.236,2.05-2.287,2.379-4.455-3.39,2-6.333,3.977-9.486,5.534-4.828,2.383-6.826,1.975-9.188-1.307-2.179-3.027-1.874-6.557,1.575-9.731a122.454,122.454,0,0,1,13.231-10.793C93.805,701.5,94.562,696.2,96.9,691.7Z" transform="translate(-72.883 -342.89)" fill="#ecac72"/><path d="M234.237,683.521,257.56,688.9c-4.572,14.132-9.709,28.061-15.085,41.9a11.642,11.642,0,0,1-3.458,5.078c-2.812,2.245-6.094,2.84-9.008.887-2.971-1.993-3.327-5.451-2.463-8.758,1.042-3.992,2.4-7.9,3.616-11.849.4-.755.047-1.7.347-2.082a2.72,2.72,0,0,1-1.151,1.316c-2.439,4.422-4.8,8.889-7.342,13.252-2.089,3.586-5.608,4.826-8.877,3.381-3.472-1.535-4.957-5.082-3.513-9.143,2.028-5.7,4.272-11.325,6.148-17.143-3.207,2.949-5.078,6.857-7.628,10.255-3.378,4.5-7.4,5.16-11.265,1.844-2.81-2.407-3.461-5.7-1.42-9.5,2.812-5.235,5.894-10.326,8.472-15.93-2.561,1.944-5.1,3.915-7.688,5.824-3.223,2.379-6.67,3.383-10.514,1.493,2.418-5.562,4.9-11.1,7.215-16.7a2.975,2.975,0,0,1,3.512-2.129c6.611.559,13.134-.379,19.7-1.047,4.734-.481,9.326,1.677,13.931,2.89.195,1.623-1.348.816-2,1.253-.421.235.52.519.146.16a7.943,7.943,0,0,1,3.909-.553A2.007,2.007,0,0,0,234.237,683.521Z" transform="translate(-98.035 -340.256)" fill="#ecac72"/><path d="M298.822,248.79c1.892-2.851,4.142-5.032,7.617-4.753,2.738.219,5.436,1.031,6.665,3.9a8.042,8.042,0,0,1-1.092,8.723c-3.373,4.151-7.768,7.134-11.988,10.32-1.278.965-2.146.3-3.058-.419-3.14-2.476-6.388-4.835-9.352-7.507-4.614-4.159-5.332-9.617-1.959-12.874C289.423,242.544,294.246,243.4,298.822,248.79Z" transform="translate(-119.426 -243.977)" fill="#c60f1c"/><path d="M363.66,549.171c1.044-1.493.173-3.292.894-5.343a47.771,47.771,0,0,1,6.521,15.27c1.938,7.864,3.347,15.846,2.005,24.017C366.841,572.66,362.744,561.611,363.66,549.171Z" transform="translate(-137.094 -310.221)" fill="#6b539e"/><path d="M499.371,647.724l4.5-6.151,2.836,5.914c-.7.638-1.617.325-2.486.319Z" transform="translate(-167.104 -331.816)" fill="#c8c8c9"/><path d="M428.27,405.278c-6.762,5.789-13.564,11.533-20.26,17.4-1.631,1.427-2.283.906-3.055-.733-2.643-5.6-5.358-11.169-8.046-16.749,2.174-8.229,4.188-16.5,6.6-24.661.9-3.045.021-3.331-2.695-3.51-6.979-.457-13.892-1.363-19.712-5.91a16.255,16.255,0,0,1-6.678-12.57c-.231-5.419-.484-10.866,1.364-16.125,1.728-4.918,3.62-6.326,8.775-6.649a44.752,44.752,0,0,0,6.929-.76c5.214-1.163,9.8-3.377,12.356-9.254,4.022,10.62,12.157,14.725,22.264,15.914,2.492.293,2.117,2.12,2.117,3.777q0,25.06,0,50.12C428.235,398.8,428.257,402.041,428.27,405.278Z" transform="translate(-139.466 -262.044)" fill="#b88657"/><path d="M183.334,394.338q11.307-19.255,3.869-40.31c-.589-1.663-.537-2.569,1.194-3.338,16.279-7.227,27.483-28.935,23.37-48.189a5.784,5.784,0,0,1,.083-1.5c12.465,2.625,24.461,15.717,27.027,29.366,3.762,20.014-6.723,38.374-25.949,45.261-1.975.707-2.847,1.54-2.775,3.805.189,5.956.058,11.921.055,17.883Z" transform="translate(-97.284 -256.575)" fill="#ecac72"/><path d="M246.118,684.346c-1.743,1.16-3.678.49-5.609.682.429-1.331,2-.426,2.465-1.469A4.652,4.652,0,0,1,246.118,684.346Z" transform="translate(-109.915 -341.081)" fill="#a87345"/><path d="M250.654,703.185l8.613-1.242c-2.646,1.705-5.62,2-8.655,2.046a.493.493,0,0,1-.164-.546C250.52,703.271,250.588,703.185,250.654,703.185Z" transform="translate(-112.104 -345.153)" fill="#ab7648"/><path d="M234.753,696.608c-1.7-2.4-1.155-4.886-.3-7.381C234.686,691.668,233.909,694.148,234.753,696.608Z" transform="translate(-108.398 -342.344)" fill="#ac7648"/><path d="M249.3,703.527c-.014.267-.027.535-.041.8a3.886,3.886,0,0,1-4.678.013q-.394-.285-.261-.569c.088-.189.175-.283.264-.283Z" transform="translate(-110.75 -345.495)" fill="#c28755"/><path d="M243.065,702.882q0,.425,0,.852a7.944,7.944,0,0,1-5.648-3Z" transform="translate(-109.232 -344.886)" fill="#ad7749"/></g></g></svg>