<svg xmlns="http://www.w3.org/2000/svg" width="242.19" height="27" viewBox="0 0 242.19 27">
  <g id="Group_252" data-name="Group 252" transform="translate(-56.871 -65.183)">
    <g id="Group_251" data-name="Group 251" transform="translate(98.988 65.183)">
      <path id="Path_322" data-name="Path 322" d="M122.761,66.453a3.262,3.262,0,0,1,.917,2.4v20.1a2.941,2.941,0,0,1-.841,2.217,3.4,3.4,0,0,1-4.414,0,2.905,2.905,0,0,1-.86-2.217V78.094l-4.357,7.761a4.812,4.812,0,0,1-1.376,1.681,3.214,3.214,0,0,1-3.44,0,4.789,4.789,0,0,1-1.376-1.681L102.7,78.316V88.959a2.919,2.919,0,0,1-.86,2.2,3.4,3.4,0,0,1-4.433.018,2.905,2.905,0,0,1-.86-2.217v-20.1a3.226,3.226,0,0,1,.936-2.4,3.461,3.461,0,0,1,4.261-.351,4.5,4.5,0,0,1,1.413,1.645l7.033,12.787,6.994-12.787a3.578,3.578,0,0,1,3.21-2.217A3.194,3.194,0,0,1,122.761,66.453Z" transform="translate(-96.544 -65.174)"/>
      <path id="Path_323" data-name="Path 323" d="M128.7,90.967a3.085,3.085,0,0,1-.841-2.328V68.868a3.085,3.085,0,0,1,.841-2.328,3.325,3.325,0,0,1,2.408-.813h13.223a3.945,3.945,0,0,1,2.484.665,2.308,2.308,0,0,1,.841,1.922q0,2.661-3.325,2.661h-9.631v4.952h8.867q3.325,0,3.325,2.624a2.306,2.306,0,0,1-.841,1.922,3.945,3.945,0,0,1-2.484.665h-8.867v5.4h9.631q3.325,0,3.325,2.661a2.308,2.308,0,0,1-.841,1.922,3.945,3.945,0,0,1-2.484.665H131.113A3.325,3.325,0,0,1,128.7,90.967Z" transform="translate(-94.614 -65.169)"/>
      <path id="Path_324" data-name="Path 324" d="M153.113,90.949a3.089,3.089,0,0,1-.841-2.328V68.85a3.089,3.089,0,0,1,.841-2.328,3.329,3.329,0,0,1,2.409-.813h13.223a3.947,3.947,0,0,1,2.484.665,2.308,2.308,0,0,1,.841,1.922q0,2.661-3.325,2.661h-9.631v4.952h8.865q3.327,0,3.326,2.624a2.305,2.305,0,0,1-.841,1.922,3.946,3.946,0,0,1-2.485.665h-8.865v5.4h9.631q3.325,0,3.325,2.661a2.308,2.308,0,0,1-.841,1.922,3.947,3.947,0,0,1-2.484.665H155.522A3.329,3.329,0,0,1,153.113,90.949Z" transform="translate(-93.111 -65.169)"/>
      <path id="Path_325" data-name="Path 325" d="M186.369,91.042a3.145,3.145,0,0,1-.975-2.421V71.215h-5.389a3.85,3.85,0,0,1-2.5-.684,2.558,2.558,0,0,1-.822-2.088,2.5,2.5,0,0,1,.822-2.07,3.928,3.928,0,0,1,2.5-.665h17.886a3.934,3.934,0,0,1,2.5.665,2.505,2.505,0,0,1,.822,2.07,2.561,2.561,0,0,1-.822,2.088,3.856,3.856,0,0,1-2.5.684H192.5V88.621a3.145,3.145,0,0,1-.975,2.421,4.128,4.128,0,0,1-5.159,0Z" transform="translate(-91.607 -65.169)"/>
      <path id="Path_326" data-name="Path 326" d="M240.9,66.614a3.212,3.212,0,0,1,.936,2.421V88.806a3.273,3.273,0,0,1-.936,2.439,3.41,3.41,0,0,1-2.5.924,3.446,3.446,0,0,1-2.5-.905,3.255,3.255,0,0,1-.936-2.458V81.415H223.953v7.391a3.273,3.273,0,0,1-.936,2.439,3.412,3.412,0,0,1-2.5.924,3.449,3.449,0,0,1-2.5-.905,3.263,3.263,0,0,1-.935-2.458V69.035a3.215,3.215,0,0,1,.935-2.421,3.915,3.915,0,0,1,5.008,0,3.212,3.212,0,0,1,.936,2.421V76.02H234.96V69.035a3.208,3.208,0,0,1,.936-2.421,3.913,3.913,0,0,1,5.007,0Z" transform="translate(-89.118 -65.169)"/>
      <path id="Path_327" data-name="Path 327" d="M247.1,91.084a3.259,3.259,0,0,1-.936-2.458V68.855a3.212,3.212,0,0,1,.936-2.421,3.5,3.5,0,0,1,2.542-.905,3.628,3.628,0,0,1,2.6.905,3.181,3.181,0,0,1,.954,2.421V88.626a3.227,3.227,0,0,1-.954,2.458,3.628,3.628,0,0,1-2.6.905A3.5,3.5,0,0,1,247.1,91.084Z" transform="translate(-87.326 -65.174)"/>
      <path id="Path_328" data-name="Path 328" d="M281.363,65.626a3.289,3.289,0,0,1,1.682-.443,3.978,3.978,0,0,1,2.483.85,2.6,2.6,0,0,1,1.108,2.143,2.807,2.807,0,0,1-.343,1.293L276.2,89.61a3.456,3.456,0,0,1-1.49,1.534,4.542,4.542,0,0,1-4.28,0,3.464,3.464,0,0,1-1.492-1.534L258.852,69.47a2.774,2.774,0,0,1-.306-1.293,2.591,2.591,0,0,1,1.147-2.125,4.143,4.143,0,0,1,2.562-.868,3.4,3.4,0,0,1,1.7.443,2.921,2.921,0,0,1,1.2,1.33L272.688,82.7l7.49-15.743A2.945,2.945,0,0,1,281.363,65.626Z" transform="translate(-86.563 -65.183)"/>
    </g>
    <ellipse id="Ellipse_120" data-name="Ellipse 120" cx="12.014" cy="11.617" rx="12.014" ry="11.617" transform="translate(68.846 66.725)" fill="#fc3535"/>
    <path id="Path_329" data-name="Path 329" d="M57.141,89.127a127.412,127.412,0,0,0,13.677.416,11.976,11.976,0,0,0,10.5-9.9,11.779,11.779,0,0,0-10.5-13.226c-7.225-.831-10.752,3.494-12.731,7.071S57.141,89.127,57.141,89.127Z" transform="translate(0 0.03)" fill="#6fcfeb" style="mix-blend-mode: multiply;isolation: isolate"/>
  </g>
</svg>
