<svg id="Character" xmlns="http://www.w3.org/2000/svg" width="146.321" height="255.69" viewBox="0 0 146.321 255.69">
  <g id="legs" transform="translate(14.593 186.199)">
    <g id="back_leg" data-name="back leg">
      <path id="Path_3" data-name="Path 3" d="M326.393,731.425c-25.77,71.488,27.634,56.754-13.168,69.492h35.617C305.33,741.205,375.059,736.168,326.393,731.425Z" transform="translate(-313.225 -731.425)" fill="#840710"/>
    </g>
    <g id="front_leg" data-name="front leg" transform="translate(47.502 3.485)">
      <path id="Path_5" data-name="Path 5" d="M426.755,748.07c-20.576,52.361,28.756,45.863-10.647,56.909h35.617c-27.59-35.707-10.486-49.835-3.291-66.007Z" transform="translate(-416.108 -738.972)" fill="#840710"/>
    </g>
  </g>
  <g id="back_arm" data-name="back arm" transform="translate(0 97.377)">
    <g id="thumb" transform="translate(21.781 63.788)">
      <path id="Path_7" data-name="Path 7" d="M331.813,707.42c19.778,12.851-2.368-19.964-3.02-30.214Z" transform="translate(-328.793 -677.206)" fill="#840710"/>
    </g>
    <g id="back_arm-2" data-name="back arm">
      <path id="Path_9" data-name="Path 9" d="M307.154,539.051c-31.179,37.635-28.564,149.8-19.477,96.281-4.744,27.94,5.491,22.423,5.953.514-.662,31.385,11.37,20.747,6.394-.955,14.632,63.826-4.123-85.274,13.009-91.871" transform="translate(-281.618 -539.051)" fill="#aa1721"/>
    </g>
  </g>
  <g id="body" transform="translate(3.977)">
    <path id="Path_11" data-name="Path 11" d="M348.592,328.277s48.78.871,53.135,76.654.29,97.849-13.185,110.477c-11.993,11.238-28.626,19.311-51.274,13.213s-47.037-18.292-47.037-55.748c0-22.586,10.327-33.788,18.486-43.281,5.372-6.25,9.775-13.364,9.775-16.822,0-4.187-.316-7.746-3.291-11.034a37.4,37.4,0,0,1-8.711-16.453c-2.751-10.861-1.6-26.229,6.559-37.962C319.666,337.8,334.365,326.825,348.592,328.277Z" transform="translate(-290.231 -328.147)" fill="#ed1c24"/>
  </g>
  <g id="front_arm" data-name="front arm" transform="translate(101.368 86.123)">
    <g id="thumb-2" data-name="thumb" transform="translate(0 83.999)">
      <path id="Path_13" data-name="Path 13" d="M512.125,736.4c-27.284,18.673,5.112-30.549,3.976-39.788Z" transform="translate(-501.166 -696.607)" fill="#840710"/>
    </g>
    <g id="arm" transform="translate(2.248)">
      <path id="Path_15" data-name="Path 15" d="M513.779,514.677c41.673,51.258,40.286,194.707,25.648,126.788,7.838,36.365-6.506,25.9-7.839.677,2.226,42.1-10.526,28.087-8.42-1.258-2.2,30.681-16.954,28-10.547,5.1,8.779-45.444,9.978-91.527-6.584-126.081" transform="translate(-506.036 -514.677)" fill="#ed1c24"/>
    </g>
  </g>
  <g id="teeth" transform="translate(32.707 62.181)">
    <g id="front_tooth" data-name="front tooth" transform="translate(16.919 4.609)">
      <path id="Path_17" data-name="Path 17" d="M389.8,473.97c.731,5.446,10.545,5.523,7.044-.824" transform="translate(-389.477 -472.988)" fill="#f2f2f2"/>
      <path id="Path_18" data-name="Path 18" d="M394.339,478.131a5.537,5.537,0,0,1-1.45-.2,5.015,5.015,0,0,1-3.789-4.1l.647-.087a4.372,4.372,0,0,0,3.314,3.557,3.315,3.315,0,0,0,3.442-.685c.618-.784.507-1.993-.321-3.495l.572-.315c1.219,2.211.816,3.512.263,4.215A3.33,3.33,0,0,1,394.339,478.131Z" transform="translate(-389.1 -472.804)"/>
    </g>
    <g id="left_tooth" data-name="left tooth">
      <path id="Path_19" data-name="Path 19" d="M360.233,466.825c-2.34,5.359-9.252.8-6.385-3.619" transform="translate(-352.836 -463.028)" fill="#f2f2f2"/>
      <path id="Path_20" data-name="Path 20" d="M356.637,469.372a4.335,4.335,0,0,1-3.629-2.178,4.059,4.059,0,0,1,.184-4.373l.548.355a3.375,3.375,0,0,0-.168,3.689,3.652,3.652,0,0,0,3.228,1.849,3.28,3.28,0,0,0,2.752-2.227l.6.261a3.9,3.9,0,0,1-3.313,2.618C356.772,469.37,356.7,469.372,356.637,469.372Z" transform="translate(-352.456 -462.821)"/>
    </g>
  </g>
  <g id="mouth" transform="translate(28.524 55.673)">
    <path id="Path_21" data-name="Path 21" d="M365.139,461.033a30.7,30.7,0,0,1-5.732-.555c-8-1.524-13.974-5.753-15.991-11.314a.327.327,0,0,1,.614-.223c1.937,5.342,7.731,9.415,15.5,10.9,7.479,1.424,14.7-.1,17.969-3.79a.327.327,0,1,1,.489.433C375.389,459.416,370.644,461.033,365.139,461.033Z" transform="translate(-343.396 -448.726)"/>
  </g>
  <g id="eyes" transform="translate(29.561 24.149)">
    <g id="front_eye" data-name="front eye" transform="translate(22.845 0)">
      <g id="Group_2" data-name="Group 2">
        <ellipse id="Ellipse_1" data-name="Ellipse 1" cx="7.017" cy="10.066" rx="7.017" ry="10.066" transform="translate(0 4.013) rotate(-16.615)"/>
        <path id="Path_22" data-name="Path 22" d="M408.445,404a7.056,7.056,0,0,1-4.355-1.688,12.855,12.855,0,0,1-4.114-6.395c-1.639-5.491.185-10.9,4.065-12.058a6.448,6.448,0,0,1,5.895,1.463,12.855,12.855,0,0,1,4.114,6.4c1.639,5.491-.185,10.9-4.065,12.058A5.358,5.358,0,0,1,408.445,404Zm-2.869-19.71a4.712,4.712,0,0,0-1.349.2c-3.534,1.055-5.161,6.1-3.626,11.245A12.2,12.2,0,0,0,404.5,401.8a5.825,5.825,0,0,0,5.3,1.349c3.535-1.055,5.162-6.1,3.626-11.245a12.2,12.2,0,0,0-3.895-6.07A6.423,6.423,0,0,0,405.576,384.287Z" transform="translate(-397.41 -382.163)"/>
      </g>
      <g id="Group_3" data-name="Group 3" transform="translate(5.132 1.293)">
        <ellipse id="Ellipse_2" data-name="Ellipse 2" cx="2.42" cy="3.998" rx="2.42" ry="3.998" transform="translate(0 1.384) rotate(-16.615)" fill="#fff"/>
        <path id="Path_23" data-name="Path 23" d="M411.04,392.345a2.665,2.665,0,0,1-1.757-.781,5.87,5.87,0,0,1-1.581-2.654c-.694-2.324-.081-4.489,1.395-4.929s3.175,1.034,3.868,3.358h0c.693,2.323.08,4.489-1.4,4.929A1.845,1.845,0,0,1,411.04,392.345Zm-1.418-7.787a1.191,1.191,0,0,0-.338.048c-1.087.325-1.525,2.209-.956,4.116a5.212,5.212,0,0,0,1.394,2.358,1.777,1.777,0,0,0,1.662.562c1.087-.325,1.525-2.21.956-4.117h0C411.828,385.811,410.646,384.558,409.622,384.558Z" transform="translate(-406.873 -383.602)"/>
      </g>
    </g>
    <g id="back_eye" data-name="back eye" transform="translate(0 1.371)">
      <g id="Group_4" data-name="Group 4" transform="translate(0 0)">
        <ellipse id="Ellipse_3" data-name="Ellipse 3" cx="6.757" cy="4.71" rx="6.757" ry="4.71" transform="translate(0 12.949) rotate(-73.385)"/>
        <path id="Path_24" data-name="Path 24" d="M352.54,399.208a3.7,3.7,0,0,1-1.064-.155c-2.661-.794-3.918-4.485-2.8-8.228a8.737,8.737,0,0,1,2.8-4.346,4.436,4.436,0,0,1,4.054-1c2.661.794,3.918,4.486,2.8,8.228a8.734,8.734,0,0,1-2.8,4.346A4.841,4.841,0,0,1,352.54,399.208Zm1.926-13.231a4.2,4.2,0,0,0-2.587,1.013,8.082,8.082,0,0,0-2.579,4.022c-1.014,3.4.046,6.724,2.362,7.416a3.805,3.805,0,0,0,3.461-.887,8.077,8.077,0,0,0,2.579-4.022c1.013-3.4-.046-6.724-2.362-7.415A3.038,3.038,0,0,0,354.466,385.977Z" transform="translate(-347.056 -384.444)"/>
      </g>
      <g id="Group_5" data-name="Group 5" transform="translate(4.604 0.805)">
        <ellipse id="Ellipse_4" data-name="Ellipse 4" cx="2.684" cy="1.624" rx="2.684" ry="1.624" transform="translate(0 4.968) rotate(-67.765)" fill="#fff"/>
        <path id="Path_25" data-name="Path 25" d="M357.95,391.4a1.361,1.361,0,0,1-.518-.1c-1.013-.414-1.306-1.962-.667-3.524h0c.639-1.562,1.933-2.462,2.945-2.048a1.708,1.708,0,0,1,.965,1.414,4.345,4.345,0,0,1-1.565,3.826A1.97,1.97,0,0,1,357.95,391.4Zm-.58-3.378c-.483,1.182-.342,2.406.309,2.672a1.14,1.14,0,0,0,1.043-.253,3.7,3.7,0,0,0,1.308-3.2,1.141,1.141,0,0,0-.567-.91c-.655-.267-1.61.508-2.093,1.691Z" transform="translate(-356.052 -385.409)"/>
      </g>
    </g>
  </g>
  <g id="cheeks" transform="translate(21.889 50.179)">
    <g id="front_cheek" data-name="front cheek" transform="translate(39.157 3.18)">
      <path id="Path_26" data-name="Path 26" d="M429.234,452.44c-.512,11.885-14.965,11.38-15.4,0C414.346,440.554,428.8,441.059,429.234,452.44Z" transform="translate(-413.833 -443.714)" fill="#840710"/>
    </g>
    <g id="back_cheek" data-name="back cheek">
      <path id="Path_27" data-name="Path 27" d="M337.3,441.413c-.06,5.544-7.691,6.66-8.275,0C329.086,435.869,336.717,434.753,337.3,441.413Z" transform="translate(-329.026 -436.827)" fill="#840710"/>
    </g>
  </g>
  <g id="heart" transform="translate(68.746 106.166)">
    <path id="Path_28" data-name="Path 28" d="M441.262,575.379c-.639-.2-7-4.409-9.63-9.63-2.61-5.189-.134-7.9,2.081-7.646,2.974.337,6.339,5.227,6.339,5.227.029-.012,5-5.558,7.308-4.5,1.675.767,3,6.146-1.6,12A32.586,32.586,0,0,1,441.262,575.379Z" transform="translate(-430.511 -558.086)" fill="#840710"/>
  </g>
</svg>
