<?xml version="1.0" encoding="utf-8"?>
<!-- Generator: Adobe Illustrator 24.1.0, SVG Export Plug-In . SVG Version: 6.00 Build 0)  -->
<svg version="1.1" id="Layer_1" xmlns="http://www.w3.org/2000/svg" xmlns:xlink="http://www.w3.org/1999/xlink" x="0px" y="0px"
	 viewBox="0 0 210 174" style="enable-background:new 0 0 210 174;" xml:space="preserve">
<style type="text/css">
	.st0{fill:#FFFFFF;}
	.st1{fill:#6FCFEB;}
	.st2{fill:#E1251B;}
</style>
<g id="Prevent_-_Needles" transform="translate(1)">
	<g id="Group_242" transform="translate(-687 -2284)">
		<path id="Icon" class="st0" d="M791,2284c48,0,87,39,87,87s-39,87-87,87s-87-39-87-87S743,2284,791,2284z"/>
		<g id="Group_194" transform="translate(-978 1856.042)">
			<path id="Inject" class="st1" d="M1759,460h19.5c1.8,0,3.2,1.4,3.2,3.2l0,0c0,1.8-1.4,3.2-3.2,3.2H1759c-1.8,0-3.2-1.4-3.2-3.2
				l0,0C1755.8,461.4,1757.2,460,1759,460z"/>
			<path id="Body" class="st1" d="M1758.1,482.4h21.2l0,0V522c0,5.8-4.7,10.6-10.6,10.6c0,0,0,0,0,0l0,0c-5.8,0-10.6-4.7-10.6-10.6
				c0,0,0,0,0,0V482.4L1758.1,482.4z"/>
			<rect id="Inject_Body" x="1761.9" y="466.3" class="st1" width="13.8" height="9.6"/>
			<path id="Body_Top" class="st1" d="M1757.2,475.9h23.5c1.8,0,3.2,1.4,3.2,3.2l0,0c0,1.8-1.4,3.2-3.2,3.2h-23.5
				c-1.8,0-3.2-1.4-3.2-3.2l0,0C1754,477.4,1755.5,475.9,1757.2,475.9z"/>
			<path id="Tip" class="st1" d="M1760.4,532.6h17c0,0,0.1,0,0.1,0.1l0,0c0,2.2-1.8,3.9-3.9,3.9h-9.2
				C1762.1,536.6,1760.4,534.8,1760.4,532.6L1760.4,532.6L1760.4,532.6z"/>
			<path id="Tip-2" class="st1" d="M1763.5,536.4h10.7c0,0,0.1,0,0.1,0.1v2.8c0,3-2.4,5.4-5.4,5.4l0,0c-3,0-5.4-2.4-5.4-5.4V536.4
				L1763.5,536.4z"/>
			<path id="Injection" class="st1" d="M1766.6,544.6l0.5,23c0,0,0.3,2.4,1.8,2.2s1.4-2,1.4-2l0.8-23.2L1766.6,544.6z"/>
			<g id="Markers">
				<g id="Group_191">
					<path id="Path_223" class="st2" d="M1778.9,487.9h-7.4c-0.8,0-1.4-0.6-1.4-1.4l0,0c0-0.8,0.6-1.4,1.4-1.4h7.4V487.9z"/>
					<path id="Path_224" class="st2" d="M1778.9,492.4h-7.4c-0.8,0-1.4-0.6-1.4-1.4l0,0c0-0.8,0.6-1.4,1.4-1.4h7.4V492.4z"/>
					<path id="Path_225" class="st2" d="M1778.9,496.9h-7.4c-0.8,0-1.4-0.6-1.4-1.4l0,0c0-0.8,0.6-1.4,1.4-1.4h7.4V496.9z"/>
					<path id="Path_226" class="st2" d="M1778.9,501.4h-7.4c-0.8,0-1.4-0.6-1.4-1.4l0,0c0-0.8,0.6-1.4,1.4-1.4h7.4V501.4z"/>
					<path id="Path_227" class="st2" d="M1778.9,505.9h-7.4c-0.8,0-1.4-0.6-1.4-1.4l0,0c0-0.8,0.6-1.4,1.4-1.4h7.4V505.9z"/>
					<path id="Path_228" class="st2" d="M1778.9,510.4h-7.4c-0.8,0-1.4-0.6-1.4-1.4l0,0c0-0.8,0.6-1.4,1.4-1.4h7.4V510.4z"/>
					<path id="Path_229" class="st2" d="M1778.9,514.9h-7.4c-0.8,0-1.4-0.6-1.4-1.4l0,0c0-0.8,0.6-1.4,1.4-1.4h7.4V514.9z"/>
					<path id="Path_230" class="st2" d="M1778.9,519.4h-7.4c-0.8,0-1.4-0.6-1.4-1.4l0,0c0-0.8,0.6-1.4,1.4-1.4h7.4V519.4z"/>
					<path id="Path_231" class="st2" d="M1778.9,523.9h-7.4c-0.8,0-1.4-0.6-1.4-1.4l0,0c0-0.8,0.6-1.4,1.4-1.4h7.4V523.9z"/>
				</g>
			</g>
			<g id="Group_193">
				<g id="Group_192">
					<path id="Path_232" class="st2" d="M1786.9,523.7c-0.3,0.4-0.7,0.6-1.1,0.5c-2.8,0.1-5.5,1-7.8,2.5c-2.9,2-4.9,5.2-5.3,8.7
						c-0.2,1.1-0.2,2.3-0.3,3.4c0,0.1,0,0.1,0,0.2c0,0.5-0.3,0.9-0.8,0.9c0,0,0,0,0,0c-0.5,0-0.8-0.4-0.8-0.9
						c-0.1-1.2-0.1-2.4-0.3-3.6c-0.8-5.7-5.2-10.2-10.9-11c-0.8-0.1-1.6-0.2-2.5-0.3c-0.7-0.1-1-0.3-1-0.8s0.4-0.8,1-0.9
						c3-0.1,5.9-1,8.3-2.8c2.7-2,4.4-4.9,4.9-8.2c0.2-1.3,0.3-2.6,0.4-3.9c0-0.5,0.3-0.9,0.8-0.9c0.4,0,0.8,0.4,0.8,0.8
						c0,0,0,0,0,0.1c0,0.1,0,0.3,0,0.4c0,1.8,0.3,3.6,0.8,5.3c1.6,4.8,5,7.6,9.8,8.7c1,0.2,1.9,0.3,2.9,0.4c0.5,0,1,0.3,1.2,0.7
						L1786.9,523.7z M1771.4,513.7c-1.4,4.7-5.1,8.3-9.8,9.7c4.7,1.4,8.4,5,9.8,9.7c1.4-4.7,5.1-8.3,9.8-9.7
						C1776.5,522,1772.8,518.4,1771.4,513.7z"/>
					<path id="Path_233" class="st2" d="M1768,553.2c0.2-0.2,0.5-0.4,0.8-0.4c1.8,0,3.4-0.9,4.4-2.4c0.5-0.8,0.7-1.7,0.8-2.6
						c0-0.2,0-0.4,0-0.6c0-0.4,0.3-0.7,0.6-0.7s0.5,0.3,0.6,0.7c0,0.6,0.1,1.3,0.2,1.9c0.5,2.1,2.3,3.6,4.5,3.8c0.2,0,0.4,0,0.6,0.1
						c0.3,0,0.6,0.2,0.6,0.5c0,0,0,0,0,0c0,0.4-0.2,0.6-0.6,0.6c-0.6,0-1.1,0.1-1.7,0.3c-1.9,0.5-3.3,2.1-3.5,4.1
						c-0.1,0.4-0.1,0.9-0.1,1.4c0,0.4-0.2,0.6-0.4,0.6c-0.3,0-0.6-0.2-0.7-0.5c0,0,0,0,0-0.1c-0.1-0.5-0.1-1.1-0.2-1.6
						c-0.4-2.3-2.3-4-4.6-4.1c-0.1,0-0.3,0-0.4,0c-0.3,0-0.6-0.1-0.8-0.4L1768,553.2z M1774.5,550.3c-0.6,1.4-1.8,2.5-3.2,3.1
						c1.4,0.6,2.6,1.7,3.2,3.2c0.6-1.4,1.8-2.5,3.2-3.2C1776.3,552.8,1775.1,551.7,1774.5,550.3z"/>
					<path id="Path_234" class="st2" d="M1766.3,543.5c0,0.4-0.3,0.7-0.8,0.7c-0.7,0.1-1.3,0.2-1.9,0.3c-2.3,0.6-3.9,2.5-4.2,4.8
						c-0.1,0.5-0.1,1-0.1,1.5c0,0.5-0.2,0.7-0.6,0.8c-0.4,0-0.7-0.3-0.7-0.7c0,0,0,0,0,0c0-0.7-0.1-1.4-0.2-2.1
						c-0.6-2.7-3-4.6-5.7-4.6c-0.1,0-0.2,0-0.3,0c-0.4,0-0.7-0.3-0.7-0.7c0-0.4,0.3-0.7,0.7-0.7c0.7-0.1,1.4-0.2,2.1-0.4
						c2.3-0.6,3.9-2.6,4.1-4.9c0.1-0.5,0.1-1,0.1-1.4c0-0.5,0.3-0.8,0.7-0.8c0.4,0,0.6,0.3,0.7,0.8c0,1.1,0.2,2.1,0.6,3.1
						c0.8,1.9,2.5,3.2,4.6,3.5c0.4,0.1,0.8,0.1,1.2,0.1C1766,542.8,1766.3,543.1,1766.3,543.5z M1758.5,547c0.5-0.7,1-1.4,1.6-2.1
						c0.7-0.6,1.4-1.1,2.1-1.6c-1.6-0.7-2.9-2-3.6-3.6c-0.7,1.7-2.1,3-3.8,3.7C1756.5,544.1,1757.8,545.4,1758.5,547L1758.5,547z"/>
				</g>
			</g>
		</g>
	</g>
</g>
</svg>
