<?xml version="1.0" encoding="utf-8"?>
<!-- Generator: Adobe Illustrator 24.1.0, SVG Export Plug-In . SVG Version: 6.00 Build 0)  -->
<svg version="1.1" id="Prevent_-_PREP" xmlns="http://www.w3.org/2000/svg" xmlns:xlink="http://www.w3.org/1999/xlink" x="0px"
	 y="0px" viewBox="0 0 174 173" style="enable-background:new 0 0 174 173;" xml:space="preserve">
<style type="text/css">
	.st0{fill:#FFFFFF;}
	.st1{fill:#6FCEEA;}
	.st2{fill:#E1251A;}
</style>
<g id="Group_238" transform="translate(-231 -2512)">
	<g id="Group_247">
		<path id="Icon" class="st0" d="M318,2512c48,0,87,39,87,87s-39,87-87,87s-87-39-87-87S270,2512,318,2512z"/>
		<g id="Group_246">
			<g id="Group_177" transform="translate(-1312.753 2079.247)">
				<path id="Path_212" class="st1" d="M1643.6,532.6l-22.3,22.3c-7.2,7.2-18.9,7.2-26.1,0l0,0c-7.2-7.2-7.2-18.9,0-26.1l22.3-22.3
					L1643.6,532.6z"/>
				<path id="Path_213" class="st2" d="M1617.4,506.4l22.3-22.3c7.2-7.2,18.9-7.2,26.1,0l0,0c7.2,7.2,7.2,18.9,0,26.1l-22.3,22.3
					L1617.4,506.4z"/>
			</g>
		</g>
	</g>
</g>
</svg>
