<?xml version="1.0" encoding="utf-8"?>
<!-- Generator: Adobe Illustrator 24.1.0, SVG Export Plug-In . SVG Version: 6.00 Build 0)  -->
<svg version="1.1" id="Prevent_-_Treatment" xmlns="http://www.w3.org/2000/svg" xmlns:xlink="http://www.w3.org/1999/xlink"
	 x="0px" y="0px" viewBox="0 0 174 171.8" style="enable-background:new 0 0 174 171.8;" xml:space="preserve">
<style type="text/css">
	.st0{fill:#FFFFFF;}
	.st1{fill:#E1251A;}
</style>
<g id="Group_243" transform="translate(-704 -2284)">
	<path id="Icon" class="st0" d="M791,2284c48,0,87,39,87,87s-39,87-87,87s-87-39-87-87S743,2284,791,2284z"/>
	<g id="Group_197" transform="translate(-979.091 1707)">
		<g id="Group_195">
			<path id="Path_235" class="st1" d="M1770.1,714c-5.5,0-10-4.5-10-10v-80c0-5.5,4.5-10,10-10s10,4.5,10,10v80
				C1780.1,709.5,1775.6,714,1770.1,714z"/>
		</g>
		<g id="Group_196">
			<path id="Path_236" class="st1" d="M1808.9,680.1h-76.8c-5.5,0-10-4.5-10-10s4.5-10,10-10h76.8c5.5,0,10,4.5,10,10
				S1814.4,680.1,1808.9,680.1z"/>
		</g>
	</g>
</g>
</svg>
