<?xml version="1.0" encoding="utf-8"?>
<!-- Generator: Adobe Illustrator 24.1.0, SVG Export Plug-In . SVG Version: 6.00 Build 0)  -->
<svg version="1.1" id="Prevent_-_Condom" xmlns="http://www.w3.org/2000/svg" xmlns:xlink="http://www.w3.org/1999/xlink" x="0px"
	 y="0px" viewBox="0 0 174 174" style="enable-background:new 0 0 174 174;" xml:space="preserve">
<style type="text/css">
	.st0{fill:#FFFFFF;}
	.st1{fill:#6FCEEA;}
	.st2{fill:none;stroke:#E1251B;stroke-width:14;stroke-linecap:round;stroke-miterlimit:10;}
</style>
<g id="Group_239" transform="translate(-704 -2284)">
	<path id="Icon" class="st0" d="M791,2284c48,0,87,39,87,87s-39,87-87,87s-87-39-87-87S743,2284,791,2284z"/>
	<g id="Group_178" transform="translate(-676.396 1863.889)">
		<path id="External_Condom_Bottom" class="st1" d="M1468.1,557.1h17.5c2.1-1.5,0-4,0-4h-35.1c0,0-2.1,2.5,0,4H1468.1z"/>
		<path id="External_Condom_-_Body" class="st1" d="M1470.7,461.2c0.5,0.1,1.9,0.4,1.9,0.4c9.1,2.3,10.6,12.7,10.6,12.7v78.8h-30.4
			v-78.8c0,0,1.5-10.3,10.6-12.7c0,0,1.4-0.3,1.9-0.4h0c-0.2-2.2,0.5-4,2.7-4.1h0.1C1470.2,457.3,1470.8,459,1470.7,461.2
			L1470.7,461.2z"/>
		<path id="Path_214" class="st2" d="M1442.4,516.7l21.1,13.3l37.1-45.3"/>
	</g>
</g>
</svg>
