<?xml version="1.0" encoding="utf-8"?>
<!-- Generator: Adobe Illustrator 24.1.0, SVG Export Plug-In . SVG Version: 6.00 Build 0)  -->
<svg version="1.1" id="Prevent_-_Status" xmlns="http://www.w3.org/2000/svg" xmlns:xlink="http://www.w3.org/1999/xlink" x="0px"
	 y="0px" viewBox="0 0 174 173.2" style="enable-background:new 0 0 174 173.2;" xml:space="preserve">
<style type="text/css">
	.st0{fill:#FFFFFF;}
	.st1{fill:#E1251B;}
	.st2{fill:none;stroke:#E1251B;stroke-width:4;stroke-miterlimit:10;}
	.st3{fill:#6FCEEA;}
	.st4{fill:none;stroke:#E1251B;stroke-width:3;stroke-miterlimit:10;}
</style>
<g id="Group_241" transform="translate(-704 -2284)">
	<path id="Icon" class="st0" d="M791,2284c48,0,87,39,87,87s-39,87-87,87s-87-39-87-87S743,2284,791,2284z"/>
	<g id="Group_190" transform="translate(-828.708 1699.667)">
		<g id="page">
			<g id="Group_180">
				<path id="Path_216" class="st1" d="M1662,720.3h-81.2v-100h66.1l15.2,13V720.3z M1583.6,717.4h75.4v-82.8l-13.3-11.4h-62.1
					V717.4z"/>
			</g>
			<g id="Group_181">
				<path id="Path_217" class="st2" d="M1662,720.3h-81.2v-100h66.1l15.2,13V720.3z M1583.6,717.4h75.4v-82.8l-13.3-11.4h-62.1
					V717.4z"/>
			</g>
		</g>
		<g id="fold">
			<g id="Group_182">
				<path id="Path_218" class="st3" d="M1660.4,635.5h-13.9l-1.5-1.5v-12.1h2.9v10.6h12.4L1660.4,635.5z"/>
			</g>
			<g id="Group_183">
				<path id="Path_219" class="st4" d="M1660.4,635.5h-13.9l-1.5-1.5v-12.1h2.9v10.6h12.4L1660.4,635.5z"/>
			</g>
		</g>
		<g id="Group_185">
			<g id="Group_184">
				<path id="Path_220" class="st1" d="M1646.5,658.2H1594c-0.8,0-1.5-1.4-1.5-3.1s0.7-3.1,1.5-3.1h52.5c0.8,0,1.5,1.4,1.5,3.1
					S1647.3,658.2,1646.5,658.2z"/>
			</g>
		</g>
		<g id="Group_187">
			<g id="Group_186">
				<path id="Path_221" class="st1" d="M1646.5,677H1594c-0.8,0-1.5-1.4-1.5-3.1s0.7-3.1,1.5-3.1h52.5c0.8,0,1.5,1.4,1.5,3.1
					S1647.3,677,1646.5,677z"/>
			</g>
		</g>
		<g id="Group_189">
			<g id="Group_188">
				<path id="Path_222" class="st1" d="M1646.5,695.7H1594c-0.8,0-1.5-1.4-1.5-3.1s0.7-3.1,1.5-3.1h52.5c0.8,0,1.5,1.4,1.5,3.1
					S1647.3,695.7,1646.5,695.7z"/>
			</g>
		</g>
	</g>
</g>
</svg>
