<?xml version="1.0" encoding="utf-8"?>
<!-- Generator: Adobe Illustrator 24.1.0, SVG Export Plug-In . SVG Version: 6.00 Build 0)  -->
<svg version="1.1" id="Risk_-_Kissing" xmlns="http://www.w3.org/2000/svg" xmlns:xlink="http://www.w3.org/1999/xlink" x="0px"
	 y="0px" viewBox="0 0 100 100" style="enable-background:new 0 0 100 100;" xml:space="preserve">
<style type="text/css">
	.st0{fill:#FFD800;}
	.st1{fill:#6FCEEA;}
	.st2{fill:#E1251B;}
</style>
<g id="Group_231" transform="translate(-694 -2291)">
	<circle id="Icon" class="st0" cx="744" cy="2341" r="50"/>
	<g id="Group_170" transform="translate(682.199 1580.333)">
		<path id="Path_196" class="st1" d="M34.1,777.9c3.6-1,6.7-3.1,9.9-4.9c2.5-1.6,5.3-2.5,8.2-2.8c1,0,2.1,0,3.1,0.2
			c4.8,0.9,9.6-0.7,13-4.2c2.4-2.4,5.6-3.9,9-4.4c1.9-0.3,3.9-0.3,5.8-0.6c2.1-0.3,4.2-0.8,6.3-1.2c0.3-0.1,0.5-0.2,0.8-0.3
			c-0.1,0.3-0.1,0.5-0.2,0.7c-0.7,2.1-1.4,4.3-2.3,6.4c-2.2,5.2-6,9.7-10.8,12.7c-8,5.5-17.8,7.8-27.4,6.2c-3.2-0.5-6.3-1.6-9-3.3
			c-2.2-1.4-4.2-2.9-6.4-4.3L34.1,777.9z"/>
		<path id="Path_197" class="st1" d="M90.7,757.3c-3.3,1.2-6.7,1.9-10.2,2c-3.5,0.1-6.9,1-10,2.6c-1.2,0.7-2.4,1.6-3.4,2.6
			c-3,3.1-7.3,4.6-11.6,3.7c-3.2-0.5-6.4,0-9.4,1.3c-2.4,1.1-4.7,2.3-6.9,3.8c-2.2,1.3-4.7,2.3-7.2,3c0.1-0.2,0.1-0.3,0.2-0.4
			c2.3-4.2,4.7-8.4,7-12.6c1.8-3.3,4.8-5.7,8.4-6.8c1.3-0.4,2.7-0.5,4-0.3c4.1,0.5,8.2-0.8,11.2-3.6c3.3-2.9,7.1-3.4,11.2-2.7
			c1,0.2,2,0.5,2.9,1c4.5,2,8.9,4.1,13.3,6.2C90.4,757.1,90.5,757.2,90.7,757.3z"/>
		<path id="Path_198" class="st2" d="M84.8,748c0,0,15.6-10.6,10.8-16.6c-4.8-6-10.8,0.8-10.8,0.8h0c0,0-6-6.8-10.8-0.8
			C69.2,737.5,84.8,748,84.8,748L84.8,748z"/>
		<path id="Path_199" class="st2" d="M60.4,746c0,0,9.4-6.3,6.5-9.9c-2.9-3.6-6.5,0.5-6.5,0.5h0c0,0-3.6-4.1-6.5-0.5
			S60.4,746,60.4,746L60.4,746z"/>
		<path id="Path_200" class="st2" d="M41.4,802.2c0,0,9.3-6.3,6.5-9.9s-6.5,0.5-6.5,0.5h0c0,0-3.6-4.1-6.5-0.5
			S41.4,802.2,41.4,802.2L41.4,802.2z"/>
		<path id="Path_201" class="st2" d="M89.3,790.7c0,0,10-6.8,6.9-10.6s-6.9,0.5-6.9,0.5h0c0,0-3.9-4.3-6.9-0.5
			S89.3,790.7,89.3,790.7L89.3,790.7z"/>
		<path id="Path_202" class="st2" d="M23.8,774.5c0,0,6.7-4.5,4.6-7.1s-4.6,0.3-4.6,0.3h0c0,0-2.6-2.9-4.6-0.3
			S23.8,774.5,23.8,774.5L23.8,774.5z"/>
	</g>
</g>
</svg>
