<?xml version="1.0" encoding="utf-8"?>
<!-- Generator: Adobe Illustrator 24.1.0, SVG Export Plug-In . SVG Version: 6.00 Build 0)  -->
<svg version="1.1" id="Layer_1" xmlns="http://www.w3.org/2000/svg" xmlns:xlink="http://www.w3.org/1999/xlink" x="0px" y="0px"
	 viewBox="0 0 100 100" style="enable-background:new 0 0 100 100;" xml:space="preserve">
<style type="text/css">
	.st0{fill:#FFD800;}
	.st1{fill:#E1251B;}
</style>
<g id="Risk_-_Pregnancy" transform="translate(1)">
	<g id="Group_245" transform="translate(-688 -2291)">
		<g id="Group_226">
			<circle id="Icon" class="st0" cx="737" cy="2341" r="50"/>
		</g>
		<path id="Path_179" class="st1" d="M730.1,2354.5c-0.5-0.1-1-0.1-1.5-0.2c-3-1.1-6.3-0.2-8.5,2.1c-5.1,5.3-4.5,3.8-0.2,8.3
			c0.5,0.5,1.1,0.9,1.5,1.5c0.7,1,2,1.2,3,0.5c0.9-0.5,1.8-0.9,2.9,0c6,5.1,12.9,5.3,19.7,2.1c8.3-3.8,14.1-9.8,15.2-18.8
			c0.2-1.6,0-3.1-0.5-4.6c-0.5-1.5,0-2.2,1.3-3c6.1-3.7,9.4-10.5,7.9-16.8c-1.6-7.1-6.2-11.6-13.9-13.3c-7.1-1.6-14.5,1.1-18.9,7
			c-4.1,5.5-4.1,13,0,18.5c0.4,0.5,0.8,1.1,1.5,2c-2.5-0.9-4.5-1.5-6.5-2.3c-0.8-0.5-1.9-0.2-2.3,0.7c0,0.1-0.1,0.1-0.1,0.2
			c-3,4.7-3,4.6,1.1,8.5c0.6,0.6,1,1.4,1.2,2.2c-0.5,0.5-1.1,0.9-1.8,0.9c-3.8-1-7.6-2-10.3-4.8c-2.3-2.1-2.4-5.6-0.3-7.9
			c0.6-0.6,1.3-1.1,2-1.4c7-3.1,8-9,4.6-14.6c-2.8-4.7-7.2-8.2-11.7-11.5c-0.6-0.4-1.2-0.8-1.8-1.2c-0.3-0.3-0.6-0.6-0.8-0.9
			c3.3-2.3,6.8-4.1,10.6-5.5c14.1-5.3,27.6-1.9,38.8,6.5c9.7,7.3,14.7,17.4,15.8,28.8c1.3,11.4-2.4,22.8-10.1,31.2
			c-6.7,7.6-16,12.5-26.2,13.6c-6.5,1.2-13.2,0.5-19.4-2.1c-14.5-5.9-23.2-16.7-26.1-31c-2.9-14,0.7-26.7,11.3-37.2
			c1-1,2.6-1.1,3.7-0.1c0.1,0.1,0.1,0.1,0.2,0.2c3.5,3,7,6,10.4,9.1c0.8,0.9,1.5,1.9,2,3c1.3,2.7,1.4,6.2-2.7,7.9
			c-5.8,2.4-7.1,6.9-5.9,11.7c1,3.8,4,6,7.5,7.6c2.3,1.1,4.8,1.8,7.2,2.7L730.1,2354.5z"/>
	</g>
</g>
</svg>
