<?xml version="1.0" encoding="utf-8"?>
<!-- Generator: Adobe Illustrator 24.1.0, SVG Export Plug-In . SVG Version: 6.00 Build 0)  -->
<svg version="1.1" id="Risk_-_Toilet_seat" xmlns="http://www.w3.org/2000/svg" xmlns:xlink="http://www.w3.org/1999/xlink" x="0px"
	 y="0px" viewBox="0 0 100 102" style="enable-background:new 0 0 100 102;" xml:space="preserve">
<style type="text/css">
	.st0{fill:#FFD800;}
	.st1{fill:#E1251B;}
</style>
<g id="Group_233" transform="translate(-682 -2291)">
	<circle id="Icon" class="st0" cx="732" cy="2341" r="50"/>
	<g id="Group_173" transform="translate(530.634 1458.561)">
		<g id="Group_172" transform="translate(182.611 844.791)">
			<path id="Path_205" class="st1" d="M-11.9,40.2h3.2l56.8,0c2.3,0,2.3,0,2.2,2.3C50.3,54,41.9,62.5,30.5,62.7
				c-4.7,0.1-9.4,0-14.1,0c-2.7,0-3.5,0.9-3.5,3.5c0,3,0,5.9,0,9.1h-24.8V40.2z"/>
			<path id="Path_206" class="st1" d="M12.8,37.5H8.1V5.1H-7v32.4h-5V36c0-10.1,0-20.3,0-30.4C-12,2-10,0-6.5,0c4.7,0,9.4,0,14.1,0
				c3.2,0,5.3,1.9,5.3,5.1c0,10.5,0,21.1,0,31.6C12.9,37,12.8,37.3,12.8,37.5z"/>
			<path id="Path_207" class="st1" d="M50.4,32.8v4.8H15.6v-4.8H50.4z"/>
		</g>
	</g>
</g>
</svg>
