<?xml version="1.0" encoding="utf-8"?>
<!-- Generator: Adobe Illustrator 24.1.0, SVG Export Plug-In . SVG Version: 6.00 Build 0)  -->
<svg version="1.1" id="Layer_1" xmlns="http://www.w3.org/2000/svg" xmlns:xlink="http://www.w3.org/1999/xlink" x="0px" y="0px"
	 viewBox="0 0 100 100" style="enable-background:new 0 0 100 100;" xml:space="preserve">
<style type="text/css">
	.st0{fill:#FFD800;}
	.st1{fill:#E1251B;}
</style>
<g id="Risk_-_Breastfreeding" transform="translate(1)">
	<g id="Group_227" transform="translate(-664 -2291)">
		<circle id="Icon" class="st0" cx="713" cy="2341" r="50"/>
		<g id="Group_162" transform="translate(-998.111 2200.383)">
			<path id="Breast" class="st1" d="M1733,99.3c-0.3-0.5-1-0.8-1.6-0.7c-0.4,0.1-0.7,0.3-1,0.7c-5,6.2-10.2,12.4-15.5,18.5
				c-7.1,8.1-14.3,16.2-22.3,23.5c-1.4,1.3-2.1,3.1-2,5c0.2,2.9,0.7,5.8,1.7,8.5c1.2,3.6,3.3,6.9,6,9.6c4,3.8,8.9,5.5,14.3,6
				c0.5,0,0.6,0.1,0.6,0.6c0,2.6,0,5.2,0,7.8c-0.1,0.7,0.4,1.4,1.1,1.6c0.2,0,0.5,0,0.7,0c0.5-0.1,0.9-0.5,1-1c0-0.1-0.1-0.2,0-0.3
				c0,0.1,0,0.1,0.1,0.2c0.1-0.2,0.1-0.4,0.1-0.5c0-2.5,0-5.1,0-7.6c0-0.4,0.1-0.5,0.5-0.5c2.6,0,5.2-0.6,7.6-1.7
				c0.7-0.3,1.1-1.2,0.8-1.9c0,0,0-0.1,0-0.1c-0.4-0.7-1.3-1-2-0.6c-0.4,0.2-0.8,0.4-1.2,0.5c-1.9,0.7-3.9,1-5.9,0.9
				c-1.8,0-3.6-0.2-5.4-0.5c-7.5-1.4-12.6-5.6-15.3-12.7c-0.1-0.2-0.1-0.5,0.1-0.7c0.7-0.7,1.3-1.5,1.8-2.4c2.2-3.2,2.5-7.3,1-10.8
				c-0.1-0.3,0-0.4,0.2-0.6c2.7-2.6,5.3-5.3,7.9-8c8.3-8.9,16.1-18.1,23.8-27.5c0.9-1.1,1.9-2.3,2.8-3.5
				C1733.2,100.5,1733.3,99.8,1733,99.3z M1716.2,178.8c0-2.5,0-5,0-7.5c0,0,0-0.1,0-0.1C1716.2,173.7,1716.2,176.2,1716.2,178.8
				C1716.2,178.8,1716.2,178.8,1716.2,178.8L1716.2,178.8z M1716.2,170.9L1716.2,170.9C1716.1,171,1716.1,170.9,1716.2,170.9
				L1716.2,170.9C1716.1,170.9,1716.2,170.9,1716.2,170.9L1716.2,170.9z M1694.2,150.6c-0.4-1.7-0.6-3.4-0.6-5.1
				c0.1-0.8,0.4-1.6,1.1-2.2c0.2-0.2,0.5-0.4,0.7-0.6c0.4-0.4,0.4-0.4,0.6,0.2C1696.7,145.8,1695.9,148.2,1694.2,150.6L1694.2,150.6
				z"/>
			<path id="Path_182" class="st1" d="M1691.1,159.7c0,0-5.1,14.2-5.4,15.8c-0.2,1.1-0.8,6.6,5.4,6.6s5.3-5.7,4.9-7.1
				C1695.7,173.7,1691.1,159.7,1691.1,159.7z"/>
		</g>
	</g>
</g>
</svg>
