<?xml version="1.0" encoding="utf-8"?>
<!-- Generator: Adobe Illustrator 24.1.0, SVG Export Plug-In . SVG Version: 6.00 Build 0)  -->
<svg version="1.1" id="Risk_-_Hugging" xmlns="http://www.w3.org/2000/svg" xmlns:xlink="http://www.w3.org/1999/xlink" x="0px"
	 y="0px" viewBox="0 0 100 100" style="enable-background:new 0 0 100 100;" xml:space="preserve">
<style type="text/css">
	.st0{fill:#FFD800;}
	.st1{fill:#6FCFEB;}
	.st2{fill:#E1251B;}
</style>
<g id="Group_228" transform="translate(-694 -2291)">
	<circle id="Icon" class="st0" cx="744" cy="2341" r="50"/>
	<g id="Group_163" transform="translate(40.437 1587.437)">
		<path id="Path_183" class="st1" d="M662.3,743.6v-3.8c0-0.2,0.1-0.5,0.1-0.7c0.3-3.7,1.5-7.3,3.4-10.4
			c4.5-7.6,13.2-11.7,21.9-10.2c5.4,0.9,9.6,3.8,13.1,8c0.3,0.4,0.6,0.7,0.9,1.2c0.3-0.4,0.6-0.8,0.9-1.2
			c5.9-7.4,14.7-10.2,23.3-7.2c7.8,2.7,12.3,8.3,14.4,16.1c0.4,1.5,0.5,3,0.8,4.5v3.8c-0.1,0.2-0.1,0.3-0.1,0.5
			c-0.5,4.9-2.3,9.5-5.2,13.5c-2.9,4.1-6.3,7.9-10.1,11.2c-7,6.1-14,12.2-21,18.3c-1.7,1.5-4.4,1.5-6-0.1c-5.3-4.6-10.7-9.2-16-13.7
			c-4.3-3.6-8.4-7.6-12.1-11.8c-3.4-3.8-6-8.3-7.4-13.2C662.7,746.7,662.5,745.1,662.3,743.6z"/>
		<path id="Path_184" class="st2" d="M745.4,771.3l-2,2.1c-0.6,0.5-1.1,0.9-1.7,1.4c-3.1,2.6-7.3,3.7-11.3,3
			c-5-0.9-9.9-1.8-14.9-2.7c-0.3-0.1-0.6-0.1-0.8-0.3c-1.6-0.6-2.4-2.4-1.8-4c0.1-0.2,0.1-0.3,0.2-0.5c0.7-1.2,2.1-1.8,3.5-1.6
			c1.9,0.2,3.8,0.5,5.7,0.8c0.1,0,0.2,0,0.5,0l-0.5-0.4c-5.1-4.9-10.1-9.7-15.2-14.6c-1.1-0.9-1.3-2.6-0.4-3.7s2.6-1.3,3.7-0.4
			c0.1,0.1,0.2,0.2,0.3,0.3c3,2.9,6.1,5.9,9.2,8.8c0.1,0.1,0.1,0.1,0.2,0.2c0.4,0.3,0.9,0.3,1.2-0.1c0.3-0.3,0.3-0.9,0-1.2
			c-0.1-0.1-0.2-0.2-0.3-0.3c-3.9-3.7-7.7-7.4-11.6-11.2c-0.7-0.6-1-1.6-0.9-2.5c0.1-0.3,0.2-0.7,0.3-1l0.7-0.7
			c1.5-0.8,2.7-0.4,3.9,0.8c3.8,3.7,7.6,7.3,11.4,11c0.5,0.5,1,0.5,1.4,0.1s0.3-0.9-0.1-1.4c-0.6-0.6-1.2-1.2-1.9-1.8
			c-2.9-2.8-5.8-5.5-8.7-8.3c-1.1-1-1.2-2.7-0.3-3.8c0.2-0.2,0.5-0.4,0.7-0.6c1.1-0.6,2.5-0.3,3.4,0.7c3.9,3.8,7.8,7.5,11.7,11.2
			c0.3,0.4,0.8,0.4,1.2,0.1c0,0,0.1,0,0.1-0.1c0.3-0.3,0.3-0.9,0-1.2c0,0-0.1-0.1-0.1-0.1c-0.1-0.1-0.1-0.1-0.2-0.2
			c-2.5-2.4-4.9-4.7-7.4-7.1c-0.3-0.3-0.6-0.5-0.8-0.8c-0.9-1.1-0.7-2.8,0.4-3.7c0.9-0.8,2.3-0.8,3.2,0c0.3,0.3,0.6,0.5,0.9,0.8
			c5.3,5.1,10.7,10.3,16,15.4c0.6,0.5,1.1,1.1,1.6,1.7c3.1,3.9,4,8.7,1,13.5C746.5,769.8,745.9,770.5,745.4,771.3z"/>
		<path id="Path_185" class="st2" d="M663.2,772l2,2c0.6,0.4,1.1,0.9,1.7,1.3c3.2,2.5,7.3,3.5,11.3,2.7c5-1,9.9-2,14.8-3.1
			c0.3-0.1,0.6-0.2,0.8-0.3c1.6-0.6,2.4-2.5,1.7-4c-0.1-0.2-0.1-0.3-0.2-0.5c-0.8-1.2-2.2-1.8-3.6-1.5c-1.9,0.3-3.8,0.6-5.6,0.9
			c-0.1,0-0.2,0-0.5,0l0.4-0.4c5-5,9.9-9.9,14.9-14.9c1.1-1,1.2-2.6,0.3-3.7c-1-1.1-2.6-1.2-3.7-0.3c-0.1,0.1-0.2,0.2-0.3,0.3
			c-3,3-6,6-9,9c-0.1,0.1-0.1,0.1-0.2,0.2c-0.3,0.3-0.9,0.4-1.2,0s-0.4-0.9,0-1.2c0.1-0.1,0.2-0.2,0.3-0.3
			c3.8-3.8,7.6-7.6,11.4-11.4c0.7-0.6,1-1.6,0.8-2.5c-0.1-0.3-0.2-0.7-0.4-1l-0.7-0.7c-1.5-0.8-2.7-0.3-3.9,0.8
			c-3.7,3.8-7.4,7.5-11.1,11.2c-0.5,0.5-1,0.5-1.4,0.1s-0.4-0.9,0.1-1.4c0.6-0.6,1.2-1.2,1.8-1.8c2.8-2.8,5.7-5.7,8.5-8.5
			c1.1-1,1.2-2.7,0.2-3.8c-0.2-0.2-0.5-0.4-0.7-0.6c-1.2-0.6-2.5-0.2-3.4,0.7c-3.8,3.8-7.6,7.7-11.4,11.5c-0.3,0.4-0.8,0.5-1.2,0.2
			c0,0-0.1,0-0.1-0.1c-0.4-0.3-0.4-0.9,0-1.2c0,0,0.1-0.1,0.1-0.1c0.1-0.1,0.1-0.1,0.2-0.2c2.4-2.4,4.8-4.8,7.2-7.3
			c0.3-0.3,0.5-0.5,0.8-0.8c0.9-1.1,0.7-2.8-0.5-3.7c-1-0.7-2.3-0.7-3.2,0c-0.3,0.3-0.6,0.6-0.9,0.9c-5.2,5.2-10.5,10.5-15.7,15.7
			c-0.5,0.5-1.1,1.1-1.5,1.7c-3.1,4-3.8,8.8-0.7,13.6C662,770.5,662.6,771.2,663.2,772z"/>
	</g>
</g>
</svg>
