<?xml version="1.0" encoding="utf-8"?>
<!-- Generator: Adobe Illustrator 24.1.0, SVG Export Plug-In . SVG Version: 6.00 Build 0)  -->
<svg version="1.1" id="Layer_1" xmlns="http://www.w3.org/2000/svg" xmlns:xlink="http://www.w3.org/1999/xlink" x="0px" y="0px"
	 viewBox="0 0 100 100" style="enable-background:new 0 0 100 100;" xml:space="preserve">
<style type="text/css">
	.st0{fill:#FFD800;}
	.st1{fill:#6FCEEA;}
	.st2{fill:#E1251B;}
</style>
<g id="Risk_-_Sex_without_condoms" transform="translate(1)">
	<g id="Group_224" transform="translate(-680 -2291)">
		<circle id="Icon" class="st0" cx="729" cy="2341" r="50"/>
		<g id="Group_159" transform="translate(-830.884 2186.761)">
			<g id="Condom" transform="translate(1560.314 116)">
				<path id="External_Condom_Bottom" class="st1" d="M-0.9,76.5h13.4c1.6-1.1,0-3.1,0-3.1h-26.8c0,0-1.6,1.9,0,3.1H-0.9z"/>
				<path id="External_Condom_-_Body" class="st1" d="M1.2,3.1c0.4,0.1,1.4,0.3,1.4,0.3c6.9,1.8,8.1,9.7,8.1,9.7v60.2h-23.3V13.2
					c0,0,1.1-7.9,8.1-9.7c0,0,1-0.3,1.4-0.3h0c-0.1-1.7,0.4-3,2.1-3.1h0.1C0.9,0.1,1.3,1.5,1.2,3.1L1.2,3.1z"/>
			</g>
			<path id="X" class="st2" d="M1590.3,179.3c2.2,2.3,2.2,6.1-0.2,8.3c-2.3,2.2-6,2.2-8.2-0.1l-22.5-23l-22.5,23
				c-2.3,2.3-6,2.3-8.3,0c-2.3-2.3-2.3-5.9-0.1-8.2l22.6-23.2l-22.6-23.2c-2.2-2.3-2.2-6.1,0.2-8.3c2.3-2.2,6-2.2,8.2,0.1l22.5,23
				l22.5-23c2.3-2.3,6-2.3,8.3,0c2.3,2.3,2.3,5.9,0.1,8.2l-22.6,23.2L1590.3,179.3z"/>
		</g>
	</g>
</g>
</svg>
