<?xml version="1.0" encoding="utf-8"?>
<!-- Generator: Adobe Illustrator 24.1.0, SVG Export Plug-In . SVG Version: 6.00 Build 0)  -->
<svg version="1.1" id="Risk_-_Needles" xmlns="http://www.w3.org/2000/svg" xmlns:xlink="http://www.w3.org/1999/xlink" x="0px"
	 y="0px" viewBox="0 0 100 103" style="enable-background:new 0 0 100 103;" xml:space="preserve">
<style type="text/css">
	.st0{fill:#FFD800;}
	.st1{fill:#6FCFEB;}
	.st2{fill:#E1251B;}
	.st3{fill:none;stroke:#9164CC;stroke-width:2;stroke-linecap:round;stroke-miterlimit:10;}
</style>
<g id="Group_244" transform="translate(-694 -2291)">
	<g id="Group_225">
		<circle id="Icon" class="st0" cx="744" cy="2341" r="50"/>
	</g>
	<g id="Group_161" transform="translate(-676.469 2185.083)">
		<path id="Inject" class="st1" d="M1412,111.6h15.6c1.4,0,2.6,1.1,2.6,2.6l0,0c0,1.4-1.1,2.6-2.6,2.6H1412c-1.4,0-2.6-1.1-2.6-2.6
			l0,0C1409.4,112.8,1410.6,111.6,1412,111.6z"/>
		<path id="Body" class="st1" d="M1411.3,129.6h16.9l0,0v31.7c0,4.7-3.8,8.5-8.5,8.5l0,0c-4.7,0-8.5-3.8-8.5-8.5V129.6L1411.3,129.6
			z"/>
		<rect id="Inject_Body" x="1414.4" y="116.7" class="st1" width="11" height="7.7"/>
		<path id="Body_Top" class="st1" d="M1410.6,124.4h18.8c1.4,0,2.6,1.2,2.6,2.6v0c0,1.4-1.2,2.6-2.6,2.6h-18.8
			c-1.4,0-2.6-1.2-2.6-2.6v0C1408,125.6,1409.2,124.4,1410.6,124.4z"/>
		<path id="Tip" class="st1" d="M1413.1,169.7h13.6c0,0,0.1,0,0.1,0.1c0,0,0,0,0,0l0,0c0,1.7-1.4,3.1-3.1,3.1h-7.3
			C1414.5,172.9,1413.1,171.5,1413.1,169.7L1413.1,169.7L1413.1,169.7z"/>
		<path id="Tip-2" class="st1" d="M1415.6,172.7h8.6c0,0,0.1,0,0.1,0.1c0,0,0,0,0,0v2.2c0,2.4-1.9,4.3-4.3,4.3l0,0l0,0
			c-2.4,0-4.3-1.9-4.3-4.3c0,0,0,0,0,0V172.7L1415.6,172.7z"/>
		<path id="Injection" class="st1" d="M1418.1,179.4l0.4,18.4c0,0,0.2,1.9,1.4,1.8s1.1-1.6,1.1-1.6l0.6-18.6L1418.1,179.4z"/>
		<g id="Markers" transform="translate(1420.905 131.738)">
			<g id="Group_160">
				<path id="Path_170" class="st2" d="M7,2.3H1.1C0.5,2.3,0,1.8,0,1.1l0,0C0,0.5,0.5,0,1.1,0H7V2.3z"/>
				<path id="Path_171" class="st2" d="M7,5.9H1.1C0.5,5.9,0,5.3,0,4.7l0,0c0-0.6,0.5-1.1,1.1-1.1H7V5.9z"/>
				<path id="Path_172" class="st2" d="M7,9.5H1.1C0.5,9.5,0,8.9,0,8.3l0,0c0-0.6,0.5-1.1,1.1-1.1H7V9.5z"/>
				<path id="Path_173" class="st2" d="M7,13.1H1.1c-0.6,0-1.1-0.5-1.1-1.1l0,0c0-0.6,0.5-1.1,1.1-1.1H7V13.1z"/>
				<path id="Path_174" class="st2" d="M7,16.7H1.1c-0.6,0-1.1-0.5-1.1-1.1l0,0c0-0.6,0.5-1.1,1.1-1.1H7V16.7z"/>
				<path id="Path_175" class="st2" d="M7,20.3H1.1c-0.6,0-1.1-0.5-1.1-1.1l0,0C0,18.5,0.5,18,1.1,18H7V20.3z"/>
				<path id="Path_176" class="st2" d="M7,23.9H1.1c-0.6,0-1.1-0.5-1.1-1.1l0,0c0-0.6,0.5-1.1,1.1-1.1H7V23.9z"/>
				<path id="Path_177" class="st2" d="M7,27.4H1.1c-0.6,0-1.1-0.5-1.1-1.1l0,0c0-0.6,0.5-1.1,1.1-1.1H7V27.4z"/>
				<path id="Path_178" class="st2" d="M7,31H1.1C0.5,31,0,30.5,0,29.9l0,0c0-0.6,0.5-1.1,1.1-1.1H7V31z"/>
			</g>
		</g>
		<g id="spore" transform="translate(1418.982 191.222)">
			<line id="Line_45" class="st3" x1="4.7" y1="3.9" x2="2.3" y2="1.2"/>
			<line id="Line_46" class="st3" x1="4.3" y1="5.1" x2="1.6" y2="7"/>
			<line id="Line_47" class="st3" x1="5.1" y1="5.1" x2="5.1" y2="7.8"/>
			<line id="Line_48" class="st3" x1="5.5" y1="4.3" x2="6.2" y2="1.6"/>
			<line id="Line_49" class="st3" x1="5.8" y1="4.7" x2="8.6" y2="5.8"/>
			<circle id="Ellipse_105" class="st1" cx="5.1" cy="4.3" r="1.9"/>
			<circle id="Ellipse_106" class="st1" cx="2.1" cy="1" r="0.6"/>
			<circle id="Ellipse_107" class="st1" cx="6.4" cy="1" r="1"/>
			<circle id="Ellipse_108" class="st1" cx="1" cy="7.4" r="1"/>
			<circle id="Ellipse_109" class="st1" cx="5.1" cy="8.2" r="0.8"/>
			<circle id="Ellipse_110" class="st1" cx="9" cy="6" r="0.6"/>
		</g>
		<g id="spore-2" transform="translate(1409.141 179.065)">
			<line id="Line_50" class="st3" x1="4.7" y1="3.9" x2="2.3" y2="1.2"/>
			<line id="Line_51" class="st3" x1="4.3" y1="5.1" x2="1.6" y2="7"/>
			<line id="Line_52" class="st3" x1="5.1" y1="5.1" x2="5.1" y2="7.8"/>
			<line id="Line_53" class="st3" x1="5.5" y1="4.3" x2="6.2" y2="1.6"/>
			<line id="Line_54" class="st3" x1="5.8" y1="4.7" x2="8.6" y2="5.8"/>
			<circle id="Ellipse_111" class="st1" cx="5.1" cy="4.3" r="1.9"/>
			<circle id="Ellipse_112" class="st1" cx="2.1" cy="1" r="0.6"/>
			<circle id="Ellipse_113" class="st1" cx="6.4" cy="1" r="1"/>
			<circle id="Ellipse_114" class="st1" cx="1" cy="7.4" r="1"/>
			<circle id="Ellipse_115" class="st1" cx="5.1" cy="8.2" r="0.8"/>
			<circle id="Ellipse_116" class="st1" cx="9" cy="6" r="0.6"/>
		</g>
	</g>
</g>
</svg>
