<?xml version="1.0" encoding="utf-8"?>
<!-- Generator: Adobe Illustrator 24.1.0, SVG Export Plug-In . SVG Version: 6.00 Build 0)  -->
<svg version="1.1" id="Risk_-_Bites" xmlns="http://www.w3.org/2000/svg" xmlns:xlink="http://www.w3.org/1999/xlink" x="0px"
	 y="0px" viewBox="0 0 100 100" style="enable-background:new 0 0 100 100;" xml:space="preserve">
<style type="text/css">
	.st0{fill:#FFD800;}
	.st1{fill:#E1251B;}
</style>
<g id="Group_234" transform="translate(-681 -2291)">
	<circle id="Icon" class="st0" cx="731" cy="2341" r="50"/>
	<path id="Path_208" class="st1" d="M756.7,2296h1.4c0.1,0.1,0.2,0.2,0.3,0.2c1.3,0.6,1.9,2.2,1.3,3.5c-0.3,0.6-0.7,1.1-1.3,1.3
		c-2.8,1.4-5.5,2.8-8.3,4.1c-0.5,0.2-0.8,0.6-0.7,1.1c0,4.3,0,8.7,0,13c0,1-0.4,1.9-1.1,2.6c-1.7,1.7-3.4,3.4-5.1,5.1
		c-0.2,0.2-0.3,0.4-0.6,0.7h1.1c8,0,16,0,24.1,0c3.5-0.1,6.6,2.1,7.7,5.4c0.2,0.5,0.3,1,0.4,1.4v2.1c-0.1,0.1-0.1,0.2-0.1,0.3
		c-0.7,3.9-4.2,6.7-8.2,6.5c-6.9,0-13.8,0-20.6,0c-1.3,0-2.7-0.2-4-0.5c-2-0.6-3.9-1.6-5.4-3.1l-0.8,1.1c1.1,1.2,1.8,2.8,1.9,4.4
		c0.1,1.1,0.1,2.2,0,3.2c0,0.6,0.1,0.9,0.8,1.1c6,1.5,12,3,18,4.5c1.5,0.2,2.5,1.5,2.3,3c0,2.8,0,5.6,0,8.3c0,0.5,0.2,0.9,0.5,1.3
		c3,3.2,6.1,6.3,9.1,9.4c1.1,1,1.2,2.6,0.3,3.7s-2.6,1.2-3.7,0.3c-0.1-0.1-0.2-0.2-0.3-0.3c-3.4-3.5-6.7-6.9-10.1-10.4
		c-0.7-0.7-1.1-1.6-1-2.5c0-2.5,0-4.9,0-7.4c0-0.3-0.2-0.7-0.4-0.8c-3-0.8-6.1-1.6-9.2-2.3c1,1.2,2.1,2.4,3.3,3.5
		c0.7,0.7,1.1,1.6,1.1,2.6c0,2.7,0,5.4,0,8.2c0,0.6,0.2,1.1,0.6,1.5c3,3.1,6,6.2,9,9.3c1.1,0.9,1.3,2.6,0.3,3.7
		c-0.1,0.1-0.1,0.1-0.2,0.2c-0.4,0.3-0.7,0.5-1.1,0.8h-1.4c-0.4-0.3-0.9-0.6-1.3-0.9c-3.5-3.5-6.9-7.1-10.3-10.7
		c-0.6-0.6-0.9-1.4-0.9-2.3c0-1.8,0-3.6,0-5.4c0-1.3,0.3-2.7-0.1-3.7c-0.4-1.1-1.7-1.8-2.5-2.7c-0.8-0.8-1.6-1.7-2.4-2.5l-0.2,0.2
		c0,0.9,0,1.9,0,2.8c0.1,1.2-0.2,2.3-0.8,3.4c-1.6,3-3.1,6.1-4.6,9.1c-0.5,1.4-2,2.2-3.4,1.7c-0.8-0.3-1.4-0.9-1.7-1.7
		c-1.5-3.1-3.2-6.3-4.7-9.4c-0.4-0.8-0.6-1.8-0.6-2.7c-0.1-1.1,0-2.1,0-3.4c-1.7,1.7-3.2,3.2-4.7,4.7c-0.4,0.3-0.6,0.9-0.6,1.4
		c0,2.7,0,5.3,0,8c0,1.1-0.4,2.2-1.2,3c-3.1,3.1-6.1,6.3-9.2,9.4c-0.7,0.6-1.4,1.2-2.1,1.8h-1.4c-2.4-1.4-2.6-3-0.6-5.1
		c2.9-3,5.8-6,8.7-9c0.3-0.4,0.5-0.9,0.6-1.4c0.1-2.7,0.1-5.4,0-8.1c-0.1-1.1,0.4-2.2,1.2-2.9c1.1-1,2.2-2.1,3.2-3.2
		c-3.1,0.6-6.2,1.4-9.3,2.2c-0.2,0.1-0.4,0.5-0.4,0.8c0,2.5,0,5-0.1,7.5c0,0.8-0.3,1.5-0.8,2.1c-3.4,3.7-7,7.3-10.5,10.9
		c-0.6,0.7-1.6,1-2.5,0.7c-1.4-0.3-2.3-1.7-2-3.1c0.1-0.5,0.4-1,0.8-1.4c3-3.2,6.1-6.3,9.1-9.5c0.3-0.4,0.5-0.8,0.5-1.3
		c0-2.8,0-5.5,0-8.3c-0.2-1.5,0.8-2.9,2.3-3.1c0,0,0.1,0,0.1,0c5.9-1.5,11.9-3,17.8-4.4c0.7-0.2,0.9-0.5,0.9-1.2
		c-0.1-1.1,0-2.2,0.1-3.3c0.2-1.6,0.9-3,1.9-4.2l-0.8-1l-0.7,0.6c-2.2,1.9-5,3-8,3c-7.3,0.1-14.6,0-21.9,0c-3.4,0-6.3-2.2-7.4-5.4
		c-0.2-0.5-0.3-1-0.4-1.4v-2.1c0-0.1,0.1-0.2,0.1-0.2c1.2-4.5,3.9-6.6,8.6-6.6h24.6c-2-2-3.9-3.9-5.8-5.8c-0.7-0.7-1.1-1.6-1.1-2.6
		c0-4.2,0-8.5,0-12.7c0.1-0.7-0.3-1.3-0.9-1.5c-2.7-1.3-5.3-2.6-8-4c-1-0.4-1.6-1.4-1.6-2.4c0-1.1,0.6-2.1,1.6-2.5
		c0.1-0.1,0.2-0.1,0.3-0.2h1.4c3.5,1.8,7.1,3.6,10.6,5.3c1.2,0.5,1.9,1.7,1.8,3c0,4.5,0,9,0,13.5c0,0.5,0.2,0.9,0.5,1.3
		c1.9,2,3.8,3.9,5.8,5.8c0.2,0.2,0.4,0.3,0.6,0.5l0.3-0.1c-0.1-0.3-0.2-0.6-0.3-0.8c-2.6-3.5-1.9-8.4,1.6-11
		c0.4-0.3,0.9-0.6,1.4-0.9c0.5-0.1,0.8-0.6,0.7-1.1c0-4,0-8,0-11.9c-0.2-1.5,0.6-2.9,2-3.5h1.4c1.4,0.6,2.2,2.1,2,3.5
		c-0.1,2.4,0,4.8,0,7.2v5.5c2.1,0.7,3.8,2.3,4.6,4.4c1.1,2.6,0.8,5.6-0.9,7.8c-0.2,0.3-0.7,0.6,0.1,1c2.1-2.1,4.2-4.1,6.2-6.3
		c0.3-0.4,0.5-0.8,0.5-1.3c0-4.5,0.1-8.9,0-13.4c-0.1-1.4,0.7-2.7,2-3.2C749.7,2299.6,753.2,2297.8,756.7,2296z M739.4,2332.9
		c0,0.2,0.1,0.4,0.2,0.6c1,2.3,3.1,4,5.6,4.5c0.5,0.1,1.1,0.2,1.7,0.2c7,0,14.1,0,21.1,0c1.5,0.1,2.7-1,2.8-2.5
		c0.1-1.3-0.8-2.5-2.1-2.7c-0.4-0.1-0.8-0.1-1.1-0.1c-9,0-18,0-27.1,0L739.4,2332.9z M722.6,2332.9H703c-3,0-6,0-9,0
		c-1.5-0.1-2.7,1-2.8,2.5c-0.1,1.5,1,2.7,2.5,2.8c0.1,0,0.2,0,0.3,0c7.1,0,14.1,0,21.2,0c0.6,0,1.1-0.1,1.7-0.2
		C719.6,2337.4,721.7,2335.5,722.6,2332.9z M731,2366.6c0.9-1.7,1.6-3.2,2.3-4.7c0.2-0.4,0.3-0.8,0.3-1.2c0-4.7,0-9.4,0-14.1
		c0-1.8-1.1-3.1-2.7-3c-1.6,0-2.6,1.2-2.6,3c0,4.7,0,9.4,0,14.1c0,0.3,0,0.5,0.1,0.8C729.2,2363.1,730.1,2364.7,731,2366.6
		L731,2366.6z M733.6,2319.7c0-1.5-1.2-2.6-2.7-2.6s-2.6,1.2-2.6,2.7s1.2,2.6,2.7,2.6c0,0,0,0,0,0
		C732.5,2322.3,733.6,2321.1,733.6,2319.7L733.6,2319.7z"/>
</g>
</svg>
