<?xml version="1.0" encoding="utf-8"?>
<!-- Generator: Adobe Illustrator 24.1.0, SVG Export Plug-In . SVG Version: 6.00 Build 0)  -->
<svg version="1.1" id="Layer_1" xmlns="http://www.w3.org/2000/svg" xmlns:xlink="http://www.w3.org/1999/xlink" x="0px" y="0px"
	 viewBox="0 0 100 101" style="enable-background:new 0 0 100 101;" xml:space="preserve">
<style type="text/css">
	.st0{fill:#FFD800;}
	.st1{fill:#6FCFEB;}
	.st2{fill:none;stroke:#E1251B;stroke-width:4;stroke-linecap:round;stroke-miterlimit:10;}
	.st3{fill:#6FCEEA;}
	.st4{fill:#E1251B;}
</style>
<g id="Risk_-_Sharing_water" transform="translate(1)">
	<g id="Group_229" transform="translate(-668 -2291)">
		<circle id="Icon" class="st0" cx="717" cy="2341" r="50"/>
		<g id="Group_166" transform="translate(38.962 1450.746)">
			<g id="bread" transform="translate(677.341 849.511)">
				<path id="Rectangle_56" class="st1" d="M29.4,5.3L29.4,5.3c4.2,2.9,5.3,8.7,2.4,12.9L-6.4,73.9c-2.9,4.2-8.7,5.3-12.9,2.4l0,0
					c-4.2-2.9-5.3-8.7-2.4-12.9L16.5,7.7C19.4,3.4,25.2,2.4,29.4,5.3z"/>
				<g id="Group_164" transform="translate(6.699 10.82)">
					<line id="Line_55" class="st2" x1="11.9" y1="0" x2="21.4" y2="6.5"/>
					<line id="Line_56" class="st2" x1="5.4" y1="9.5" x2="14.9" y2="16"/>
					<line id="Line_57" class="st2" x1="-1.1" y1="18.9" x2="8.4" y2="25.4"/>
					<line id="Line_58" class="st2" x1="-7.5" y1="28.4" x2="1.9" y2="34.9"/>
					<line id="Line_59" class="st2" x1="-14" y1="37.8" x2="-4.5" y2="44.3"/>
					<line id="Line_60" class="st2" x1="-20.5" y1="47.3" x2="-11" y2="53.8"/>
					<line id="Line_61" class="st2" x1="-27" y1="56.8" x2="-17.5" y2="63.3"/>
				</g>
			</g>
			<g id="cup" transform="translate(677.538 852.609)">
				<g id="Group_165">
					<path id="Path_186" class="st3" d="M-14.9,1.5c3.1-0.9,6.2-1.4,9.4-1.5c1.3-0.1,2.6,0.2,3.8,0.7c0.7,0.3,1.2,1,1.2,1.8
						c0.6,6.6,1.2,13.2,1.8,19.8c0.2,1.9,0.3,3.8,0.5,5.7c0.1,0.9-0.2,1.7-0.9,2.3c-1.1,0.9-2.3,1.6-3.7,2.1c-2.6,1.1-5.4,1.8-8.2,2
						c-1,0.1-1.9,0-2.9-0.1c-0.9-0.1-1.6-0.7-2-1.5c-3.7-7.7-7.3-15.4-11-23.1c-0.4-0.9-0.2-2,0.6-2.7c1-1.1,2.3-2,3.7-2.6
						C-20,3.3-14.9,1.4-14.9,1.5z M-2.7,5.9c-6.3,3.5-13.3,5.5-20.5,5.6c0.2,0.5,0.4,0.9,0.6,1.4c2.9,6.1,5.8,12.2,8.7,18.4
						c0.2,0.6,0.8,0.9,1.4,0.8c2,0,4-0.4,5.9-0.9c1.8-0.5,3.6-1.2,5.2-2.1c0.5-0.2,0.8-0.7,0.7-1.3C-1.3,21.8-1.8,15.9-2.3,10
						C-2.4,8.6-2.6,7.2-2.7,5.9L-2.7,5.9z M-3.1,2.8c-0.2-0.1-0.5-0.1-0.7-0.2c-1.4-0.1-2.9,0-4.3,0.1C-11.4,3-14.6,3.8-17.8,5
						c-2,0.7-3.9,1.6-5.6,2.7C-23.7,8-24,8.3-24.4,8.6c0.2,0.1,0.5,0.1,0.7,0.2c0.8,0.1,1.7,0.1,2.5,0.1C-16.1,8.5-11.1,7.2-6.4,5
						C-5.2,4.5-4,3.7-3.1,2.8z"/>
					<path id="Path_187" class="st3" d="M-4.3,37.7c-2.3,0.7-4.6,1-7,1.1c-0.6,0-1.3-0.1-1.9-0.3c-0.6-0.2-1-0.8-0.8-1.4
						c0,0,0,0,0,0c0.1-0.6,0.7-1,1.3-0.9c0,0,0,0,0,0c1.5,0.3,3.1,0.3,4.6-0.1c2.6-0.4,5.2-1.3,7.5-2.6c0.4-0.2,0.8-0.5,1.1-0.9
						c0.5-0.5,1.2-0.6,1.8-0.1c0.5,0.5,0.6,1.2,0.1,1.8c0,0-0.1,0.1-0.1,0.1c-0.9,0.9-1.9,1.5-3,2C-2,36.9-3.5,37.4-4.3,37.7z"/>
					<path id="Path_188" class="st4" d="M-12,25.7c0.6-0.1,1.1-0.5,1.2-1.1c0.1-0.4-0.1-0.9-0.4-1.2c-0.9-0.5-2-0.2-2.5,0.7
						c-0.2,0.4-0.1,0.9,0.2,1.2C-13.2,25.8-12.6,26-12,25.7z"/>
					<path id="Path_189" class="st4" d="M-16,17.7c1.1-0.3,1.5-1.2,1-2c-0.3-0.5-1-0.7-1.5-0.5c-0.7,0.2-1.3,0.4-1.3,1.2
						C-17.9,17.2-17.3,18.1-16,17.7z"/>
					<path id="Path_190" class="st4" d="M-9.9,19.1c0.5-0.1,1-0.5,1.1-1c0.2-0.6-0.2-1.3-0.9-1.5c-0.1,0-0.3,0-0.4,0
						c-0.3,0-0.6,0.1-0.9,0.2c-0.7,0.2-1,0.8-0.9,1.5c0.2,0.7,0.9,1.1,1.6,0.9C-10.1,19.1-10,19.1-9.9,19.1z"/>
				</g>
			</g>
			<path id="Path_191" class="st4" d="M715.1,890.2l-1.1-1.9c-0.3-0.4-0.7-0.9-1-1.3c-1.9-2.4-4.8-3.9-7.9-4
				c-3.9-0.1-7.7-0.2-11.6-0.4c-0.2,0-0.5,0-0.7,0.1c-1.3,0.2-2.2,1.4-2,2.7c0,0.1,0,0.3,0.1,0.4c0.3,1,1.3,1.7,2.4,1.7
				c1.4,0.1,2.9,0.2,4.3,0.3c0.1,0,0.2,0,0.4,0.1l-0.4,0.3l-13.7,8.4c-1,0.5-1.4,1.7-0.9,2.7s1.7,1.4,2.7,0.9
				c0.1-0.1,0.2-0.1,0.3-0.2c2.7-1.7,5.5-3.4,8.2-5.1c0,0,0.1-0.1,0.1-0.1c0.3-0.2,0.7-0.1,0.9,0.3c0.2,0.3,0.1,0.7-0.2,0.9
				c-0.1,0.1-0.2,0.1-0.3,0.2c-3.5,2.2-7,4.3-10.5,6.5c-0.6,0.3-1,1-1,1.7c0,0.3,0,0.5,0.1,0.8l0.4,0.6c0.9,0.8,2.2,0.8,3,0.1
				c3.4-2.1,6.8-4.2,10.2-6.3c0.4-0.3,0.8-0.2,1,0.1s0.1,0.7-0.3,1c-0.6,0.4-1.1,0.7-1.7,1c-2.6,1.6-5.2,3.2-7.8,4.8
				c-1,0.5-1.3,1.8-0.8,2.8c0.1,0.2,0.3,0.4,0.4,0.6c0.8,0.6,1.8,0.6,2.6,0c3.5-2.2,7-4.3,10.5-6.5c0.3-0.2,0.7-0.2,0.9,0.1
				c0,0,0,0,0,0.1c0.2,0.3,0.1,0.7-0.2,0.9c0,0-0.1,0-0.1,0c0,0-0.1,0.1-0.1,0.1c-2.2,1.4-4.4,2.7-6.7,4.1c-0.3,0.1-0.5,0.3-0.7,0.5
				c-0.9,0.7-1,2-0.3,2.8c0.6,0.7,1.6,0.9,2.4,0.5c0.3-0.1,0.6-0.3,0.8-0.5c4.8-3,9.6-5.9,14.4-8.9c0.5-0.3,1-0.6,1.4-1
				c3.1-2.3,4.3-6.3,2.9-9.9C715.7,891.6,715.4,890.9,715.1,890.2z"/>
			<path id="Path_192" class="st4" d="M641,890.4l1.1-1.9c0.3-0.4,0.7-0.9,1-1.3c1.9-2.4,4.8-3.9,7.9-4c3.9-0.1,7.7-0.2,11.6-0.4
				c0.2,0,0.5,0,0.7,0.1c1.3,0.2,2.2,1.4,2,2.7c0,0.1,0,0.3-0.1,0.4c-0.3,1-1.3,1.7-2.4,1.7c-1.4,0.1-2.9,0.2-4.3,0.3
				c-0.1,0-0.2,0-0.4,0.1l0.4,0.3c4.6,2.8,9.1,5.6,13.7,8.4c1,0.5,1.4,1.7,0.9,2.7c-0.5,1-1.7,1.4-2.7,0.9c-0.1-0.1-0.2-0.1-0.3-0.2
				c-2.7-1.7-5.5-3.4-8.2-5.1c0,0-0.1-0.1-0.1-0.1c-0.3-0.2-0.7-0.1-0.9,0.3c-0.2,0.3-0.1,0.7,0.2,0.9c0.1,0.1,0.2,0.1,0.3,0.2
				c3.5,2.2,7,4.3,10.5,6.5c0.6,0.3,1,1,1,1.7c0,0.3,0,0.5-0.1,0.8l-0.4,0.6c-0.9,0.8-2.2,0.8-3,0.1c-3.4-2.1-6.8-4.2-10.2-6.3
				c-0.4-0.3-0.8-0.2-1,0.1s-0.1,0.7,0.3,1c0.6,0.4,1.1,0.7,1.7,1c2.6,1.6,5.2,3.2,7.8,4.8c1,0.5,1.3,1.8,0.8,2.8
				c-0.1,0.2-0.3,0.4-0.4,0.6c-0.8,0.6-1.8,0.6-2.6,0c-3.5-2.2-7-4.3-10.5-6.5c-0.3-0.2-0.7-0.2-0.9,0.1c0,0,0,0,0,0.1
				c-0.2,0.3-0.1,0.7,0.2,0.9c0,0,0.1,0,0.1,0c0,0,0.1,0.1,0.1,0.1c2.2,1.4,4.4,2.7,6.7,4.1c0.3,0.1,0.5,0.3,0.7,0.5
				c0.9,0.7,1,2,0.3,2.8c-0.6,0.7-1.6,0.9-2.4,0.5c-0.3-0.1-0.6-0.3-0.8-0.5c-4.8-3-9.6-5.9-14.4-8.9c-0.5-0.3-1-0.6-1.4-1
				c-3.1-2.3-4.3-6.3-2.9-9.9C640.4,891.8,640.7,891.1,641,890.4z"/>
		</g>
	</g>
</g>
</svg>
