<?xml version="1.0" encoding="utf-8"?>
<!-- Generator: Adobe Illustrator 24.1.0, SVG Export Plug-In . SVG Version: 6.00 Build 0)  -->
<svg version="1.1" id="Risk_-_Touch" xmlns="http://www.w3.org/2000/svg" xmlns:xlink="http://www.w3.org/1999/xlink" x="0px"
	 y="0px" viewBox="0 0 100 100" style="enable-background:new 0 0 100 100;" xml:space="preserve">
<style type="text/css">
	.st0{fill:#FFD800;}
	.st1{fill:#E1251B;}
	.st2{fill:#6FCFEB;}
</style>
<g id="Group_232" transform="translate(-694 -2291)">
	<circle id="Icon" class="st0" cx="744" cy="2341" r="50"/>
	<g id="Group_171" transform="translate(683.632 1450.095)">
		<path id="Path_203" class="st1" d="M94.1,908.4l-3.2,2.1c-0.9,0.4-1.8,0.9-2.6,1.3c-5.2,2.4-10.5,2.8-15.8,0.5
			c-6.3-2.7-12.6-5.4-18.9-8.1c-0.4-0.2-0.7-0.4-1-0.6c-1.9-1.3-2.5-3.9-1.2-5.8c0.1-0.2,0.3-0.4,0.4-0.5c1.3-1.4,3.4-1.8,5.1-1
			c2.4,0.9,4.8,1.8,7.2,2.7c0.2,0.1,0.3,0.1,0.6,0.2l-0.5-0.7c-5.2-7.9-10.5-15.9-15.7-23.8c-1.2-1.6-0.9-3.8,0.7-5
			c1.6-1.2,3.8-0.9,5,0.7c0.1,0.1,0.2,0.3,0.3,0.5c3.1,4.8,6.3,9.6,9.5,14.4c0.1,0.1,0.1,0.2,0.2,0.2c0.4,0.5,1.1,0.7,1.7,0.3
			c0.5-0.4,0.7-1.1,0.3-1.6c-0.1-0.2-0.2-0.3-0.3-0.5c-4-6.1-8-12.1-12-18.2c-0.8-1-0.9-2.4-0.4-3.5c0.2-0.4,0.5-0.8,0.8-1.2
			l1.1-0.7c2.2-0.6,3.7,0.3,4.9,2.2c3.9,6,7.8,11.9,11.7,17.9c0.5,0.8,1.2,1,1.8,0.6s0.7-1.1,0.2-1.9c-0.6-1-1.3-2-1.9-2.9
			c-3-4.5-6-9-9-13.6c-1.2-1.6-0.8-3.9,0.8-5.1c0.3-0.3,0.7-0.4,1.1-0.6c1.7-0.4,3.4,0.4,4.2,1.9c4,6.1,8,12.2,12,18.3
			c0.3,0.6,1,0.8,1.6,0.6c0,0,0.1,0,0.1-0.1c0.6-0.4,0.7-1.1,0.4-1.7c0,0-0.1-0.1-0.1-0.1c-0.1-0.1-0.1-0.2-0.2-0.3
			c-2.5-3.9-5.1-7.7-7.6-11.6c-0.3-0.4-0.6-0.9-0.8-1.3c-0.9-1.8-0.1-3.9,1.6-4.7c1.5-0.7,3.2-0.3,4.3,0.9c0.3,0.4,0.7,0.9,1,1.4
			c5.5,8.4,11,16.8,16.5,25.1c0.6,0.9,1.1,1.8,1.6,2.7c3,6.1,2.6,12.7-2.7,18.2C96.1,906.7,95.1,907.5,94.1,908.4z"/>
		<path id="Path_204" class="st2" d="M23.3,916.6l2.5,2.9c0.7,0.7,1.5,1.3,2.2,2c4.4,3.7,9.3,5.5,15.1,4.7
			c6.8-0.9,13.6-1.8,20.3-2.8c0.4-0.1,0.8-0.2,1.2-0.3c2.2-0.7,3.4-3.1,2.7-5.3c-0.1-0.2-0.2-0.4-0.3-0.6c-0.9-1.7-2.8-2.6-4.7-2.4
			c-2.6,0.2-5.1,0.4-7.7,0.7c-0.2,0-0.3,0-0.6,0l0.6-0.6c7.2-6.3,14.3-12.5,21.5-18.8c1.6-1.2,1.9-3.4,0.7-5c-1.2-1.6-3.4-1.9-5-0.7
			c-0.2,0.1-0.3,0.3-0.5,0.4c-4.3,3.8-8.6,7.6-13,11.3c-0.1,0.1-0.1,0.1-0.2,0.2c-0.5,0.4-1.3,0.4-1.7-0.1c-0.4-0.5-0.4-1.2,0.1-1.7
			c0.1-0.1,0.3-0.3,0.5-0.4c5.5-4.8,10.9-9.6,16.4-14.4c1-0.8,1.5-2.1,1.3-3.3c-0.1-0.5-0.2-0.9-0.4-1.4l-0.9-1
			c-2-1.2-3.7-0.7-5.3,0.8c-5.3,4.7-10.7,9.4-16.1,14.1c-0.7,0.6-1.4,0.6-1.9,0.1s-0.4-1.2,0.3-1.8c0.9-0.8,1.8-1.5,2.6-2.3
			c4.1-3.6,8.2-7.1,12.3-10.7c1.6-1.2,1.8-3.5,0.6-5.1c-0.3-0.3-0.6-0.6-0.9-0.8c-1.5-0.9-3.4-0.6-4.6,0.7
			c-5.5,4.8-11,9.6-16.5,14.4c-0.4,0.5-1.2,0.5-1.7,0.1c0,0-0.1-0.1-0.1-0.1c-0.4-0.5-0.4-1.3,0.1-1.7c0,0,0.1-0.1,0.1-0.1
			c0.1-0.1,0.2-0.1,0.2-0.2c3.5-3,7-6.1,10.5-9.1c0.4-0.3,0.8-0.7,1.1-1.1c1.3-1.5,1.2-3.7-0.3-5c-1.2-1.1-3-1.2-4.4-0.3
			c-0.5,0.3-0.9,0.7-1.3,1.1c-7.5,6.6-15.1,13.2-22.6,19.8c-0.8,0.7-1.5,1.4-2.2,2.2c-4.5,5.1-5.9,11.6-2.2,18.2
			C21.9,914.4,22.6,915.5,23.3,916.6z"/>
	</g>
</g>
</svg>
