<?xml version="1.0" encoding="utf-8"?>
<!-- Generator: Adobe Illustrator 24.1.0, SVG Export Plug-In . SVG Version: 6.00 Build 0)  -->
<svg version="1.1" id="Oral_yeast_infection" xmlns="http://www.w3.org/2000/svg" xmlns:xlink="http://www.w3.org/1999/xlink"
	 x="0px" y="0px" viewBox="0 0 110 100" style="enable-background:new 0 0 110 100;" xml:space="preserve">
<style type="text/css">
	.st0{fill:#FFD800;}
	.st1{fill:#E1251A;}
	.st2{fill:#E1251B;}
	.st3{fill:none;stroke:#9164CC;stroke-width:2;stroke-linecap:round;stroke-miterlimit:10;}
	.st4{fill:#6FCFEB;}
</style>
<g id="Group_219" transform="translate(-689 -2291)">
	<circle id="Icon" class="st0" cx="744" cy="2341" r="50"/>
	<g id="Group_153" transform="translate(516.306 2002.955)">
		<path id="Path_162" class="st1" d="M226.2,357.9c-8.9-0.1-17.6-2.7-25.1-7.4c-3.6-2.3-6.8-5.2-9.4-8.7c-2.4-3.2-4.8-6.3-7.1-9.5
			c-0.8-1.1-0.8-1.6,0.2-2.6c5-4.7,10-9.4,15.1-14c4.5-4.3,10.8-6.4,17-5.5c1.4,0.2,2.8,0.7,4.2,1.3c4.2,1.9,9.1,1.9,13.3,0
			c5.2-2.3,10.3-1.7,15.3,0.4c2.2,0.9,4.1,2.2,5.8,3.9c5,4.7,10,9.4,15,14c0.9,0.9,1,1.5,0.4,2.4c-2.7,3.6-5.3,7.2-8.1,10.7
			c-5,6.3-11.6,10.1-19.1,12.5C238,357.2,232.1,358,226.2,357.9z M189.6,334l-0.1,0.2c2,2.6,4,5.3,6.1,7.9c2.7,3.2,6,5.9,9.8,7.7
			c11.3,5.7,24.3,6.9,36.4,3.3c7.2-2.1,13.5-5.5,18.4-11.4c1.9-2.2,3.6-4.6,5.3-7c0.2-0.2,0.3-0.4,0.5-0.7c-0.4,0-0.7,0-1.1,0
			c-2.8-0.3-5.5-0.6-8.3-1c-2.5-0.4-4.9-1.2-7.4-1.5c-4.4-0.8-8.8-0.2-12.8,1.8c-5.9,3-11.8,2.9-17.7,0c-1.2-0.6-2.4-1.1-3.7-1.5
			c-3.7-0.9-7.6-0.8-11.2,0.1C199.1,332.8,194.4,334.3,189.6,334L189.6,334z M267.7,331.2c-0.2-0.2-0.3-0.3-0.4-0.4
			c-4.6-4.3-9.3-8.7-14-13c-1-0.9-2.1-1.7-3.2-2.4c-4.8-2.6-9.7-3.5-14.9-1.2c-4.9,2.2-10.5,2.2-15.3-0.1c-1.6-0.7-3.3-1.2-5.1-1.2
			c-4.9-0.1-9.6,1.7-13.1,5c-4.6,4.3-9.1,8.5-13.7,12.8c-0.1,0.1-0.2,0.2-0.4,0.5c3.4,0.2,6.8-0.1,10.1-0.8c3.3-0.9,6.6-1.5,10-1.9
			c4.2-0.5,8.4,0.3,12.1,2.1c4.9,2.7,10.9,2.7,15.8,0c1.7-0.8,3.4-1.5,5.3-1.9c4.5-0.8,9.1-0.5,13.4,0.8
			C258.7,330.8,263.2,331.3,267.7,331.2L267.7,331.2z"/>
		<path id="Path_163" class="st2" d="M205,331c0,0-6.1,48,22.7,48s22.7-48,22.7-48s-0.9-0.9-4.4-0.9s-6.1,0.9-10.5,2.6
			c-4.8,1.7-10,1.7-14.8,0c-4.4-1.7-5.2-2.6-9.6-2.6S205,331,205,331z"/>
		<path id="Path_164" class="st1" d="M205.2,352.8c-1.4-0.7-2.7-1.4-4.1-2.3c-3.6-2.3-6.8-5.2-9.4-8.7c-2.4-3.2-4.8-6.3-7.1-9.5
			c-0.8-1.1-0.8-1.6,0.2-2.6c5-4.7,10-9.4,15.1-14c4.5-4.3,10.8-6.4,17-5.5c1.4,0.2,2.8,0.7,4.2,1.3c4.2,1.9,9.1,1.9,13.3,0
			c5.2-2.3,10.3-1.7,15.3,0.4c2.2,0.9,4.1,2.2,5.8,3.9c5,4.7,10,9.4,15,14c0.9,0.9,1,1.5,0.4,2.4c-2.7,3.6-5.3,7.2-8.1,10.7
			c-3.4,4.3-7.8,7.7-12.7,10l0.4-3.3c3.7-2,7-4.6,9.6-7.9c1.9-2.2,3.6-4.6,5.3-7c0.2-0.2,0.3-0.4,0.5-0.7c-0.4,0-0.7,0-1.1,0
			c-2.8-0.3-5.5-0.6-8.3-1c-2.5-0.4-4.9-1.2-7.4-1.5c-4.4-0.8-8.8-0.2-12.8,1.8c-5.9,3-11.8,2.9-17.7,0c-1.2-0.6-2.4-1.1-3.7-1.5
			c-3.7-0.9-7.6-0.8-11.2,0.1c-4.7,1-9.3,2.4-14.2,2.1l-0.1,0.2c2,2.6,4,5.3,6.1,7.9c2.5,3.1,5.7,5.6,9.2,7.4L205.2,352.8z
			 M267.7,331.2c-0.2-0.2-0.3-0.3-0.4-0.4c-4.6-4.3-9.3-8.7-14-13c-1-0.9-2.1-1.7-3.2-2.4c-4.8-2.6-9.7-3.5-14.9-1.2
			c-4.9,2.2-10.5,2.2-15.3-0.1c-1.6-0.7-3.3-1.2-5.1-1.2c-4.9-0.1-9.6,1.7-13.1,5c-4.6,4.3-9.1,8.5-13.7,12.8
			c-0.1,0.1-0.2,0.2-0.4,0.5c3.4,0.2,6.8-0.1,10.1-0.8c3.3-0.9,6.6-1.5,10-1.9c4.2-0.5,8.4,0.3,12.1,2.1c4.9,2.7,10.9,2.7,15.8,0
			c1.7-0.8,3.4-1.5,5.3-1.9c4.5-0.8,9.1-0.5,13.4,0.8C258.7,330.8,263.2,331.3,267.7,331.2L267.7,331.2z"/>
		<g id="spore" transform="translate(243.611 330.204)">
			<line id="Line_5" class="st3" x1="7.1" y1="5.9" x2="3.5" y2="1.8"/>
			<line id="Line_6" class="st3" x1="6.5" y1="7.6" x2="2.4" y2="10.6"/>
			<line id="Line_7" class="st3" x1="7.6" y1="7.6" x2="7.6" y2="11.8"/>
			<line id="Line_8" class="st3" x1="8.2" y1="6.5" x2="9.4" y2="2.4"/>
			<line id="Line_9" class="st3" x1="8.8" y1="7.1" x2="12.9" y2="8.8"/>
			<circle id="Ellipse_41" class="st4" cx="7.6" cy="6.5" r="2.9"/>
			<circle id="Ellipse_42" class="st4" cx="3.2" cy="1.5" r="0.9"/>
			<circle id="Ellipse_43" class="st4" cx="9.7" cy="1.5" r="1.5"/>
			<circle id="Ellipse_44" class="st4" cx="1.5" cy="11.2" r="1.5"/>
			<circle id="Ellipse_45" class="st4" cx="7.6" cy="12.3" r="1.2"/>
			<circle id="Ellipse_46" class="st4" cx="13.5" cy="9.1" r="0.9"/>
		</g>
		<g id="spore-2" transform="translate(199.109 351.146)">
			<line id="Line_10" class="st3" x1="7.1" y1="5.9" x2="3.5" y2="1.8"/>
			<line id="Line_11" class="st3" x1="6.5" y1="7.6" x2="2.4" y2="10.6"/>
			<line id="Line_12" class="st3" x1="7.6" y1="7.6" x2="7.6" y2="11.8"/>
			<line id="Line_13" class="st3" x1="8.2" y1="6.5" x2="9.4" y2="2.4"/>
			<line id="Line_14" class="st3" x1="8.8" y1="7.1" x2="12.9" y2="8.8"/>
			<circle id="Ellipse_47" class="st4" cx="7.6" cy="6.5" r="2.9"/>
			<circle id="Ellipse_48" class="st4" cx="3.2" cy="1.5" r="0.9"/>
			<circle id="Ellipse_49" class="st4" cx="9.7" cy="1.5" r="1.5"/>
			<circle id="Ellipse_50" class="st4" cx="1.5" cy="11.2" r="1.5"/>
			<circle id="Ellipse_51" class="st4" cx="7.6" cy="12.3" r="1.2"/>
			<circle id="Ellipse_52" class="st4" cx="13.5" cy="9.1" r="0.9"/>
		</g>
	</g>
</g>
</svg>
