<?xml version="1.0" encoding="utf-8"?>
<!-- Generator: Adobe Illustrator 24.1.0, SVG Export Plug-In . SVG Version: 6.00 Build 0)  -->
<svg version="1.1" id="Muscle_pain" xmlns="http://www.w3.org/2000/svg" xmlns:xlink="http://www.w3.org/1999/xlink" x="0px"
	 y="0px" viewBox="0 0 102 100" style="enable-background:new 0 0 102 100;" xml:space="preserve">
<style type="text/css">
	.st0{fill:#FFD800;}
	.st1{fill:#6FCFEB;}
	.st2{fill:url(#Ellipse_36_1_);}
</style>
<g id="Group_213" transform="translate(-680 -2291)">
	<circle id="Icon" class="st0" cx="731" cy="2341" r="50"/>
	<g id="Group_140" transform="translate(8.493 2162.13)">
		<path id="Path_154" class="st1" d="M703.7,134.2c0,0-16.6,19.5-17.6,28s-0.5,9.6,1.6,11.7s23.5,13.7,26.5,15.7s12.9,8.1,16.5,12.3
			s3.3,10.4,3.3,10.9c0.1,1.4,0.1,2.7,0,4.1c-0.2,0.4-2.2,4.3-2.4,4.9c-0.2,0.4-0.2,0.8,0,1.2c0.2,0.5,3.3,1.9,8.2,0.2
			c0.5-0.1,1-0.4,1.2-0.9s0.4-0.9,0.8-1.3c1.4-1.2,2.2-2.9,2.3-4.7c0.3-2.8,0.5-8.9,1.5-11.3s2.3-7,1.3-8.3s-1.7-1.7-3.9-2
			s-2.9,0.2-4.8-1.1c-3.1-2.5-6-5.2-8.7-8.1c-2.8-3.1-6.2-6.9-6.8-8.4c-0.7-1.8-1.9-3.4-3.3-4.8c-1.5-1.3-6-4.3-9.1-4.6
			c-2.6-0.2-5.2-0.2-7.9,0.1c-0.4,0-0.4-0.3,0.1-0.5s5.9-2.8,9-4.4s9.2-6.9,10.5-8.3c2.1-2.4,4.4-4.8,6.7-7c2.3-1.9,5-3.2,7.9-3.8
			c2.2-0.3,6.3-4.7,7.2-6.3c0.5-1,0.9-2,1.2-3.1L703.7,134.2z"/>
		
			<radialGradient id="Ellipse_36_1_" cx="244.8748" cy="32.8487" r="0.4998" gradientTransform="matrix(17.868 0 0 17.868 -3660.2842 -413.5405)" gradientUnits="userSpaceOnUse">
			<stop  offset="0" style="stop-color:#FF1D25"/>
			<stop  offset="0.154" style="stop-color:#FF1D25;stop-opacity:0.988"/>
			<stop  offset="0.283" style="stop-color:#FF1D25;stop-opacity:0.945"/>
			<stop  offset="0.403" style="stop-color:#FF1D25;stop-opacity:0.878"/>
			<stop  offset="0.519" style="stop-color:#FF1D25;stop-opacity:0.78"/>
			<stop  offset="0.63" style="stop-color:#FF1D25;stop-opacity:0.655"/>
			<stop  offset="0.739" style="stop-color:#FF1D25;stop-opacity:0.502"/>
			<stop  offset="0.845" style="stop-color:#FF1D25;stop-opacity:0.322"/>
			<stop  offset="0.947" style="stop-color:#FF1D25;stop-opacity:0.118"/>
			<stop  offset="1" style="stop-color:#FF1D25;stop-opacity:0"/>
		</radialGradient>
		<circle id="Ellipse_36" class="st2" cx="715.1" cy="173.4" r="8.9"/>
	</g>
</g>
</svg>
