<?xml version="1.0" encoding="utf-8"?>
<!-- Generator: Adobe Illustrator 24.1.0, SVG Export Plug-In . SVG Version: 6.00 Build 0)  -->
<svg version="1.1" id="Fever" xmlns="http://www.w3.org/2000/svg" xmlns:xlink="http://www.w3.org/1999/xlink" x="0px" y="0px"
	 viewBox="0 0 100 100" style="enable-background:new 0 0 100 100;" xml:space="preserve">
<style type="text/css">
	.st0{fill:#FFD800;}
	.st1{fill:#6FCFEB;}
	.st2{fill:#6FCEEA;}
	.st3{stroke:#E1251B;stroke-width:2.5;}
	.st4{fill:#E1251B;}
</style>
<g id="Group_206" transform="translate(-694 -2291)">
	<circle id="Icon" class="st0" cx="744" cy="2341" r="50"/>
	<g id="Group_70" transform="translate(662.167 2156.647)">
		<path id="Path_104" class="st1" d="M80.5,150c-3.9,0-7.1,3.2-7.1,7.1v42.6l-0.3,0.2c-7,4.9-8.7,14.5-3.8,21.5
			c4.9,7,14.5,8.7,21.5,3.8s8.7-14.5,3.8-21.5c-1.2-1.7-2.7-3.2-4.5-4.3l-0.4-0.2v-42.1c0-3.9-3.2-7.1-7.1-7.1H80.5z"/>
		<g id="thermometer">
			<g id="Group_62">
				<path id="Path_105" class="st2" d="M81.9,229.6c-9.4,0-17.1-7.6-17.1-17.1c0-5.4,2.6-10.5,6.9-13.7v-51.7c0-4.8,3.9-8.7,8.7-8.7
					h2.1c4.8,0,8.7,3.9,8.7,8.7v51.2c7.9,5.2,10.1,15.8,4.9,23.7C93,226.8,87.7,229.6,81.9,229.6z M80.5,140c-3.9,0-7.1,3.2-7.1,7.1
					v52.6l-0.3,0.2c-7,4.9-8.7,14.5-3.8,21.5c4.9,7,14.5,8.7,21.5,3.8s8.7-14.5,3.8-21.5c-1.2-1.7-2.7-3.2-4.5-4.3l-0.4-0.2v-52.1
					c0-3.9-3.2-7.1-7.1-7.1H80.5z"/>
			</g>
			<g id="Group_63">
				<path id="Path_106" class="st3" d="M81.9,229.6c-9.4,0-17.1-7.6-17.1-17.1c0-5.4,2.6-10.5,6.9-13.7v-51.7c0-4.8,3.9-8.7,8.7-8.7
					h2.1c4.8,0,8.7,3.9,8.7,8.7v51.2c7.9,5.2,10.1,15.8,4.9,23.7C93,226.8,87.7,229.6,81.9,229.6z M80.5,140c-3.9,0-7.1,3.2-7.1,7.1
					v52.6l-0.3,0.2c-7,4.9-8.7,14.5-3.8,21.5c4.9,7,14.5,8.7,21.5,3.8s8.7-14.5,3.8-21.5c-1.2-1.7-2.7-3.2-4.5-4.3l-0.4-0.2v-52.1
					c0-3.9-3.2-7.1-7.1-7.1H80.5z"/>
			</g>
		</g>
		<g id="Group_65">
			<g id="Group_64">
				<path id="Path_107" class="st4" d="M80.2,191.5h-7.5c-0.5,0-0.8-0.7-0.8-1.5s0.4-1.5,0.8-1.5h7.5c0.5,0,0.8,0.7,0.8,1.5
					S80.7,191.5,80.2,191.5z"/>
			</g>
		</g>
		<g id="Group_67">
			<g id="Group_66">
				<path id="Path_108" class="st4" d="M80.2,184.2h-7.5c-0.5,0-0.8-0.7-0.8-1.5s0.4-1.5,0.8-1.5h7.5c0.5,0,0.8,0.7,0.8,1.5
					S80.7,184.2,80.2,184.2z"/>
			</g>
		</g>
		<g id="Group_69">
			<g id="Group_68">
				<path id="Path_109" class="st4" d="M80.2,176.8h-7.5c-0.5,0-0.8-0.7-0.8-1.5s0.4-1.5,0.8-1.5h7.5c0.5,0,0.8,0.7,0.8,1.5
					S80.7,176.8,80.2,176.8z"/>
			</g>
		</g>
	</g>
</g>
</svg>
