<?xml version="1.0" encoding="utf-8"?>
<!-- Generator: Adobe Illustrator 24.1.0, SVG Export Plug-In . SVG Version: 6.00 Build 0)  -->
<svg version="1.1" id="Layer_1" xmlns="http://www.w3.org/2000/svg" xmlns:xlink="http://www.w3.org/1999/xlink" x="0px" y="0px"
	 viewBox="0 0 104 100" style="enable-background:new 0 0 104 100;" xml:space="preserve">
<style type="text/css">
	.st0{fill:#FFD800;}
	.st1{fill:#E1251A;}
	.st2{fill:#FF5100;}
	.st3{fill:none;stroke:#9164CC;stroke-width:2;stroke-linecap:round;stroke-miterlimit:10;}
	.st4{fill:#6FCFEB;}
	.st5{fill:#2BAA02;}
</style>
<g id="Mouth_and_Skin_Problems" transform="translate(1)">
	<g id="Group_223" transform="translate(-662 -2291)">
		<circle id="Icon" class="st0" cx="713" cy="2341" r="50"/>
		<g id="Group_158" transform="translate(341.74 2008.19)">
			<path id="Path_168" class="st1" d="M337.3,334.1c4.5,0.3,8.8-1.1,13.2-2c3.4-0.9,7-0.9,10.4-0.1c1.2,0.3,2.4,0.8,3.5,1.4
				c5.5,2.7,11,2.9,16.4,0c3.7-1.8,7.8-2.4,11.9-1.7c2.3,0.3,4.5,1,6.8,1.4c2.5,0.4,5.1,0.6,7.7,0.9c0.3,0,0.7,0,1,0
				c-0.2,0.3-0.3,0.5-0.5,0.7c-1.6,2.2-3.2,4.4-5,6.5c-4.5,5.4-10.4,8.6-17.1,10.5c-11.2,3.4-23.3,2.3-33.7-3
				c-3.5-1.7-6.6-4.2-9.1-7.2c-2-2.4-3.8-4.9-5.7-7.3L337.3,334.1z"/>
			<path id="Path_169" class="st1" d="M409.8,331.5c-4.2,0.2-8.4-0.3-12.4-1.5s-8.3-1.4-12.4-0.7c-1.7,0.4-3.3,0.9-4.9,1.7
				c-4.6,2.5-10.1,2.5-14.7,0c-3.5-1.7-7.4-2.4-11.2-2c-3.1,0.3-6.2,0.9-9.3,1.8c-3.1,0.7-6.2,0.9-9.3,0.7c0.2-0.2,0.3-0.3,0.4-0.4
				c4.2-3.9,8.5-7.9,12.7-11.8c3.3-3.1,7.6-4.8,12.1-4.7c1.6,0,3.2,0.4,4.7,1.1c4.5,2.1,9.7,2.1,14.2,0.1c4.8-2.1,9.4-1.3,13.8,1.1
				c1.1,0.6,2.1,1.3,3,2.2c4.3,4,8.6,8,12.9,12C409.6,331.2,409.6,331.3,409.8,331.5z"/>
			<g id="Group_156" transform="translate(426.083 312.482)">
				<circle id="Ellipse_83" class="st2" cx="-29.3" cy="10.4" r="1.4"/>
				<circle id="Ellipse_84" class="st2" cx="-15.5" cy="4.8" r="1.4"/>
				<circle id="Ellipse_85" class="st2" cx="-18.2" cy="11.2" r="4.1"/>
				<circle id="Ellipse_86" class="st2" cx="-26.1" cy="17.1" r="3"/>
				<circle id="Ellipse_87" class="st2" cx="-27.5" cy="3.5" r="3.5"/>
			</g>
			<g id="spore" transform="translate(362.157 320.358)">
				<line id="Line_35" class="st3" x1="-24.4" y1="5.5" x2="-27.7" y2="1.6"/>
				<line id="Line_36" class="st3" x1="-25" y1="7.1" x2="-28.8" y2="9.9"/>
				<line id="Line_37" class="st3" x1="-23.9" y1="7.1" x2="-23.9" y2="11"/>
				<line id="Line_38" class="st3" x1="-23.3" y1="6" x2="-22.2" y2="2.2"/>
				<line id="Line_39" class="st3" x1="-22.8" y1="6.6" x2="-18.9" y2="8.2"/>
				<circle id="Ellipse_88" class="st4" cx="-23.9" cy="6" r="2.7"/>
				<circle id="Ellipse_89" class="st4" cx="-28" cy="1.4" r="0.8"/>
				<circle id="Ellipse_90" class="st4" cx="-21.9" cy="1.4" r="1.4"/>
				<circle id="Ellipse_91" class="st5" cx="-29.6" cy="10.4" r="1.4"/>
				<circle id="Ellipse_92" class="st4" cx="-23.9" cy="11.5" r="1.1"/>
				<circle id="Ellipse_93" class="st4" cx="-18.4" cy="8.5" r="0.8"/>
			</g>
			<g id="spore-2" transform="translate(428.188 329.326)">
				<line id="Line_40" class="st3" x1="-24.4" y1="5.5" x2="-27.7" y2="1.6"/>
				<line id="Line_41" class="st3" x1="-25" y1="7.1" x2="-28.8" y2="9.9"/>
				<line id="Line_42" class="st3" x1="-23.9" y1="7.1" x2="-23.9" y2="11"/>
				<line id="Line_43" class="st3" x1="-23.3" y1="6" x2="-22.2" y2="2.2"/>
				<line id="Line_44" class="st3" x1="-22.8" y1="6.6" x2="-18.9" y2="8.2"/>
				<circle id="Ellipse_94" class="st4" cx="-23.9" cy="6" r="2.7"/>
				<circle id="Ellipse_95" class="st4" cx="-28" cy="1.4" r="0.8"/>
				<circle id="Ellipse_96" class="st4" cx="-21.9" cy="1.4" r="1.4"/>
				<circle id="Ellipse_97" class="st4" cx="-29.6" cy="10.4" r="1.4"/>
				<circle id="Ellipse_98" class="st4" cx="-23.9" cy="11.5" r="1.1"/>
				<circle id="Ellipse_99" class="st4" cx="-18.4" cy="8.5" r="0.8"/>
			</g>
			<g id="Group_157" transform="translate(361.5 328.071)">
				<circle id="Ellipse_100" class="st2" cx="-29.3" cy="10.4" r="1.4"/>
				<circle id="Ellipse_101" class="st2" cx="-15.5" cy="4.8" r="1.4"/>
				<circle id="Ellipse_102" class="st2" cx="-18.2" cy="11.2" r="4.1"/>
				<circle id="Ellipse_103" class="st2" cx="-26.1" cy="17.1" r="3"/>
				<circle id="Ellipse_104" class="st2" cx="-27.5" cy="3.5" r="3.5"/>
			</g>
		</g>
	</g>
</g>
</svg>
