<?xml version="1.0" encoding="utf-8"?>
<!-- Generator: Adobe Illustrator 24.1.0, SVG Export Plug-In . SVG Version: 6.00 Build 0)  -->
<svg version="1.1" id="Pneumonia" xmlns="http://www.w3.org/2000/svg" xmlns:xlink="http://www.w3.org/1999/xlink" x="0px" y="0px"
	 viewBox="0 0 100 100" style="enable-background:new 0 0 100 100;" xml:space="preserve">
<style type="text/css">
	.st0{fill:#FFD800;}
	.st1{fill:#E1251B;}
	.st2{fill:none;stroke:#9164CC;stroke-width:2;stroke-linecap:round;stroke-miterlimit:10;}
	.st3{fill:#6FCFEB;}
</style>
<g id="Group_221" transform="translate(-685 -2291)">
	<circle id="Icon" class="st0" cx="735" cy="2341" r="50"/>
	<g id="Group_155" transform="translate(672.626 2006.622)">
		<path id="Path_165" class="st1" d="M57.7,310c0.3-1.1,0.5-2.3,0.6-3.4c0.1-4.3,0-8.6,0.1-12.9c0-0.9-0.3-2.3,1.1-2.4
			c1.7-0.1,1.2,1.4,1.2,2.4c0,4.5,0,9-0.1,13.4c-0.2,2-0.9,4-2.1,5.7c-0.6,1-0.4,2.5-0.3,3.9c2.9-1.6,5.7-2,8.5-0.2
			c0.4-1.7,0.6-3-0.5-4.5c-1-1.5-1.6-3.1-1.7-4.9c-0.2-4.7-0.1-9.4-0.2-14.1c0-0.8,0.1-1.6,1.1-1.7c1.1,0,1.2,0.8,1.2,1.7
			c0,4.6,0,9.1,0,13.7c0.1,1.1,0.3,2.1,0.6,3.1h0.4c0.2-0.8,0.5-1.7,0.7-2.5c0.6-2.5,1.9-4.8,3.7-6.7c2.1-2.2,5.4-2.7,8-1.2
			c3.1,1.6,5.3,4.2,7.3,7c3.5,5.3,6.4,11,8.5,16.9c3.3,8.8,5.5,17.9,6.6,27.3c0.2,1.7,0.3,3.4,0.3,5.1c0.1,3.3-2.4,6.1-5.7,6.2
			c-0.2,0-0.5,0-0.7,0c-2.8,0-5.6-1-7.9-2.7c-3.7-2.8-8.2-4.4-12.9-4.6c-3.6,0.1-6.7-2.4-7.5-5.9c-1.3-4.5-2-9.1-2-13.8
			c-0.1-4.9,0.1-9.8,0.2-14.7c0-0.6-0.3-1.2-0.8-1.6c-2-1.6-5-1.3-6.7,0.7c-0.1,0.1-0.1,0.2-0.2,0.3c-0.2,0.3-0.2,0.6-0.2,0.9
			c0.1,3.7,0.4,7.4,0.4,11.1c0,5.7-0.6,11.4-2,17c-1.1,4.1-3.7,6.1-7.9,6.4c-2.2,0.2-4.4,0.6-6.6,1.2c-1.7,0.6-3.2,1.4-4.6,2.5
			c-2.4,1.7-5.2,2.9-8.1,3.5c-4.3,0.7-7.6-2-7.6-6.4c0.2-6.2,1.1-12.3,2.7-18.3c2.1-9.1,5.4-17.9,9.8-26.1c1.8-3.6,4.2-6.8,7.2-9.5
			c1.1-1,2.4-1.8,3.7-2.4c3-1.4,6.5-0.1,8.7,3.1c0.7,1.2,1.4,2.4,1.8,3.7c0.5,1.2,0.8,2.5,1.2,3.8L57.7,310z M100.9,355
			c-0.6-4.2-1.1-8.4-1.8-12.6c-1.2-6.2-2.9-12.2-5.1-18.1c-2.3-6.2-4.9-12.2-9-17.5c-1.6-2-3.5-3.8-5.6-5.2c-2-1.4-3.9-0.9-5.7,0.9
			c-2.5,2.4-3.1,5.6-3.7,8.8c-1.6,8.5-2,17.2-1.3,25.9c0.5,3.9,1.1,7.8,2.1,11.6c0.4,2,2.1,3.4,4.1,3.4c0.6,0.1,1.2,0.2,1.8,0.2
			c4.5,0.3,8.8,1.8,12.5,4.4c1.9,1.3,4.1,2.3,6.4,2.7C98.9,360.3,100.7,358.4,100.9,355L100.9,355z M56.6,329.8c0-0.2,0-0.3,0-0.5
			c-0.6-6.1-0.7-11.8-1.5-18c-0.2-3-1.3-5.9-3.2-8.3c-1.9-2.2-4-2.6-6.5-1.1c-0.8,0.4-1.5,1-2.1,1.7c-2.1,2.4-4,4.9-5.8,7.6
			c-5.1,8.7-8.6,18.2-10.6,28.1c-1.1,5.4-1.8,10.8-2.3,16.2c-0.3,3,1.7,4.8,4.8,4.3c1.6-0.3,3.1-0.8,4.6-1.5c1.4-0.8,2.7-1.6,4-2.5
			c3.1-1.9,6.7-2.9,10.3-3.1c4.6-0.4,5.8-1.3,6.9-5.8C56.3,341.3,56.9,335.6,56.6,329.8z"/>
		<path id="Path_166" class="st1" d="M81,333.6c-1,0.5-1.9,0.8-2.8,1.3c-1,0.5-1.4,1.6-1,2.7c0.1,0.4,0.3,0.6,0.4,0.9
			s0.1,0.6,0.1,0.9c-0.1,0.5-0.5,0.8-1,0.7c0,0,0,0-0.1,0c-0.4-0.1-0.7-0.2-0.8-0.4c-0.4-1.1-0.8-2.3-1.1-3.4c0-0.1-0.1-0.3,0-0.5
			s0.1-0.6,0.2-0.6c-0.8-0.1-1.6-0.3-2.3-0.6c-0.1-0.1-0.2-0.2-0.3-0.3c-0.4-0.5-0.2-1.2,0.3-1.6c0.1-0.1,0.2-0.1,0.4-0.2
			c0.1,0,0.1,0,0.2,0c0.6,0,1.2,0.4,1.8,0.3c1.1,0,2.2-0.1,3.3-0.5c2-1,2.2-1.5,1.5-3.6s-1.5-4.2-2.3-6.3c-0.6-1.7-1.9-3-3.5-3.8
			c-0.1-0.1-0.2-0.2-0.3-0.3c-0.3-0.6-0.1-1.3,0.5-1.6c0.1-0.1,0.2-0.1,0.3-0.1c0.1,0,0.2,0,0.3,0c1,0.5,2,1.1,2.8,1.9
			c1.3,1.5,3.4,2,5.2,1.1c0.4-0.1,0.8-0.2,1.3-0.2s0.9,0.1,1.2,0.5c0.5,0.7-0.1,1.4-0.8,1.6c-1.3,0.4-2.6,0.7-4,1.1
			c0.3,3.7,1.4,5,5,5.7c1.6,0.3,3.1,0.8,4,2.3c0.1,0.2,0.1,0.4,0.1,0.6c0,0.6-0.5,1.1-1.1,1.1h-0.1c-0.2,0-0.4-0.1-0.6-0.2
			c-1.3-1.5-3-1.6-4.9-1.8c0,0.3,0,0.7,0.1,1c0.9,2.7,1.7,5.5,2.9,8.2c0.6,1.3,1.9,2.2,2.8,3.3c0.4,0.5,0.8,1.3,0.6,1.7
			c-0.4,0.9-1.2,0.6-1.9,0.1c-2.1-1.5-3.7-3.5-4.5-5.9C82.1,337,81.6,335.3,81,333.6z"/>
		<path id="Path_167" class="st1" d="M42.5,330.6c-2.1,0.1-3.8,0.2-5.1,1.8c-0.2,0.2-0.5,0.3-0.8,0.2c-0.5,0-0.9-0.3-1-0.8
			c-0.1-0.3-0.1-0.6,0-0.8c0.9-1.7,2.8-2.1,4.5-2.6c0.4-0.1,0.9-0.2,1.3-0.3c1.3-0.2,2.3-1.3,2.5-2.6c0.3-0.9,0.6-1.8,0.9-2.7
			c-1.5-0.4-2.8-0.7-4.1-1.1c-0.8-0.2-1.2-0.8-0.9-1.6c0.4-0.9,1.1-0.8,1.8-0.5c2.4,1.2,4.4,0.9,6.3-1.2c0.7-0.7,1.6-1.3,2.5-1.6
			c0.2,0,0.4,0,0.6,0.1c0.5,0.2,0.8,0.8,0.6,1.4c-0.1,0.2-0.2,0.4-0.4,0.5c-2.4,1.2-3.6,3.2-4.4,5.6c-0.5,1.6-1,3.2-1.5,4.8
			c-0.5,1.8,0,3,1.8,3.5c1.4,0.3,2.9,0.3,4.3,0.1c0.8-0.1,1.6-0.4,1.9,0.6c0.3,1.1-0.5,1.4-1.3,1.6c-0.6,0.1-1.2,0.2-1.5,0.3
			c-0.3,1.5-0.6,2.9-1,4.3c-0.1,0.7-0.8,1.1-1.5,1c-0.2,0-0.3-0.1-0.5-0.2c-0.9-0.6-0.4-1.3,0-2c1-1.6,0.5-2.9-1.3-3.6
			c-0.7-0.3-1.3-0.7-2.2-1.1c-0.3,0.9-0.6,1.8-0.8,2.7c-0.7,2.7-2.1,5.2-4,7.3c-0.5,0.5-1.2,1-1.9,1.3c-0.5,0.2-1.1,0.1-1.4-0.4
			c-0.2-0.5-0.1-1,0.3-1.4C40.6,340.1,41.1,335.3,42.5,330.6z"/>
		<g id="spore" transform="translate(96.674 342.877)">
			<line id="Line_15" class="st2" x1="-3" y1="4.8" x2="-0.2" y2="1.4"/>
			<line id="Line_16" class="st2" x1="-2.6" y1="6.2" x2="0.8" y2="8.6"/>
			<line id="Line_17" class="st2" x1="-3.5" y1="6.2" x2="-3.5" y2="9.6"/>
			<line id="Line_18" class="st2" x1="-4" y1="5.3" x2="-4.9" y2="1.9"/>
			<line id="Line_19" class="st2" x1="-4.5" y1="5.7" x2="-7.8" y2="7.2"/>
			<circle id="Ellipse_59" class="st3" cx="-3.5" cy="5.3" r="2.4"/>
			<circle id="Ellipse_60" class="st3" cx="0.1" cy="1.2" r="0.7"/>
			<circle id="Ellipse_61" class="st3" cx="-5.2" cy="1.2" r="1.2"/>
			<circle id="Ellipse_62" class="st3" cx="1.5" cy="9.1" r="1.2"/>
			<circle id="Ellipse_63" class="st3" cx="-3.5" cy="10" r="1"/>
			<circle id="Ellipse_64" class="st3" cx="-8.3" cy="7.4" r="0.7"/>
		</g>
		<g id="spore-2" transform="translate(40.629 303.149)">
			<line id="Line_20" class="st2" x1="-3" y1="4.8" x2="-0.2" y2="1.4"/>
			<line id="Line_21" class="st2" x1="-2.6" y1="6.2" x2="0.8" y2="8.6"/>
			<line id="Line_22" class="st2" x1="-3.5" y1="6.2" x2="-3.5" y2="9.6"/>
			<line id="Line_23" class="st2" x1="-4" y1="5.3" x2="-4.9" y2="1.9"/>
			<line id="Line_24" class="st2" x1="-4.5" y1="5.7" x2="-7.8" y2="7.2"/>
			<circle id="Ellipse_65" class="st3" cx="-3.5" cy="5.3" r="2.4"/>
			<circle id="Ellipse_66" class="st3" cx="0.1" cy="1.2" r="0.7"/>
			<circle id="Ellipse_67" class="st3" cx="-5.2" cy="1.2" r="1.2"/>
			<circle id="Ellipse_68" class="st3" cx="1.5" cy="9.1" r="1.2"/>
			<circle id="Ellipse_69" class="st3" cx="-3.5" cy="10" r="1"/>
			<circle id="Ellipse_70" class="st3" cx="-8.3" cy="7.4" r="0.7"/>
		</g>
		<g id="spore-3" transform="translate(46.305 343.586)">
			<line id="Line_25" class="st2" x1="-3" y1="6.2" x2="-0.2" y2="9.6"/>
			<line id="Line_26" class="st2" x1="-2.6" y1="4.8" x2="0.8" y2="2.4"/>
			<line id="Line_27" class="st2" x1="-3.5" y1="4.8" x2="-3.5" y2="1.4"/>
			<line id="Line_28" class="st2" x1="-4" y1="5.7" x2="-4.9" y2="9.1"/>
			<line id="Line_29" class="st2" x1="-4.5" y1="5.3" x2="-7.8" y2="3.8"/>
			<circle id="Ellipse_71" class="st3" cx="-3.5" cy="5.7" r="2.4"/>
			<circle id="Ellipse_72" class="st3" cx="0.1" cy="9.8" r="0.7"/>
			<circle id="Ellipse_73" class="st3" cx="-5.2" cy="9.8" r="1.2"/>
			<circle id="Ellipse_74" class="st3" cx="1.5" cy="1.9" r="1.2"/>
			<circle id="Ellipse_75" class="st3" cx="-3.5" cy="1" r="1"/>
			<circle id="Ellipse_76" class="st3" cx="-8.3" cy="3.6" r="0.7"/>
		</g>
		<g id="spore-4" transform="translate(79.648 313.79)">
			<line id="Line_30" class="st2" x1="-3.3" y1="4.8" x2="-6.1" y2="1.4"/>
			<line id="Line_31" class="st2" x1="-3.7" y1="6.2" x2="-7.1" y2="8.6"/>
			<line id="Line_32" class="st2" x1="-2.8" y1="6.2" x2="-2.8" y2="9.6"/>
			<line id="Line_33" class="st2" x1="-2.3" y1="5.3" x2="-1.4" y2="1.9"/>
			<line id="Line_34" class="st2" x1="-1.8" y1="5.7" x2="1.5" y2="7.2"/>
			<circle id="Ellipse_77" class="st3" cx="-2.8" cy="5.3" r="2.4"/>
			<circle id="Ellipse_78" class="st3" cx="-6.4" cy="1.2" r="0.7"/>
			<circle id="Ellipse_79" class="st3" cx="-1.1" cy="1.2" r="1.2"/>
			<circle id="Ellipse_80" class="st3" cx="-7.8" cy="9.1" r="1.2"/>
			<circle id="Ellipse_81" class="st3" cx="-2.8" cy="10" r="1"/>
			<circle id="Ellipse_82" class="st3" cx="2" cy="7.4" r="0.7"/>
		</g>
	</g>
</g>
</svg>
