<?xml version="1.0" encoding="utf-8"?>
<!-- Generator: Adobe Illustrator 24.1.0, SVG Export Plug-In . SVG Version: 6.00 Build 0)  -->
<svg version="1.1" id="Joint_aches" xmlns="http://www.w3.org/2000/svg" xmlns:xlink="http://www.w3.org/1999/xlink" x="0px"
	 y="0px" viewBox="0 0 98 100" style="enable-background:new 0 0 98 100;" xml:space="preserve">
<style type="text/css">
	.st0{fill:#FFD800;}
	.st1{fill:#E1251B;}
</style>
<g id="Group_212" transform="translate(-684 -2291)">
	<circle id="Icon" class="st0" cx="733" cy="2341" r="50"/>
	<g id="Group_138" transform="translate(393.729 1864.192)">
		<path id="Path_146" class="st1" d="M349.5,456.6c0.7,0.4,1.5,0.3,2-0.3c3.4-3.4,6.9-7,10.4-10.5c2.5-2.6,5-5.2,7.5-7.9
			c0.8-0.8,1.6-1.3,2.6-0.5s0.7,1.8-0.1,2.6c-6.4,6.6-12.9,13.1-19.3,19.6c-0.5,0.5-1,0.9-1.6,1.2c-0.7,0.6-1.7,0.5-2.3-0.2
			c-0.1-0.1-0.1-0.1-0.2-0.2c-1.6-2.5-4.8-3.4-7.5-2.3c-2.8,1.4-4.4,4.3-4.2,7.4c0.2,3,2.3,5.5,5.3,6.1c2.1,0.5,3.7,2.1,4.2,4.1
			c1.1,3.5,3.4,5.4,6.5,5.4c5.3,0,8.3-5.2,5.8-10.1c-1.5-2.9-1.3-3.9,1-6.2c5.9-5.9,11.9-11.8,17.8-17.6c0.4-0.4,0.7-0.9,1.1-1
			c0.2,0,0.3-0.1,0.5-0.1c0.9-0.1,1.8,0.5,1.9,1.4c0,0.2,0,0.3,0,0.5c0,0.1-0.1,0.3-0.2,0.4c-1.4,1.7-3.1,3.2-4.7,4.8
			c-4.7,4.6-9.3,9.3-14,13.9c-0.9,0.6-1.1,1.8-0.5,2.7l0,0c2.3,4,1.5,9.1-2,12.2c-3.9,3.7-13.2,4.2-16.1-4c-0.4-1.7-1.7-3-3.4-3.5
			c-5.2-1.7-7.8-7.2-6.2-12.7c1.5-5.2,6.6-8.5,11.5-7.1C346.9,455.2,348.2,455.8,349.5,456.6z"/>
		<path id="Path_147" class="st1" d="M328.7,498.3c-3.2,3.1-6.5,6.2-9.7,9.3c-3.2,3.1-6.3,6.3-9.4,9.5c-0.2,0.2-0.3,0.3-0.5,0.5
			c-0.6,0.7-1.6,0.9-2.3,0.3c-0.1-0.1-0.1-0.1-0.2-0.2c-0.8-0.8-0.6-1.7,0.2-2.5c2.4-2.4,4.7-4.9,7.2-7.2c3.7-3.7,7.5-7.3,11.3-10.9
			c0.4-0.4,0.9-0.8,1.4-1.2c2.2-1.7,2.9-2.3,4.9,0.2c1.7,2,4.7,2.6,7,1.3c2.8-1.6,4.3-4.7,3.8-7.9c-0.4-2.9-2.8-5.2-5.7-5.5
			c-2.2-0.3-2.8-0.8-3.3-3.1c-0.2-1-0.5-2-0.9-3c-1.5-3.1-5.2-4.5-8.3-3.1c-3.5,1.4-4.5,4-3.8,7.9c0,0.1,0,0.2,0.1,0.3
			c2.4,3.9,0.4,6.5-2.5,9.1c-5.5,4.9-10.7,10.1-16,15.2c-0.4,0.4-0.9,0.8-1.3,1.3c-0.8,0.7-1.7,1-2.5,0.1c-0.6-0.6-0.7-1.6,0-2.3
			c0.1-0.1,0.2-0.2,0.3-0.2c2-1.9,3.9-3.8,5.9-5.7c4.3-4.1,8.5-8.2,12.8-12.2c1-0.7,1.3-2,0.6-3l0,0c-1.9-3.9-1.2-8.5,1.8-11.6
			c4.2-4.1,13.2-4.1,16.1,3.2c0.9,2.1,1.3,4,4.1,4.7c3.9,1,5.6,4.4,5.9,8.3c0.4,3.8-1.2,7.4-4.3,9.6c-2.7,2.1-6.4,2.5-9.5,0.9
			C330.8,499.8,329.7,499.1,328.7,498.3z"/>
		<path id="Path_148" class="st1" d="M321.9,462.3c-0.5,0-1-0.2-1.2-0.6l-6.3-8.4c-0.5-0.7-0.4-1.7,0.2-2.2c0.7-0.5,1.7-0.4,2.2,0.2
			c0,0,0,0,0.1,0.1l6.3,8.4c0.5,0.7,0.4,1.7-0.3,2.2C322.6,462.2,322.3,462.3,321.9,462.3L321.9,462.3z"/>
		<path id="Path_149" class="st1" d="M327.9,460.8c-0.1,0-0.2,0-0.3,0c-0.8-0.1-1.4-0.9-1.3-1.8l0,0l1.7-10.4c0.2-0.8,1-1.4,1.8-1.3
			s1.4,0.9,1.3,1.8l-1.7,10.4C329.3,460.2,328.7,460.8,327.9,460.8z"/>
		<path id="Path_150" class="st1" d="M320.2,468.4L320.2,468.4l-10.6-0.5c-0.9,0-1.5-0.8-1.5-1.6s0.8-1.5,1.6-1.5l10.5,0.5
			c0.9,0,1.5,0.7,1.5,1.6C321.8,467.7,321.1,468.4,320.2,468.4L320.2,468.4z"/>
		<path id="Path_151" class="st1" d="M363.3,504.1c-0.4,0-0.8-0.2-1.1-0.5l-7.2-7.7c-0.6-0.6-0.6-1.6,0.1-2.2
			c0.6-0.6,1.6-0.6,2.2,0.1l7.2,7.7c0.6,0.6,0.6,1.6-0.1,2.2C364,504,363.7,504.1,363.3,504.1L363.3,504.1z"/>
		<path id="Path_152" class="st1" d="M369.2,490.9L369.2,490.9l-10.6-0.1c-0.9,0-1.6-0.7-1.6-1.6s0.7-1.6,1.6-1.6l0,0l10.5,0.1
			c0.9,0,1.5,0.7,1.5,1.6C370.7,490.2,370,490.9,369.2,490.9z"/>
		<path id="Path_153" class="st1" d="M348.5,507.5c-0.1,0-0.1,0-0.2,0c-0.9-0.1-1.5-0.9-1.4-1.7l1.3-10.5c0.1-0.9,0.9-1.5,1.8-1.3
			c0.8,0.1,1.4,0.9,1.3,1.7l-1.3,10.5C350,506.9,349.3,507.5,348.5,507.5z"/>
	</g>
</g>
</svg>
