<?xml version="1.0" encoding="utf-8"?>
<!-- Generator: Adobe Illustrator 24.1.0, SVG Export Plug-In . SVG Version: 6.00 Build 0)  -->
<svg version="1.1" id="Fatigue" xmlns="http://www.w3.org/2000/svg" xmlns:xlink="http://www.w3.org/1999/xlink" x="0px" y="0px"
	 viewBox="0 0 100 103" style="enable-background:new 0 0 100 103;" xml:space="preserve">
<style type="text/css">
	.st0{fill:#FFD800;}
	.st1{fill:#6FCFEB;}
	.st2{fill:#E1251A;}
	.st3{fill:#E1251B;}
	.st4{fill:#9164CC;}
</style>
<g id="Group_216" transform="translate(-694 -2291)">
	<circle id="Icon" class="st0" cx="744" cy="2341" r="50"/>
	<g id="Group_152" transform="translate(79.625 1857.625)">
		<g id="Group_145" transform="translate(619.5 438.5)">
			<circle id="Ellipse_37" class="st1" cx="44.9" cy="44.9" r="45"/>
		</g>
		<g id="Group_146" transform="translate(643.119 496.759)">
			<path id="Path_159" class="st2" d="M40.9,10.7c0,3.8-9.2,3.1-20.5,3.1S0,14.5,0,10.7S9.2,0,20.5,0S40.9,6.9,40.9,10.7z"/>
		</g>
		<g id="Group_147" transform="translate(632.734 473.777)">
			<path id="Path_160" class="st3" d="M12.6,13.5C3.3,13.5,0.3,6.9,0,3.4C-0.2,1.7,1.1,0.2,2.8,0s3.3,1.1,3.4,2.8
				c0.1,1,1,4.4,6.3,4.4c6,0,7.2-4.3,7.3-4.8c0.4-1.7,2.1-2.7,3.8-2.3c1.7,0.4,2.7,2,2.4,3.7C25.3,7.2,21.6,13.5,12.6,13.5z"/>
		</g>
		<g id="Group_148" transform="translate(668.634 472.517)">
			<path id="Path_161" class="st3" d="M12.6,13.5C3.3,13.5,0.3,6.9,0,3.4C-0.1,1.7,1.1,0.2,2.8,0s3.3,1.1,3.4,2.8
				c0.1,1,1,4.4,6.3,4.4c6.2,0,7.3-4.6,7.3-4.8c0.4-1.7,2-2.8,3.7-2.4s2.8,2,2.4,3.7l0,0C25.3,7.2,21.6,13.5,12.6,13.5z"/>
		</g>
		<g id="Group_149" transform="translate(683.112 492.035)">
			<circle id="Ellipse_38" class="st4" cx="5.2" cy="5.2" r="5.2"/>
		</g>
		<g id="Group_150" transform="translate(696.654 485.422)">
			<circle id="Ellipse_39" class="st4" cx="2.8" cy="2.8" r="2.8"/>
		</g>
		<g id="Group_151" transform="translate(684.372 471.881)">
			<circle id="Ellipse_40" class="st4" cx="6.8" cy="6.8" r="6.8"/>
		</g>
	</g>
</g>
</svg>
