<?xml version="1.0" encoding="utf-8"?>
<!-- Generator: Adobe Illustrator 24.1.0, SVG Export Plug-In . SVG Version: 6.00 Build 0)  -->
<svg version="1.1" id="Night_sweats" xmlns="http://www.w3.org/2000/svg" xmlns:xlink="http://www.w3.org/1999/xlink" x="0px"
	 y="0px" viewBox="0 0 100 100" style="enable-background:new 0 0 100 100;" xml:space="preserve">
<style type="text/css">
	.st0{fill:#FFD800;}
	.st1{fill:#E1251B;}
	.st2{fill:#6FCFEB;}
</style>
<g id="Group_215" transform="translate(-673 -2291)">
	<path id="Icon" class="st0" d="M723,2291c27.6,0,50,22.4,50,50s-22.4,50-50,50s-50-22.4-50-50S695.4,2291,723,2291z"/>
	<g id="Group_142" transform="translate(-89.546 1856.833)">
		<path id="Path_156" class="st1" d="M821,443.3c-12.5-3.4-25.8-1-36.2,6.7c17-6.2,35.8,2.6,42,19.7c6.2,17-2.6,35.8-19.7,42
			c-12,4.4-25.5,1.3-34.5-7.8c11,20.6,36.6,28.3,57.1,17.3c20.6-11,28.3-36.6,17.3-57.1C841.5,453.9,832.1,446.3,821,443.3z"/>
		<path id="Path_157" class="st2" d="M793.9,478.5c0,0-5.6,15.6-6,17.4c-0.2,1.2-0.9,7.3,6,7.3s5.8-6.3,5.4-7.8
			C799,493.9,793.9,478.5,793.9,478.5z"/>
		<path id="Path_158" class="st2" d="M803,459.4c0,0-5.6,15.6-6,17.4c-0.2,1.2-0.9,7.3,6,7.3s5.8-6.3,5.4-7.8
			C808.1,474.9,803,459.4,803,459.4z"/>
	</g>
</g>
</svg>
