<?xml version="1.0" encoding="utf-8"?>
<!-- Generator: Adobe Illustrator 24.1.0, SVG Export Plug-In . SVG Version: 6.00 Build 0)  -->
<svg version="1.1" id="Sore_throat" xmlns="http://www.w3.org/2000/svg" xmlns:xlink="http://www.w3.org/1999/xlink" x="0px"
	 y="0px" viewBox="0 0 100.1 99" style="enable-background:new 0 0 100.1 99;" xml:space="preserve">
<style type="text/css">
	.st0{fill:#FFD800;}
	.st1{clip-path:url(#SVGID_2_);}
	.st2{fill:#6FCFEB;}
	.st3{fill:#E1251B;}
</style>
<g id="Group_208" transform="translate(-683 -2291)">
	<path id="Icon-2" class="st0" d="M733,2291c27.6,0,50,22.4,50,50s-22.4,50-50,50s-50-22.4-50-50S705.4,2291,733,2291z"/>
	<g id="Group_118" transform="translate(659.433 1853.999)">
		<g id="Group_117">
			<g>
				<g>
					<defs>
						<circle id="SVGID_1_" cx="73.6" cy="487" r="50"/>
					</defs>
					<clipPath id="SVGID_2_">
						<use xlink:href="#SVGID_1_"  style="overflow:visible;"/>
					</clipPath>
					<g id="Group_116" class="st1">
						<g id="Group_115">
							<path id="Path_142" class="st2" d="M115.4,548h-84c0,0-7.3-36.6,32.1-39.6c0.7-3.9,0.9-9.2,0.4-12
								c-10.5-4-21.4-12.3-21.4-26.8c0-17.7,16.9-32,30.9-32s30.9,14.3,30.9,32c0,14.3-10.7,22.5-20.9,26.6
								c-0.8,4.2-0.8,8.4-0.2,12.6C121.4,513.3,115.4,548,115.4,548z"/>
							<circle id="Ellipse_25" class="st3" cx="73.2" cy="503.5" r="6.6"/>
							<path id="Lighting" class="st3" d="M94.3,486.8l-6.7,5.7l-1.3-3.6l-6.8,8.8l6.1-5.4l1.5,3.5L94.3,486.8z"/>
							<path id="Lighting-2" class="st3" d="M96.4,502.5l-7.1-0.2l1.1-2.9l-8.9,1.7h6.6l-1,2.9L96.4,502.5z"/>
						</g>
					</g>
				</g>
			</g>
		</g>
	</g>
</g>
</svg>
