<?xml version="1.0" encoding="utf-8"?>
<!-- Generator: Adobe Illustrator 24.1.0, SVG Export Plug-In . SVG Version: 6.00 Build 0)  -->
<svg version="1.1" id="Cough" xmlns="http://www.w3.org/2000/svg" xmlns:xlink="http://www.w3.org/1999/xlink" x="0px" y="0px"
	 viewBox="0 0 100 102" style="enable-background:new 0 0 100 102;" xml:space="preserve">
<style type="text/css">
	.st0{fill:#FFD800;}
	.st1{fill:#6FCFEB;}
	.st2{fill:none;stroke:#E1251B;stroke-width:4;stroke-linecap:round;stroke-miterlimit:10;stroke-dasharray:7;}
</style>
<g id="Group_214" transform="translate(-694 -2291)">
	<circle id="Icon" class="st0" cx="744" cy="2341" r="50"/>
	<g id="Group_141" transform="translate(190.634 2015.557)">
		<path id="Path_155" class="st1" d="M583.7,356c-7.2,2.6-14.4,4-22,2.1c-0.9-0.4-1.7-1.2-2-2.2c-0.4-1.8-0.7-3.7-0.9-5.6
			c-0.6-3.3-1.9-4.4-5.3-4.5c-2.1,0-4.3-0.2-6.4-0.5c-2.1-0.3-2.7-1.6-2.1-3.7c0.3-1.2,0-2.4-0.7-3.3c-1.4-1.6-1.1-2.4,0.6-3.1
			c1.3-0.5,2.6-0.9,4.3-1.5l-6.6-3l1.3-3.1c-0.2-0.2-0.3-0.4-0.5-0.4c-4.2-1.2-4.5-1.9-1.7-5.4c2.7-3.3,4-6.6,3.4-11.3
			c-0.7-5.6,2.3-10.4,7-13.7c8.7-6.1,22.9-6.3,31.8-0.4c8,5.3,11.9,17.9,7.8,27.8c-1.9,4.3-4.5,8.2-7.7,11.6
			c-2.5,2.9-3.5,5.7-2.7,9.2S582.9,352.2,583.7,356z"/>
		<line id="Line_2" class="st2" x1="535.3" y1="330.1" x2="517.9" y2="320.2"/>
		<line id="Line_3" class="st2" x1="534.6" y1="333.9" x2="513.4" y2="333.9"/>
		<line id="Line_4" class="st2" x1="535.3" y1="337.6" x2="517.9" y2="347.5"/>
	</g>
</g>
</svg>
