<?xml version="1.0" encoding="utf-8"?>
<!-- Generator: Adobe Illustrator 24.1.0, SVG Export Plug-In . SVG Version: 6.00 Build 0)  -->
<svg version="1.1" id="Weight_loss" xmlns="http://www.w3.org/2000/svg" xmlns:xlink="http://www.w3.org/1999/xlink" x="0px"
	 y="0px" viewBox="0 0 100 100" style="enable-background:new 0 0 100 100;" xml:space="preserve">
<style type="text/css">
	.st0{fill:#FFD800;}
	.st1{fill:#E1251B;}
	.st2{fill:#6FCFEB;}
</style>
<g id="Group_218" transform="translate(-680 -2291)">
	<circle id="Icon" class="st0" cx="730" cy="2341" r="50"/>
	<g id="Group_109" transform="translate(548.216 2171.345)">
		<path id="Square" class="st1" d="M160.5,133.4H204c6.6,0,12,5.4,12,12v47.7c0,6.6-5.4,12-12,12h-43.4c-6.6,0-12-5.4-12-12v-47.7
			C148.5,138.8,153.9,133.4,160.5,133.4z"/>
		<path id="Scale_BG" class="st2" d="M166.5,138.4h32.2c6.6,0,12,5.4,12,12v3.3c0,6.6-5.4,12-12,12h-32.2c-6.6,0-12-5.4-12-12v-3.3
			C154.5,143.8,159.9,138.4,166.5,138.4z"/>
		<g id="Scale" transform="translate(171.746 140.172)">
			<g id="Group_108" transform="translate(0)">
				<path id="Path_134" class="st1" d="M-6.8,18.3L-6.8,18.3c-0.6,0.4-1.3,0.4-1.9-0.1l-5-4.9c-0.4-0.4-0.4-1-0.1-1.5
					c0-0.1,0.1-0.1,0.2-0.1l0,0c0.6-0.4,1.3-0.4,1.9,0.1l5,4.9c0.4,0.4,0.4,1,0.1,1.5C-6.7,18.2-6.8,18.2-6.8,18.3z"/>
				<path id="Path_135" class="st1" d="M-3.4,13.6L-3.4,13.6C-4,14-4.7,13.9-5.2,13.4l-4.5-5.2c-0.4-0.4-0.3-1.1,0.1-1.5
					c0.1,0,0.1-0.1,0.2-0.1l0,0C-8.8,6.2-8,6.3-7.6,6.8l4.5,5.2c0.4,0.4,0.3,1.1-0.1,1.5C-3.3,13.5-3.3,13.6-3.4,13.6z"/>
				<path id="Path_136" class="st1" d="M1.1,10.7L1.1,10.7c-0.6,0.3-1.4,0-1.7-0.5l-3.2-5.9C-4.2,3.8-4,3.1-3.4,2.8
					c0,0,0.1,0,0.2-0.1l0,0c0.6-0.3,1.4,0,1.8,0.5l3.2,5.9c0.3,0.5,0.1,1.2-0.5,1.5C1.2,10.6,1.1,10.7,1.1,10.7z"/>
				<path id="Path_137" class="st1" d="M6.1,9L6.1,9C5.4,9.2,4.7,8.8,4.5,8.2l-2-6.3C2.3,1.3,2.7,0.7,3.3,0.5h0.1l0,0
					C4,0.4,4.7,0.7,5,1.3l2,6.3C7.2,8.2,6.8,8.8,6.1,9C6.2,9,6.1,9,6.1,9z"/>
				<path id="Path_138" class="st1" d="M28.6,18.6L28.6,18.6c0.6,0.4,1.3,0.4,1.9-0.1l5-4.9c0.4-0.4,0.4-1,0.1-1.5
					c0-0.1-0.1-0.1-0.2-0.1l0,0c-0.6-0.4-1.3-0.4-1.9,0.1l-5,4.9c-0.4,0.4-0.4,1-0.1,1.5C28.5,18.5,28.5,18.5,28.6,18.6z"/>
				<path id="Path_139" class="st1" d="M25.1,13.9L25.1,13.9c0.6,0.4,1.4,0.3,1.8-0.2l4.5-5.2c0.4-0.4,0.3-1.1-0.1-1.5
					c-0.1,0-0.1-0.1-0.2-0.1l0,0c-0.6-0.4-1.4-0.3-1.8,0.2l-4.5,5.2c-0.4,0.4-0.3,1.1,0.1,1.5C25,13.9,25.1,13.9,25.1,13.9z"/>
				<path id="Path_140" class="st1" d="M20.7,11L20.7,11c0.6,0.3,1.4,0,1.7-0.5l3.2-5.9c0.3-0.5,0.1-1.2-0.5-1.5c0,0-0.1,0-0.2-0.1
					l0,0c-0.6-0.3-1.4-0.1-1.8,0.5l-3.1,6c-0.3,0.5-0.1,1.2,0.5,1.5C20.6,11,20.6,11,20.7,11z"/>
				<path id="Path_141" class="st1" d="M15.7,9.3L15.7,9.3c0.7,0.2,1.4-0.2,1.6-0.8l2-6.3c0.2-0.6-0.2-1.2-0.8-1.4h-0.1l0,0
					C17.7,0.7,17,1,16.8,1.7l-2,6.3C14.6,8.5,15,9.1,15.7,9.3C15.6,9.3,15.6,9.3,15.7,9.3z"/>
				<path id="Rectangle_35" class="st1" d="M11,0L11,0c0.7,0,1.3,0.6,1.3,1.3v6.2c0,0.7-0.6,1.3-1.3,1.3l0,0c-0.7,0-1.3-0.6-1.3-1.3
					V1.3C9.7,0.6,10.3,0,11,0z"/>
			</g>
		</g>
		<path id="Pointer" class="st1" d="M174.1,155.5L174.1,155.5c0.2-0.6,0.9-0.9,1.5-0.7L189,160c0.6,0.2,0.9,0.9,0.7,1.5l0,0
			c-0.2,0.6-0.9,0.9-1.5,0.7l-13.3-5.2C174.2,156.8,173.9,156.1,174.1,155.5z"/>
		<circle id="Screw" class="st1" cx="182.9" cy="158.9" r="4.2"/>
		<circle id="Screw-2" class="st2" cx="182.9" cy="158.9" r="2.5"/>
	</g>
</g>
</svg>
