<?xml version="1.0" encoding="utf-8"?>
<!-- Generator: Adobe Illustrator 24.1.0, SVG Export Plug-In . SVG Version: 6.00 Build 0)  -->
<svg version="1.1" id="Layer_1" xmlns="http://www.w3.org/2000/svg" xmlns:xlink="http://www.w3.org/1999/xlink" x="0px" y="0px"
	 viewBox="0 0 106 105" style="enable-background:new 0 0 106 105;" xml:space="preserve">
<style type="text/css">
	.st0{fill:#FFD800;}
	.st1{fill:#E1251B;}
</style>
<g id="Headache" transform="translate(1)">
	<g id="Group_210" transform="translate(-692 -2291)">
		<circle id="Icon" class="st0" cx="744" cy="2341" r="50"/>
		<g id="Group_111" transform="translate(282.397 23.426)">
			<g id="Group_110" transform="translate(416 2275)">
				<g id="Brain" transform="translate(14.623 28.575)">
					<path id="Brain-2" class="st1" d="M55.8,25.2c-0.1-6.3-4.8-7.3-4.8-7.3c1-3.4-0.3-7-3.1-9c0,0-2-1.8-6.7-1.4
						c-1.1-2.3-3.2-4-5.6-4.8c-2.1-0.8-4.5-0.4-6.3,1c0,0-1.1-3-6.7-3.8c-3.1,0-5.9,1.8-7.1,4.6c-3-0.8-6.2,0.1-8.2,2.5
						c-3.7,4-2.4,6.9-2.4,6.9S0,16,0,21.2s3.1,8.2,7.3,9l8.2,0.1c0,0,1,5.9,8.9,5.4c0,0-0.8,8.8,7.3,9.9c0,0,5.5-1.2,5.6,9.6
						c0,0,0.6,2.2,2.1,1.9c1-0.1,1.9-0.9,1.9-1.9C41.2,54.6,42,42.3,33,42c0,0-4.6,0.7-5.1-4.6c0,0-0.1-4.3,4-4.5s13.3,0,13.3,0
						s2.1,0,2.2,1.8s-1.9,1.9-1.9,1.9h-8.4c0,0-1.8,0.5-1.8,1.9c0,1,0.8,1.7,1.8,1.8h8.8c0,0,3.8-0.5,4.6-3.4s0-3.9,0-3.9
						C53.7,32,55.9,28.8,55.8,25.2z M48.5,30c-0.6-0.1-1.2-0.3-1.8-0.5C45.5,29,32,29.3,31,29.5c-1.8,0.3-3.5,1.1-4.7,2.5
						c0,0-7.3,1.3-7.9-3.4s4-4.9,4-4.9h12.9c1,0,1.9,0.6,2.3,1.6c0.4,1,1.4,1.4,2.4,1.1c0.3-0.1,0.6-0.3,0.8-0.6
						c0.5-0.9,0.4-2.4-1.7-4.4c0,0,2.9-3.3,1-5s-3.4,1.1-3.6,2.2s0.1,1.6-3.9,1.6H22.4c-3.8,0.1-7,2.9-7.6,6.7h-7
						c0,0-5.2-2.2-4.2-6.2c0.5-2.3,2.6-3.9,5-3.8c0,0,1.5,0.2,0.6-2s-1.1-5.2,2.5-6.7s3.8,1.1,5.2,1s1.4-2,1.4-2
						C19,5,21,3.7,23.1,3.8s3.9,1.5,4.3,3.6c0,0,0.6,1.8,1.4,1.5s2.6-3.8,6.5-2.4s2.6,5.4,3.3,5.5c0.3,0.4,0.9,0.5,1.4,0.2
						c0.8-0.5,3.8-2.5,6.4,0.2c1.7,1.7,1.8,4.4,0.4,6.3c-0.5,0.7-0.6,1.6,0.2,1.9s5,0.4,5.1,4.3C52.1,24.9,52.7,29.1,48.5,30
						L48.5,30z"/>
					<path id="Brain_outline" class="st1" d="M10.9,18.8c0,0,1.9-0.7,1.9-4.2s3.2,0.4,5.5,0s3.5-1.4,4.1-3.4s2.3-1,2.9,0.2
						s4.6,0.9,5.7,0.1c1.1-0.8,3,1.2,2,2.3s-3.1,2.8-8.5,1.3c0,0-3.2,4.8-8.6,3.1c0,0-2.1,5-4.4,3.6S10.9,18.8,10.9,18.8z"/>
				</g>
				<path id="Lighting" class="st1" d="M6.4,10.1L10.8,21l-5.1,0.2L14,33.5l-4.3-9.9l5-0.5L6.4,10.1z"/>
				<path id="Lighting-2" class="st1" d="M0,36l7.1-1.3l-1.3,2.7L9.4,38l-6.9,1.5L4,37.1L0,36z"/>
				<path id="Lighting-3" class="st1" d="M47.2,0l-0.8,11.7l-4.7-2.1l2,14.7l0.5-10.8l4.7,1.8L47.2,0z"/>
				<path id="Lighting-4" class="st1" d="M26.7,12.1l4.8,7.9l-3.8-0.4l0.9,4.6l-4.8-7.6l3.5,0.7L26.7,12.1z"/>
				<path id="Lighting-5" class="st1" d="M91,17.1l-8.9,7.5l-1.8-4.8l-9.1,11.7l8.1-7.1l2,4.6L91,17.1z"/>
				<path id="Lighting-6" class="st1" d="M68.5,18.6l-5.2,7.6l-1.2-3.6l-3.8,2.8l4.8-7.6l0.8,3.5L68.5,18.6z"/>
				<path id="Lighting-7" class="st1" d="M87.8,38.1l-8,4.7l0.4-3.8l-4.6,0.9l7.6-4.8l-0.7,3.5L87.8,38.1z"/>
			</g>
		</g>
	</g>
</g>
</svg>
