<?xml version="1.0" encoding="utf-8"?>
<!-- Generator: Adobe Illustrator 24.1.0, SVG Export Plug-In . SVG Version: 6.00 Build 0)  -->
<svg version="1.1" id="Lymph_glands" xmlns="http://www.w3.org/2000/svg" xmlns:xlink="http://www.w3.org/1999/xlink" x="0px"
	 y="0px" viewBox="0 0 100 100" style="enable-background:new 0 0 100 100;" xml:space="preserve">
<style type="text/css">
	.st0{fill:#FFD800;}
	.st1{clip-path:url(#SVGID_2_);}
	.st2{fill:#6FCFEB;}
	.st3{fill:#FF1D25;}
	.st4{fill:#E1251A;}
</style>
<g id="Group_209" transform="translate(-672 -2291)">
	<circle id="Icon-2" class="st0" cx="722" cy="2341" r="50"/>
	<g id="Group_122" transform="translate(529.208 1853.999)">
		<g id="Group_121">
			<g>
				<g>
					<defs>
						<circle id="SVGID_1_" cx="192.8" cy="487" r="50"/>
					</defs>
					<clipPath id="SVGID_2_">
						<use xlink:href="#SVGID_1_"  style="overflow:visible;"/>
					</clipPath>
					<g id="Group_120" class="st1">
						<g id="Group_119">
							<path id="Path_143" class="st2" d="M231.6,536.7h-76c0,0-6.6-33.1,29.1-35.8c0.7-3.6,0.8-7.3,0.3-10.9
								c-9.5-3.6-19.4-11.2-19.4-24.3c0-16,15.3-29,28-29s28,13,28,29c0,12.9-9.7,20.3-18.9,24.1c-0.7,3.8-0.8,7.6-0.2,11.4
								C237,505.3,231.6,536.7,231.6,536.7z"/>
							<circle id="Ellipse_26" class="st3" cx="200.4" cy="496.4" r="6"/>
							<path id="Lighting" class="st4" d="M222.4,485.3l-6.1,5.1l-1.2-3.3l-6.2,8l5.5-4.9l1.4,3.1L222.4,485.3z"/>
							<path id="Lighting-2" class="st4" d="M225.5,499.5l-8-0.2l1.3-3.3l-9.9,1.8h7.3l-1.1,3.2L225.5,499.5z"/>
							<circle id="Ellipse_27" class="st3" cx="186.6" cy="496.5" r="6"/>
							<path id="Lighting-3" class="st4" d="M164.5,485.4l6.1,5.1l1.2-3.3l6.2,8l-5.5-4.9l-1.4,3.1L164.5,485.4z"/>
							<path id="Lighting-4" class="st4" d="M161.4,499.6l8-0.2l-1.3-3.3l9.9,1.8h-7.3l1.1,3.2L161.4,499.6z"/>
						</g>
					</g>
				</g>
			</g>
		</g>
	</g>
</g>
</svg>
